<svg width="11" height="11" viewBox="0 0 11 11" fill="none" xmlns="http://www.w3.org/2000/svg">
<path d="M9 4L9.625 2.625L11 2L9.625 1.375L9 0L8.375 1.375L7 2L8.375 2.625L9 4Z" fill="url(#paint0_linear_535_63)"/>
<path d="M9 7L8.375 8.375L7 9L8.375 9.625L9 11L9.625 9.625L11 9L9.625 8.375L9 7Z" fill="url(#paint1_linear_535_63)"/>
<path d="M5.25 4.25L4 1.5L2.75 4.25L0 5.5L2.75 6.75L4 9.5L5.25 6.75L8 5.5L5.25 4.25ZM4.495 5.995L4 7.085L3.505 5.995L2.415 5.5L3.505 5.005L4 3.915L4.495 5.005L5.585 5.5L4.495 5.995Z" fill="url(#paint2_linear_535_63)"/>
<defs>
<linearGradient id="paint0_linear_535_63" x1="9" y1="0" x2="9" y2="4" gradientUnits="userSpaceOnUse">
<stop stop-color="#00FFF2"/>
<stop offset="1" stop-color="#3FB98E"/>
</linearGradient>
<linearGradient id="paint1_linear_535_63" x1="9" y1="7" x2="9" y2="11" gradientUnits="userSpaceOnUse">
<stop stop-color="#00FFF2"/>
<stop offset="1" stop-color="#3FB98E"/>
</linearGradient>
<linearGradient id="paint2_linear_535_63" x1="4" y1="1.5" x2="4" y2="9.5" gradientUnits="userSpaceOnUse">
<stop stop-color="#00FFF2"/>
<stop offset="1" stop-color="#3FB98E"/>
</linearGradient>
</defs>
</svg>
