<svg id="Layer_1" data-name="Layer 1" xmlns="http://www.w3.org/2000/svg" viewBox="0 0 64 64"><path d="M23.82,56.35a5.49,5.49,0,0,0-.45,1,12,12,0,0,0,17.26,0,5.49,5.49,0,0,0-.45-1A9.33,9.33,0,0,0,32,52,9.33,9.33,0,0,0,23.82,56.35Z" id="id_118" style="fill: rgb(255, 255, 255);"></path><path d="M34,47a2,2,0,0,0-4,0c0,1.23.71,3,2,3S34,48.23,34,47Z" id="id_119" style="fill: rgb(255, 255, 255);"></path><path d="M57,24.41l3.29,3.3,1.42-1.42-5-5a1,1,0,0,0-1.09-.21A1,1,0,0,0,55,22V43h2Z" id="id_120" style="fill: rgb(255, 255, 255);"></path><path d="M51.29,42.71A1,1,0,0,0,52,43a.84.84,0,0,0,.38-.08A1,1,0,0,0,53,42V21H51V39.59l-3.29-3.3-1.42,1.42Z" id="id_121" style="fill: rgb(255, 255, 255);"></path><path d="M9,43V22a1,1,0,0,0-.62-.92,1,1,0,0,0-1.09.21l-5,5,1.42,1.42L7,24.41V43Z" id="id_122" style="fill: rgb(255, 255, 255);"></path><path d="M11,21V42a1,1,0,0,0,.62.92A.84.84,0,0,0,12,43a1,1,0,0,0,.71-.29l5-5-1.42-1.42L13,39.59V21Z" id="id_123" style="fill: rgb(255, 255, 255);"></path><polygon points="45 13 47 13 32 3 17 13 19 13 20 13 21 13 24 13 25 13 26 13 28.5 13 29.5 13 30.5 13 33.5 13 34.5 13 35.5 13 38 13 39 13 40 13 43 13 44 13 45 13" id="id_124" style="fill: rgb(255, 255, 255);"></polygon><rect x="17" y="24" width="30" height="3" rx="0.5" id="id_125" style="fill: rgb(255, 255, 255);"></rect><polygon points="21 17 21 23 22 23 23 23 24 23 24 17 23 17 22 17 21 17" id="id_126" style="fill: rgb(255, 255, 255);"></polygon><path d="M25,15.72h0A.54.54,0,0,0,25,15.5V14H20v1.5a.54.54,0,0,0,.05.21h0a.49.49,0,0,0,.45.28h4A.49.49,0,0,0,25,15.72Z" id="id_127" style="fill: rgb(255, 255, 255);"></path><polygon points="30.5 17 30.5 23 31.5 23 32.5 23 33.5 23 33.5 17 32.5 17 31.5 17 30.5 17" id="id_128" style="fill: rgb(255, 255, 255);"></polygon><path d="M34.45,15.72h0a.54.54,0,0,0,0-.21V14h-5v1.5a.54.54,0,0,0,.05.21h0A.49.49,0,0,0,30,16h4A.49.49,0,0,0,34.45,15.72Z" id="id_129" style="fill: rgb(255, 255, 255);"></path><polygon points="40 17 40 23 41 23 42 23 43 23 43 17 42 17 41 17 40 17" id="id_130" style="fill: rgb(255, 255, 255);"></polygon><path d="M44,15.71a.54.54,0,0,0,0-.21V14H39v1.5a.54.54,0,0,0,0,.21.48.48,0,0,0,.45.29h4A.48.48,0,0,0,44,15.71Z" id="id_131" style="fill: rgb(255, 255, 255);"></path><path d="M42.05,55.57a12,12,0,1,0-20.09,0,6.62,6.62,0,0,1,.58-1A10.78,10.78,0,0,1,29,50.35,5.9,5.9,0,0,1,28,47a4,4,0,0,1,8,0,5.9,5.9,0,0,1-1,3.35,10.78,10.78,0,0,1,6.5,4.26A9.51,9.51,0,0,1,42.05,55.57ZM37.66,43.34l1.39-1.43,0,0a9.87,9.87,0,0,1,2.85,5.83l-2,.25A8,8,0,0,0,37.66,43.34ZM41,51a1,1,0,1,1,1-1A1,1,0,0,1,41,51Z" id="id_132" style="fill: rgb(255, 255, 255);"></path></svg>