<svg xmlns="http://www.w3.org/2000/svg" viewBox="0 0 64 64"><title>1</title><g id="Layer_59" data-name="Layer 59"><path d="M55.69,18V11.48A5.67,5.67,0,0,0,48.62,6L8.49,18A5.67,5.67,0,0,0,3,23.69V52.52a5.67,5.67,0,0,0,5.67,5.67H55.33A5.67,5.67,0,0,0,61,52.52V23.69A5.67,5.67,0,0,0,55.69,18ZM49.14,7.92a3.67,3.67,0,0,1,4.54,3.56V18H15.48Zm6.19,48.27H9.67v-2a1,1,0,0,0-2,0V56A3.66,3.66,0,0,1,5,52.52V23.69a3.66,3.66,0,0,1,2.67-3.51v1a1,1,0,1,0,2,0V20H55.33A3.67,3.67,0,0,1,59,23.69v6.67H46.75a7.58,7.58,0,1,0,0,15.17H59v7A3.67,3.67,0,0,1,55.33,56.19ZM59,43.52H46.75a5.58,5.58,0,1,1,0-11.17H59Z" id="id_133" style="fill: rgb(255, 255, 255);"></path><path d="M43.11,38.1a4.22,4.22,0,1,0,4.22-4.22A4.22,4.22,0,0,0,43.11,38.1Zm4.22-2.22a2.22,2.22,0,1,1-2.22,2.22A2.22,2.22,0,0,1,47.33,35.89Z" id="id_134" style="fill: rgb(255, 255, 255);"></path><path d="M8.67,41.19a1,1,0,0,0-1,1v3a1,1,0,0,0,2,0v-3A1,1,0,0,0,8.67,41.19Z" id="id_135" style="fill: rgb(255, 255, 255);"></path><path d="M8.67,47.19a1,1,0,0,0-1,1v3a1,1,0,0,0,2,0v-3A1,1,0,0,0,8.67,47.19Z" id="id_136" style="fill: rgb(255, 255, 255);"></path><path d="M8.67,35.19a1,1,0,0,0-1,1v3a1,1,0,0,0,2,0v-3A1,1,0,0,0,8.67,35.19Z" id="id_137" style="fill: rgb(255, 255, 255);"></path><path d="M8.67,29.19a1,1,0,0,0-1,1v3a1,1,0,0,0,2,0v-3A1,1,0,0,0,8.67,29.19Z" id="id_138" style="fill: rgb(255, 255, 255);"></path><path d="M8.67,23.19a1,1,0,0,0-1,1v3a1,1,0,1,0,2,0v-3A1,1,0,0,0,8.67,23.19Z" id="id_139" style="fill: rgb(255, 255, 255);"></path><path d="M38.19,35.42a.9.9,0,0,0,0-.54s0-.05,0-.08v0l-3-5.71,0,0,0,0a1,1,0,0,0-.85-.48H16.45a1,1,0,0,0-.85.48l0,0,0,0-3,5.71v0s0,.05,0,.08a1,1,0,0,0,0,.69l0,.11,0,.06.06.07,0,.06L24.59,49.59h0a1,1,0,0,0,.28.21l.09,0a1,1,0,0,0,.37.08h0a1,1,0,0,0,.37-.08l.09,0a1,1,0,0,0,.28-.21l0,0L38,35.87l0-.06.06-.07,0-.06,0-.11A1,1,0,0,0,38.19,35.42Zm-12.84,11-4.41-10.2h8.82Zm-3-14.74,1.32,2.54H21.06Zm5.82.21.11-.21,1.32,2.54H27ZM31.28,33,30,30.5H32.6Zm-5.82-.21-.11.21L24,30.5h2.64Zm-6,.21L18.1,30.5h2.64Zm14.83-1.37,1.32,2.54H32.93Zm-17.8,0,1.32,2.54H15.13Zm2.31,4.54,3.09,7.14-6.18-7.14Zm10.09,7.14,3.09-7.14H35Z" id="id_140" style="fill: rgb(255, 255, 255);"></path></g></svg>