<svg version="1.1" id="Icons" xmlns="http://www.w3.org/2000/svg" xmlns:xlink="http://www.w3.org/1999/xlink" x="0px" y="0px" viewBox="0 0 32 32" style="enable-background:new 0 0 32 32;" xml:space="preserve">
<style type="text/css">
	.st0{fill:none;stroke:#000000;stroke-width:2;stroke-linecap:round;stroke-linejoin:round;stroke-miterlimit:10;}
</style>
<g>
	<rect x="14" y="13" width="1" height="5" id="id_112" style="fill: rgb(255, 255, 255);"></rect>
	<rect x="17" y="13" width="1" height="5" id="id_113" style="fill: rgb(255, 255, 255);"></rect>
	<rect x="11" y="13" width="1" height="5" id="id_114" style="fill: rgb(255, 255, 255);"></rect>
	<path d="M27,3H5C3.3,3,2,4.3,2,6v15c0,1.7,1.3,3,3,3h22c1.7,0,3-1.3,3-3V6C30,4.3,28.7,3,27,3z M24,12c0,0.6-0.4,1-1,1v5
		c0.6,0,1,0.4,1,1s-0.4,1-1,1H9c-0.6,0-1-0.4-1-1s0.4-1,1-1v-5c-0.6,0-1-0.4-1-1V9.5c0-0.4,0.3-0.8,0.7-0.9l7-2.5
		c0.2-0.1,0.5-0.1,0.7,0l7,2.5C23.7,8.7,24,9.1,24,9.5V12z" id="id_115" style="fill: rgb(255, 255, 255);"></path>
	<rect x="20" y="13" width="1" height="5" id="id_116" style="fill: rgb(255, 255, 255);"></rect>
</g>
<g>
	<path d="M23,28L23,28c-1.1,0-2.1-0.7-2.5-1.8c0-0.1-0.1-0.2-0.1-0.2h-8.9c0,0.1,0,0.2-0.1,0.2C11.1,27.3,10.1,28,9,28h0
		c-0.6,0-1,0.4-1,1s0.4,1,1,1h14c0.6,0,1-0.4,1-1S23.6,28,23,28z" id="id_117" style="fill: rgb(255, 255, 255);"></path>
</g>
</svg>