<svg id="Layer_1" data-name="Layer 1" xmlns="http://www.w3.org/2000/svg" viewBox="0 0 64 64"><polygon points="55 8 53 7 51 8 51 1 43 1 43 21 63 21 63 1 55 1 55 8" id="id_101" style="fill: rgb(255, 255, 255);"></polygon><path d="M60,50.5H53a3,3,0,0,0-3,3V63H63V53.5A3,3,0,0,0,60,50.5Z" id="id_102" style="fill: rgb(255, 255, 255);"></path><circle cx="56.5" cy="47.25" r="3.25" id="id_103" style="fill: rgb(255, 255, 255);"></circle><path d="M22,12H36.586l-1.293,1.293,1.414,1.414,3-3a1,1,0,0,0,0-1.414l-3-3L35.293,8.707,36.586,10H22Z" id="id_104" style="fill: rgb(255, 255, 255);"></path><path d="M43.707,50.293l-1.414,1.414L43.586,53H36v2h7.586l-1.293,1.293,1.414,1.414,3-3a1,1,0,0,0,0-1.414Z" id="id_105" style="fill: rgb(255, 255, 255);"></path><path d="M40.293,22.283,26,36.577v-1.82H24V39a1,1,0,0,0,1,1h4.243V38H27.405l14.3-14.3Z" id="id_106" style="fill: rgb(255, 255, 255);"></path><rect x="9" y="1" width="2" height="2" id="id_107" style="fill: rgb(255, 255, 255);"></rect><rect x="2.178" y="14.075" width="2" height="2.001" transform="translate(-7.244 3.729) rotate(-30.666)" id="id_108" style="fill: rgb(255, 255, 255);"></rect><rect x="1.686" y="5.212" width="2" height="2" transform="translate(-4.04 5.453) rotate(-60.181)" id="id_109" style="fill: rgb(255, 255, 255);"></rect><rect x="15.822" y="14.075" width="2.001" height="2" transform="translate(-4.725 21.854) rotate(-59.329)" id="id_110" style="fill: rgb(255, 255, 255);"></rect><rect x="16.314" y="5.212" width="2" height="2" transform="translate(-0.797 9.431) rotate(-29.815)" id="id_111" style="fill: rgb(255, 255, 255);"></rect><rect x="3" y="46.5" width="3" height="2" id="id_112" style="fill: rgb(255, 255, 255);"></rect><rect x="3" y="54.5" width="3" height="2" id="id_113" style="fill: rgb(255, 255, 255);"></rect><rect x="1" y="50.5" width="4" height="2" id="id_114" style="fill: rgb(255, 255, 255);"></rect><circle cx="12.5" cy="60.5" r="2.5" id="id_115" style="fill: rgb(255, 255, 255);"></circle><circle cx="28.5" cy="60.5" r="2.5" id="id_116" style="fill: rgb(255, 255, 255);"></circle><path d="M7,60.5H9a3.5,3.5,0,0,1,7,0h7v-17H7Z" id="id_117" style="fill: rgb(255, 255, 255);"></path><path d="M24,46.5v14h1a3.5,3.5,0,0,1,7,0h1v-9l-4-5Zm2,5v-3h2.5l2.5,3Z" id="id_118" style="fill: rgb(255, 255, 255);"></path><path d="M4.667,10.333a5.317,5.317,0,0,0,1.262,3.443A8.717,8.717,0,0,1,7.314,16h5.31a6.075,6.075,0,0,1,1.24-1.993,5.334,5.334,0,1,0-9.2-3.674Z" id="id_119" style="fill: rgb(255, 255, 255);"></path><path d="M10,21a2.133,2.133,0,0,0,2.133-2.133v-.192c0-.225.011-.451.031-.675H7.833c.021.212.034.425.034.641v.226A2.133,2.133,0,0,0,10,21Z" id="id_120" style="fill: rgb(255, 255, 255);"></path></svg>