<svg version="1.1" id="Layer_1" xmlns="http://www.w3.org/2000/svg" xmlns:xlink="http://www.w3.org/1999/xlink" x="0px" y="0px" viewBox="0 0 284.3476 276.5068" enable-background="new 0 0 284.3476 276.5068" xml:space="preserve">
<g>
	<path d="M284.3476,0H92.3066v85.3242c0.7305-0.1685,1.4688-0.3447,2.2168-0.5342c0.8584-0.2134,1.8027-0.4673,2.7832-0.7431V5
		h182.041v127.997H97.3066v-28.3027c-1.7168,0.4024-3.3887,0.7593-5,1.0733v43.3994h192.041V0z" id="id_101" style="fill: rgb(255, 255, 255);"></path>
	<path d="M132.0254,89.667c-3.6758,2.6924-7.7344,5.1089-12.1983,7.2529v18.7471h19v-26H132.0254z" id="id_102" style="fill: rgb(250, 250, 250);"></path>
	<rect x="149.3271" y="73.167" width="19" height="42.5" id="id_103" style="fill: rgb(255, 255, 255);"></rect>
	<rect x="208.3271" y="55.667" width="19" height="60" id="id_104" style="fill: rgb(255, 255, 255);"></rect>
	<rect x="178.8271" y="49.834" width="19" height="65.833" id="id_105" style="fill: rgb(255, 255, 255);"></rect>
	<rect x="237.8271" y="23.167" width="19" height="92.5" id="id_106" style="fill: rgb(255, 255, 255);"></rect>
	<path d="M50.1875,264.1435v-90.2734h4.6347v90.2734c0,6.8282,5.5371,12.3633,12.3633,12.3633
		c6.8281,0,12.3653-5.5351,12.3653-12.3633V107.6474v-2.0044c4.8359-0.4897,11.7031-1.4628,19.3867-3.3999
		c14.5088-3.7236,32.3252-10.7793,44.1777-26.0332c2.6934-3.5029,2.0391-8.5254-1.4629-11.2187
		c-3.5019-2.6934-8.5234-2.0391-11.2187,1.4639c-8.1465,10.7441-22.6289,17.0927-35.42,20.2753
		c-6.3593,1.6094-12.207,2.4737-16.4091,2.9229c-2.1026,0.2256-3.794,0.3486-4.9346,0.415
		c-0.2881,0.0161-0.541,0.0293-0.7559,0.0401c-0.3574-0.0508-0.7207-0.086-1.0918-0.086h-5.4697h-33.165
		c-0.5166,0-1.0205,0.0528-1.5078,0.1495c-1.8887,0.1337-4.7188,0.6928-7.8692,2.4277c-5.7207,3.1123-11.8359,9.7441-16.248,21.9429
		C3.1093,126.7949,0.0117,144.8418,0,172.4648c0,2.9297,0.0351,5.9668,0.1093,9.1182c0.1045,4.3506,3.6641,7.8105,7.9942,7.8105
		c0.0644,0,0.1299-0.0009,0.1953-0.0029c4.416-0.1055,7.9131-3.7705,7.8076-8.1865C16.0332,178.1767,16,175.2636,16,172.4648
		c-0.041-33.5361,4.9775-50.8144,9.459-58.8667v150.5454c0,6.8282,5.5371,12.3633,12.3632,12.3633
		C44.6504,276.5068,50.1875,270.9717,50.1875,264.1435z M48.7041,99.2295h3.8008h3.7988l1.9004,7.5l-0.2891,0.456
		c-1.5654,1.3057-3.4834,1.96-5.4121,1.9619c-1.9277-0.0019-3.8428-0.6547-5.4072-1.9575l-0.292-0.4604L48.7041,99.2295z
		 M48.4765,111.4082c1.2969,0.4863,2.6621,0.7402,4.0264,0.7392h0.002c0,0,0.0039,0,0.0058,0c1.3633,0,2.7256-0.2544,4.0205-0.7402
		l5.4737,40.3223l-9.5,12l-9.5-12L48.4765,111.4082z" id="id_107" style="fill: rgb(255, 255, 255);"></path>
	<circle cx="52.5058" cy="60.8232" r="22.5" id="id_108" style="fill: rgb(255, 255, 255);"></circle>
	<rect x="110.6601" y="119.001" width="155.334" height="4.666" id="id_109" style="fill: rgb(255, 255, 255);"></rect>
</g>
</svg>