<svg width="393" height="393" viewBox="0 0 393 393" fill="none" xmlns="http://www.w3.org/2000/svg">
<path d="M187.97 154.499C177.621 161.199 182.132 177.254 194.405 177.254C203.428 177.254 209.199 167.966 205.418 159.474C202.565 153.106 193.875 150.651 187.97 154.499Z" fill="#40D1CE"/>
<g filter="url(#filter0_d_22_178)">
<circle cx="194.5" cy="194.5" r="172.5" fill="white"/>
</g>
<circle cx="195" cy="195" r="143" stroke="#BB54F1" stroke-width="18"/>
<path d="M190.425 94.8579C182.331 101.028 174.039 109.851 169.793 116.817L168.532 118.874H193.742C207.608 118.874 218.952 118.741 218.952 118.475C218.952 117.746 213.645 110.448 210.195 106.468C204.821 100.165 196.396 93.0004 194.406 93.0004C193.477 93.0667 191.686 93.8628 190.425 94.8579Z" fill="#40D1CE"/>
<path d="M162.562 129.952C160.306 135.06 157.254 144.415 155.928 150.651C154.269 158.147 153.009 171.084 153.473 176.325L153.805 180.438L150.819 182.561C140.072 190.323 129.59 205.515 125.477 219.447C122.027 231.255 122.16 236.297 126.008 236.297C127.6 236.297 128.661 235.435 132.376 230.99C138.878 223.228 149.824 214.869 158.051 211.486L160.505 210.424L161.169 212.945C161.567 214.272 161.898 215.798 161.898 216.196C161.898 216.859 168.864 217.058 194.339 217.058H226.78L227.245 214.338C227.51 212.879 228.107 211.486 228.571 211.353C229.633 210.955 234.94 213.542 241.044 217.456C246.019 220.707 255.639 229.663 258.425 233.644C260.614 236.762 262.273 237.425 264.396 236.032C266.386 234.705 266.452 233.445 264.993 226.479C261.543 209.694 252.72 194.967 239.65 184.219L235.537 180.77L235.272 171.548C234.874 157.351 231.756 143.884 226.117 131.279L224.06 126.834H194.008H163.955L162.562 129.952ZM204.224 147.068C210.858 150.651 214.507 157.086 214.507 164.98C214.507 173.008 210.593 179.708 204.025 182.959C189.961 189.792 174.304 180.438 174.304 165.113C174.304 157.948 177.621 151.248 182.862 147.997C187.174 145.343 189.828 144.746 195.401 144.945C199.779 145.144 201.371 145.476 204.224 147.068Z" fill="#7060FE"/>
<path d="M163.491 226.015C163.69 226.546 164.021 230.46 164.287 234.639C164.685 241.406 164.95 242.468 166.144 243.264C167.272 244.126 171.982 244.259 194.406 244.259C216.829 244.259 221.539 244.126 222.667 243.264C223.861 242.468 224.127 241.406 224.525 234.639C224.79 230.46 225.122 226.546 225.321 226.015C225.653 225.152 221.672 225.02 194.406 225.02C167.139 225.02 163.159 225.152 163.491 226.015Z" fill="#40D1CE"/>
<path d="M175.565 255.934C174.636 256.797 174.503 259.185 174.503 271.79C174.503 286.385 174.503 286.65 175.963 287.646C177.82 288.972 178.816 288.972 180.076 287.646C181.005 286.783 181.138 284.395 181.138 271.525C181.138 260.711 180.939 256.266 180.341 255.669C179.214 254.541 176.759 254.674 175.565 255.934Z" fill="#40D1CE"/>
<path d="M191.885 255.669C190.757 256.797 190.757 299.388 191.885 300.516C192.88 301.511 195.931 301.511 196.927 300.516C198.054 299.388 198.054 256.797 196.927 255.669C195.931 254.674 192.88 254.674 191.885 255.669Z" fill="#7060FE"/>
<path d="M208.47 255.669C207.873 256.266 207.674 260.711 207.674 271.525C207.674 284.395 207.807 286.783 208.735 287.646C209.996 288.972 210.991 288.972 212.848 287.646C214.308 286.65 214.308 286.385 214.308 272.055C214.308 263.232 214.043 256.929 213.645 256.133C212.848 254.674 209.73 254.408 208.47 255.669Z" fill="#40D1CE"/>
<defs>
<filter id="filter0_d_22_178" x="0" y="0" width="393" height="393" filterUnits="userSpaceOnUse" color-interpolation-filters="sRGB">
<feFlood flood-opacity="0" result="BackgroundImageFix"/>
<feColorMatrix in="SourceAlpha" type="matrix" values="0 0 0 0 0 0 0 0 0 0 0 0 0 0 0 0 0 0 127 0" result="hardAlpha"/>
<feOffset dx="2" dy="2"/>
<feGaussianBlur stdDeviation="12"/>
<feComposite in2="hardAlpha" operator="out"/>
<feColorMatrix type="matrix" values="0 0 0 0 0 0 0 0 0 0 0 0 0 0 0 0 0 0 0.25 0"/>
<feBlend mode="normal" in2="BackgroundImageFix" result="effect1_dropShadow_22_178"/>
<feBlend mode="normal" in="SourceGraphic" in2="effect1_dropShadow_22_178" result="shape"/>
</filter>
</defs>
</svg>
