<svg xmlns="http://www.w3.org/2000/svg" xml:space="preserve" width="1.70666in" height="1.70666in" style="shape-rendering:geometricPrecision; text-rendering:geometricPrecision; image-rendering:optimizeQuality; fill-rule:evenodd; clip-rule:evenodd" viewBox="0 0 1.70666 1.70666" xmlns:xlink="http://www.w3.org/1999/xlink">
 <defs>
  <style type="text/css">
   
    .fil0 {fill:black}
   
  </style>
 </defs>
 <g id="Layer_x0020_1">
  <metadata id="CorelCorpID_0Corel-Layer"></metadata>
  <path class="fil0" d="M1.50969 1.26569l-0.305575 0c0.00557087,-0.0170669 0.00405118,-0.036252 -0.00545669,-0.0527205l-0.0353307 -0.061189c-0.0120906,-0.0209449 -0.0346142,-0.0329213 -0.0577717,-0.0324528 0.000468504,-0.0231575 -0.0115079,-0.0456811 -0.0324528,-0.0577717l-0.0611929 -0.0353307c-0.0210039,-0.012126 -0.0464291,-0.0112638 -0.0662402,0.000740157 -0.0111417,-0.0203228 -0.0327126,-0.0337677 -0.0570079,-0.0337677l-0.0706575 -3.93701e-006c-0.0243031,0 -0.045874,0.0134449 -0.0570157,0.0337717 -0.019811,-0.0120079 -0.0452402,-0.012874 -0.0662441,-0.000748031l-0.061189 0.0353268c-0.0209449,0.0120945 -0.0329213,0.0346181 -0.0324528,0.0577756 -0.0231575,-0.000468504 -0.0456811,0.0115079 -0.0577717,0.0324528l-0.0353307 0.0611929c-0.00950787,0.0164685 -0.0110276,0.0356535 -0.00545669,0.0527205l-0.305571 3.93701e-006c-0.0600906,0 -0.10898,-0.0488858 -0.10898,-0.108976l0 -0.735921 1.53067 0 0 0.735921c0,0.0600906 -0.0488858,0.108976 -0.108976,0.108976zm-1.4217 -0.888228l0 -0.268413c0,-0.0600866 0.0488858,-0.108972 0.10898,-0.108972l1.31272 0c0.0600906,0 0.108976,0.0488819 0.108976,0.108972l0 0.268413 -1.53067 0zm1.14776 0.257453l-0.0855827 0c-0.00970866,0.0388701 -0.0449134,0.0677441 -0.0867402,0.0677441 -0.0418307,0 -0.0770354,-0.028878 -0.086748,-0.0677441l-0.505772 0c-0.0119685,0 -0.0216654,-0.00969685 -0.0216654,-0.0216654 0,-0.0119646 0.00969685,-0.0216654 0.0216654,-0.0216654l0.505768 0c0.00970866,-0.0388661 0.0449173,-0.0677441 0.086752,-0.0677441 0.0418307,0 0.0770354,0.028878 0.0867441,0.0677441l0.0855787 0c0.0119646,0 0.0216654,0.00970079 0.0216654,0.0216654 0,0.0119685 -0.00970079,0.0216654 -0.0216654,0.0216654zm-7.87402e-006 0.230807l-0.505772 0c-0.0097126,0.0388661 -0.0449173,0.0677402 -0.086748,0.0677402 -0.0418307,0 -0.0770354,-0.028874 -0.0867441,-0.0677402l-0.0855787 0c-0.0119646,0 -0.0216654,-0.00969685 -0.0216654,-0.0216614 0,-0.0119685 0.00970079,-0.0216654 0.0216654,-0.0216654l0.0855748 0c0.00970866,-0.0388661 0.0449173,-0.067748 0.086748,-0.067748 0.0418346,0 0.0770433,0.0288819 0.086752,0.067748l0.505768 0c0.0119646,0 0.0216654,0.00969685 0.0216654,0.0216654 0,0.0119646 -0.00970079,0.0216614 -0.0216654,0.0216614zm-0.546441 -0.0215197l-3.93701e-006 -0.000141732 3.93701e-006 -3.93701e-006 0 -0.000141732c-7.87402e-005,-0.0253465 -0.0207165,-0.0459409 -0.0460787,-0.0459409 -0.0254055,0 -0.0460748,0.0206732 -0.0460748,0.0460827l0 3.93701e-006c3.93701e-006,0.0254094 0.0206693,0.0460748 0.0460748,0.0460748 0.0253622,0 0.046,-0.0205906 0.0460787,-0.0459331zm0.374126 -0.277031c-0.0254094,0 -0.0460787,0.0206732 -0.0460787,0.0460787 0,0.0254134 0.0206693,0.0460827 0.0460787,0.0460827 0.0254055,0 0.0460709,-0.0206693 0.0460709,-0.0460827 0,-0.0254055 -0.0206654,-0.0460787 -0.0460709,-0.0460787zm-0.723394 -0.256768c-0.055126,0 -0.0999764,-0.0448465 -0.0999764,-0.0999724 0,-0.055122 0.0448504,-0.0999724 0.0999764,-0.0999724 0.055122,0 0.0999724,0.0448465 0.0999724,0.0999724 0,0.055126 -0.0448504,0.0999724 -0.0999724,0.0999724zm1.10488 -0.0783031l-0.524185 0c-0.0119685,0 -0.0216654,-0.00970079 -0.0216654,-0.0216654 0,-0.0119646 0.00969685,-0.0216654 0.0216654,-0.0216654l0.524185 0c0.0119646,0 0.0216654,0.00970079 0.0216654,0.0216654 0,0.0119685 -0.00970079,0.0216654 -0.0216654,0.0216654zm-0.756945 0.0783031c-0.055122,0 -0.0999685,-0.0448465 -0.0999685,-0.0999724 0,-0.055122 0.0448465,-0.0999724 0.0999685,-0.0999724 0.055126,0 0.0999764,0.0448465 0.0999764,0.0999724 -3.93701e-006,0.055126 -0.0448504,0.0999724 -0.0999764,0.0999724zm0 -0.156614c-0.0312283,0 -0.0566378,0.0254134 -0.0566378,0.0566457 0,0.0312283 0.0254094,0.0566417 0.0566378,0.0566417 0.0312362,0 0.0566457,-0.0254134 0.0566457,-0.0566417 0,-0.0312323 -0.0254094,-0.0566457 -0.0566457,-0.0566457zm-0.347937 0c-0.0312362,0 -0.0566457,0.0254134 -0.0566457,0.0566457 0,0.0312283 0.0254094,0.0566417 0.0566457,0.0566417 0.0312323,0 0.0566417,-0.0254134 0.0566417,-0.0566417 0,-0.0312323 -0.0254094,-0.0566457 -0.0566417,-0.0566457z" id="id_101" style="fill: rgb(255, 255, 255);"></path>
  <path class="fil0" d="M0.88865 1.70658l-0.0706496 0c-0.0106417,0 -0.0197087,-0.00772835 -0.0213898,-0.0182402l-0.0102441 -0.0640276c-0.000476378,-0.000122047 -0.000952756,-0.000248031 -0.0014252,-0.000377953l-0.0408819 0.0503228c-0.0067126,0.00826378 -0.0184331,0.0104252 -0.0276535,0.00510236l-0.061189 -0.0353346c-0.00922047,-0.00532283 -0.0132008,-0.0165512 -0.00940157,-0.0264961l0.0231654 -0.060622c-0.000334646,-0.000334646 -0.000669291,-0.000665354 -0.00100394,-0.00100394l-0.060626 0.0231654c-0.00994488,0.00379528 -0.0211732,-0.000188976 -0.0264961,-0.00940551l-0.0353307 -0.061189c-0.00532283,-0.00921654 -0.00316142,-0.0209331 0.00510236,-0.0276457l0.0503189 -0.040878c-0.000129921,-0.000480315 -0.000255906,-0.000956693 -0.00038189,-0.00143701l-0.0640157 -0.0102362c-0.0105079,-0.00168504 -0.0182402,-0.010752 -0.0182402,-0.0213976l0 -0.0706535c0,-0.0106417 0.00772835,-0.0197126 0.0182402,-0.0213976l0.0640157 -0.0102402c0.000125984,-0.000476378 0.000251969,-0.000952756 0.000377953,-0.00142913l-0.050315 -0.040878c-0.00826378,-0.0067126 -0.0104213,-0.0184291 -0.00510236,-0.0276457l0.0353307 -0.0611929c0.00532283,-0.00921654 0.0165551,-0.0132008 0.0264961,-0.00940551l0.060626 0.0231654c0.000334646,-0.000338583 0.000669291,-0.000669291 0.00100394,-0.00100394l-0.0231654 -0.060626c-0.00379921,-0.00994488 0.000192913,-0.0211772 0.00940551,-0.0264961l0.061189 -0.0353268c0.00922047,-0.00532677 0.020937,-0.00315748 0.0276457,0.00509843l0.0408819 0.0503189c0.000476378,-0.000129921 0.000952756,-0.000259843 0.00142913,-0.00038189l0.0102441 -0.0640157c0.00167717,-0.0105079 0.010748,-0.0182402 0.0213898,-0.0182402l0.0706575 3.93701e-006c0.0106417,0 0.0197126,0.00772835 0.0213937,0.0182402l0.0102402 0.0640197c0.000476378,0.000129921 0.000948819,0.000255906 0.0014252,0.00038189l0.0408819 -0.0503228c0.00670866,-0.00825984 0.0184291,-0.0104291 0.0276457,-0.00509843l0.0611929 0.0353307c0.00921654,0.0053189 0.0132047,0.0165512 0.00940551,0.0264921l-0.0231693 0.0606299c0.000338583,0.000334646 0.000673228,0.000665354 0.00100787,0.00100394l0.0606299 -0.0231654c0.00994488,-0.00380315 0.0211772,0.000188976 0.0264921,0.00940551l0.0353307 0.061189c0.00532677,0.00921654 0.00316142,0.0209331 -0.00509843,0.0276457l-0.0503189 0.040878c0.000125984,0.000480315 0.000251969,0.000956693 0.00038189,0.00143307l0.0640118 0.0102402c0.0105079,0.00168504 0.0182441,0.010752 0.0182441,0.0213976l0 0.0706496c0,0.0106417 -0.00773228,0.0197126 -0.0182441,0.0213976l-0.0640197 0.0102402c-0.000125984,0.000476378 -0.000251969,0.000952756 -0.00038189,0.0014252l0.0503268 0.0408858c0.00825984,0.0067126 0.0104252,0.0184291 0.00509843,0.0276457l-0.0353307 0.0611929c-0.00532283,0.00922047 -0.0165551,0.0132008 -0.0264961,0.00940551l-0.060626 -0.0231693c-0.000334646,0.000338583 -0.000669291,0.000673228 -0.00100394,0.00100394l0.0231654 0.0606339c0.00379921,0.00994094 -0.000192913,0.0211772 -0.00940945,0.0264961l-0.061185 0.0353268c-0.00921654,0.00532283 -0.0209331,0.00315748 -0.0276457,-0.00510236l-0.0408819 -0.0503189c-0.000476378,0.000129921 -0.000952756,0.000255906 -0.00143307,0.00038189l-0.0102402 0.0640157c-0.00168504,0.0105079 -0.010752,0.0182362 -0.0213976,0.0182362zm-0.0353228 -0.18835c-0.080874,0 -0.146673,-0.0657953 -0.146673,-0.146673 0,-0.0808819 0.0657953,-0.146677 0.146673,-0.146677 0.080878,0 0.146669,0.0657953 0.146669,0.146677 0,0.080874 -0.0657913,0.146673 -0.146669,0.146673zm0 -0.25002c-0.0569843,0 -0.103343,0.0463661 -0.103343,0.103346 0,0.0569843 0.0463583,0.103346 0.103343,0.103346 0.0569803,0 0.103343,-0.0463583 0.103343,-0.103346 0,-0.0569843 -0.0463622,-0.103346 -0.103343,-0.103346z" id="id_102" style="fill: rgb(255, 255, 255);"></path>
 </g>
</svg>