<svg width="6744" height="1045" viewBox="0 0 6744 1045" fill="none" xmlns="http://www.w3.org/2000/svg">
<g filter="url(#filter0_ii_281_2)">
<rect x="134" y="161" width="723" height="723" rx="40" fill="#2D5C8B"/>
</g>
<g filter="url(#filter1_ii_281_2)">
<rect x="220.623" y="245.907" width="549.754" height="553.185" rx="40" fill="#5ED2FF"/>
</g>
<g filter="url(#filter2_ii_281_2)">
<rect x="306.388" y="333.388" width="378.224" height="378.224" rx="40" fill="#2D5C8B"/>
</g>
<g filter="url(#filter3_ii_281_2)">
<rect x="398" y="423" width="195" height="198" rx="40" fill="white"/>
</g>
<path d="M1062.2 837V205.1H1286.48C1354.71 205.1 1411.67 219.34 1457.36 247.82C1503.05 275.707 1537.16 313.68 1559.71 361.74C1582.85 409.207 1594.42 462.013 1594.42 520.16C1594.42 584.24 1581.66 640.013 1556.15 687.48C1531.23 734.947 1495.63 771.733 1449.35 797.84C1403.07 823.947 1348.78 837 1286.48 837H1062.2ZM1492.96 520.16C1492.96 475.66 1484.65 436.5 1468.04 402.68C1452.02 368.267 1428.58 341.567 1397.73 322.58C1367.47 303 1330.39 293.21 1286.48 293.21H1161.88V748.89H1286.48C1330.98 748.89 1368.36 738.803 1398.62 718.63C1429.47 698.457 1452.91 671.163 1468.93 636.75C1484.95 602.337 1492.96 563.473 1492.96 520.16ZM1672.58 837V205.1H1772.26V837H1672.58ZM2146.47 841.45C2104.94 841.45 2066.07 832.847 2029.88 815.64C1993.69 798.433 1961.94 774.7 1934.65 744.44C1907.95 714.18 1886.89 679.767 1871.46 641.2C1856.63 602.633 1849.21 561.693 1849.21 518.38C1849.21 475.067 1856.63 434.423 1871.46 396.45C1886.89 358.477 1907.95 324.657 1934.65 294.99C1961.94 265.323 1993.69 242.183 2029.88 225.57C2066.67 208.957 2106.72 200.65 2150.03 200.65C2209.96 200.65 2260.39 213.407 2301.33 238.92C2342.86 263.84 2374.01 297.067 2394.78 338.6L2318.24 393.78C2301.63 359.367 2277.89 333.557 2247.04 316.35C2216.78 299.143 2183.55 290.54 2147.36 290.54C2117.69 290.54 2090.7 296.77 2066.37 309.23C2042.04 321.69 2020.98 338.897 2003.18 360.85C1985.97 382.21 1972.92 406.833 1964.02 434.72C1955.12 462.013 1950.67 490.79 1950.67 521.05C1950.67 553.09 1955.71 583.053 1965.8 610.94C1975.89 638.827 1990.13 663.45 2008.52 684.81C2026.91 705.577 2048.57 721.893 2073.49 733.76C2098.41 745.627 2125.41 751.56 2154.48 751.56C2188.89 751.56 2221.53 742.957 2252.38 725.75C2283.83 707.95 2313.2 681.547 2340.49 646.54V748C2285.31 810.3 2220.64 841.45 2146.47 841.45ZM2330.7 591.36H2198.09V517.49H2414.36V837H2330.7V591.36ZM2501.36 837V205.1H2601.04V837H2501.36ZM3090.95 353.73C3085.01 347.203 3076.41 340.38 3065.14 333.26C3053.86 325.547 3040.51 318.427 3025.09 311.9C3009.66 305.373 2993.05 300.033 2975.25 295.88C2957.45 291.727 2939.05 289.65 2920.07 289.65C2878.53 289.65 2847.68 297.363 2827.51 312.79C2807.33 328.217 2797.25 349.577 2797.25 376.87C2797.25 397.043 2802.88 413.063 2814.16 424.93C2825.43 436.203 2842.64 445.697 2865.78 453.41C2888.92 461.123 2917.99 469.43 2953 478.33C2995.72 488.417 3032.8 500.58 3064.25 514.82C3095.69 528.467 3119.72 546.86 3136.34 570C3152.95 593.14 3161.26 623.697 3161.26 661.67C3161.26 693.71 3155.32 721.3 3143.46 744.44C3131.59 767.58 3114.98 786.567 3093.62 801.4C3072.26 815.64 3047.63 826.32 3019.75 833.44C2991.86 839.967 2961.9 843.23 2929.86 843.23C2898.41 843.23 2866.96 839.967 2835.52 833.44C2804.66 826.913 2775 817.42 2746.52 804.96C2718.63 791.907 2692.82 776.183 2669.09 757.79L2714.48 672.35C2722.19 680.063 2733.17 688.667 2747.41 698.16C2762.24 707.06 2779.15 715.663 2798.14 723.97C2817.72 732.277 2838.78 739.397 2861.33 745.33C2884.47 750.67 2907.9 753.34 2931.64 753.34C2971.39 753.34 3001.65 746.517 3022.42 732.87C3043.78 718.63 3054.46 698.457 3054.46 672.35C3054.46 650.99 3047.63 634.08 3033.99 621.62C3020.34 608.567 3000.46 597.59 2974.36 588.69C2948.25 579.79 2917.1 570.89 2880.91 561.99C2839.37 550.717 2804.66 538.553 2776.78 525.5C2748.89 511.853 2727.83 494.647 2713.59 473.88C2699.94 452.52 2693.12 425.523 2693.12 392.89C2693.12 351.357 2703.2 316.35 2723.38 287.87C2743.55 258.797 2770.84 237.14 2805.26 222.9C2840.26 208.067 2879.42 200.65 2922.74 200.65C2951.22 200.65 2978.21 203.913 3003.73 210.44C3029.24 216.373 3052.97 224.68 3074.93 235.36C3097.47 246.04 3117.94 258.203 3136.34 271.85L3090.95 353.73ZM3497.08 841.45C3451.39 841.45 3410.16 832.55 3373.37 814.75C3336.58 796.357 3304.84 772.03 3278.14 741.77C3251.44 711.51 3230.67 677.393 3215.84 639.42C3201.6 600.853 3194.48 561.397 3194.48 521.05C3194.48 478.923 3202.19 438.873 3217.62 400.9C3233.05 362.333 3254.41 328.217 3281.7 298.55C3308.99 268.29 3341.03 244.557 3377.82 227.35C3415.2 209.55 3455.55 200.65 3498.86 200.65C3543.95 200.65 3584.89 209.847 3621.68 228.24C3659.06 246.633 3690.8 271.257 3716.91 302.11C3743.61 332.963 3764.08 367.377 3778.32 405.35C3793.15 443.323 3800.57 482.187 3800.57 521.94C3800.57 564.067 3792.86 604.413 3777.43 642.98C3762.6 680.953 3741.53 715.07 3714.24 745.33C3686.95 774.997 3654.61 798.433 3617.23 815.64C3580.44 832.847 3540.39 841.45 3497.08 841.45ZM3497.97 751.56C3530.01 751.56 3558.49 745.033 3583.41 731.98C3608.33 718.927 3629.1 701.423 3645.71 679.47C3662.92 656.923 3675.97 632.003 3684.87 604.71C3693.77 576.823 3698.22 548.937 3698.22 521.05C3698.22 491.383 3693.47 462.607 3683.98 434.72C3675.08 406.833 3661.73 382.21 3643.93 360.85C3626.13 339.49 3604.77 322.58 3579.85 310.12C3555.52 297.067 3528.23 290.54 3497.97 290.54C3465.93 290.54 3437.45 297.067 3412.53 310.12C3387.61 323.173 3366.55 340.973 3349.34 363.52C3332.13 385.473 3318.78 410.097 3309.29 437.39C3300.39 464.683 3295.94 492.57 3295.94 521.05C3295.94 550.717 3300.69 579.493 3310.18 607.38C3319.67 635.267 3333.02 659.89 3350.23 681.25C3368.03 702.61 3389.39 719.817 3414.31 732.87C3439.23 745.33 3467.12 751.56 3497.97 751.56ZM3510.43 617.17H3606.55L3798.79 837H3702.67L3510.43 617.17ZM4138.77 841.45C4088.34 841.45 4045.62 832.847 4010.61 815.64C3976.2 798.433 3948.31 774.997 3926.95 745.33C3906.18 715.663 3890.76 681.843 3880.67 643.87C3871.18 605.897 3866.43 566.44 3866.43 525.5V205.1H3966.11V525.5C3966.11 554.573 3969.08 582.757 3975.01 610.05C3980.94 636.75 3990.44 660.78 4003.49 682.14C4016.54 703.5 4034.05 720.41 4056 732.87C4078.55 745.33 4106.14 751.56 4138.77 751.56C4172 751.56 4199.59 745.33 4221.54 732.87C4244.09 719.817 4261.59 702.61 4274.05 681.25C4287.1 659.297 4296.6 634.97 4302.53 608.27C4308.46 581.57 4311.43 553.98 4311.43 525.5V205.1H4412V525.5C4412 568.813 4406.66 609.753 4395.98 648.32C4385.89 686.293 4369.87 719.817 4347.92 748.89C4326.56 777.37 4298.67 799.917 4264.26 816.53C4229.85 833.143 4188.02 841.45 4138.77 841.45ZM4674.24 205.1H4768.58L5014.22 837H4909.2L4842.45 665.23H4598.59L4532.73 837H4426.82L4674.24 205.1ZM4822.87 591.36L4721.41 314.57L4616.39 591.36H4822.87ZM5065.67 837V205.1H5340.68C5369.16 205.1 5395.27 211.033 5419 222.9C5442.73 234.767 5463.2 250.49 5480.41 270.07C5498.21 289.65 5511.86 311.603 5521.35 335.93C5531.44 360.257 5536.48 385.177 5536.48 410.69C5536.48 438.577 5531.44 465.277 5521.35 490.79C5511.26 516.303 5496.73 538.257 5477.74 556.65C5459.35 575.043 5437.69 588.393 5412.77 596.7L5561.4 837H5449.26L5312.2 617.17H5165.35V837H5065.67ZM5165.35 529.06H5339.79C5358.18 529.06 5374.5 523.72 5388.74 513.04C5402.98 502.36 5414.25 488.12 5422.56 470.32C5430.87 451.927 5435.02 432.05 5435.02 410.69C5435.02 388.737 5430.27 369.157 5420.78 351.95C5411.29 334.15 5398.83 319.91 5383.4 309.23C5368.57 298.55 5352.25 293.21 5334.45 293.21H5165.35V529.06ZM6060.81 748.89V837H5627.38V205.1H6052.8V293.21H5727.06V472.99H6009.19V555.76H5727.06V748.89H6060.81ZM6510.74 353.73C6504.8 347.203 6496.2 340.38 6484.93 333.26C6473.65 325.547 6460.3 318.427 6444.88 311.9C6429.45 305.373 6412.84 300.033 6395.04 295.88C6377.24 291.727 6358.84 289.65 6339.86 289.65C6298.32 289.65 6267.47 297.363 6247.3 312.79C6227.12 328.217 6217.04 349.577 6217.04 376.87C6217.04 397.043 6222.67 413.063 6233.95 424.93C6245.22 436.203 6262.43 445.697 6285.57 453.41C6308.71 461.123 6337.78 469.43 6372.79 478.33C6415.51 488.417 6452.59 500.58 6484.04 514.82C6515.48 528.467 6539.51 546.86 6556.13 570C6572.74 593.14 6581.05 623.697 6581.05 661.67C6581.05 693.71 6575.11 721.3 6563.25 744.44C6551.38 767.58 6534.77 786.567 6513.41 801.4C6492.05 815.64 6467.42 826.32 6439.54 833.44C6411.65 839.967 6381.69 843.23 6349.65 843.23C6318.2 843.23 6286.75 839.967 6255.31 833.44C6224.45 826.913 6194.79 817.42 6166.31 804.96C6138.42 791.907 6112.61 776.183 6088.88 757.79L6134.27 672.35C6141.98 680.063 6152.96 688.667 6167.2 698.16C6182.03 707.06 6198.94 715.663 6217.93 723.97C6237.51 732.277 6258.57 739.397 6281.12 745.33C6304.26 750.67 6327.69 753.34 6351.43 753.34C6391.18 753.34 6421.44 746.517 6442.21 732.87C6463.57 718.63 6474.25 698.457 6474.25 672.35C6474.25 650.99 6467.42 634.08 6453.78 621.62C6440.13 608.567 6420.25 597.59 6394.15 588.69C6368.04 579.79 6336.89 570.89 6300.7 561.99C6259.16 550.717 6224.45 538.553 6196.57 525.5C6168.68 511.853 6147.62 494.647 6133.38 473.88C6119.73 452.52 6112.91 425.523 6112.91 392.89C6112.91 351.357 6122.99 316.35 6143.17 287.87C6163.34 258.797 6190.63 237.14 6225.05 222.9C6260.05 208.067 6299.21 200.65 6342.53 200.65C6371.01 200.65 6398 203.913 6423.52 210.44C6449.03 216.373 6472.76 224.68 6494.72 235.36C6517.26 246.04 6537.73 258.203 6556.13 271.85L6510.74 353.73Z" fill="#2D5C8B"/>
<defs>
<filter id="filter0_ii_281_2" x="132" y="159" width="727" height="727" filterUnits="userSpaceOnUse" color-interpolation-filters="sRGB">
<feFlood flood-opacity="0" result="BackgroundImageFix"/>
<feBlend mode="normal" in="SourceGraphic" in2="BackgroundImageFix" result="shape"/>
<feColorMatrix in="SourceAlpha" type="matrix" values="0 0 0 0 0 0 0 0 0 0 0 0 0 0 0 0 0 0 127 0" result="hardAlpha"/>
<feOffset dx="2" dy="-2"/>
<feGaussianBlur stdDeviation="2"/>
<feComposite in2="hardAlpha" operator="arithmetic" k2="-1" k3="1"/>
<feColorMatrix type="matrix" values="0 0 0 0 0 0 0 0 0 0 0 0 0 0 0 0 0 0 0.25 0"/>
<feBlend mode="normal" in2="shape" result="effect1_innerShadow_281_2"/>
<feColorMatrix in="SourceAlpha" type="matrix" values="0 0 0 0 0 0 0 0 0 0 0 0 0 0 0 0 0 0 127 0" result="hardAlpha"/>
<feOffset dx="-2" dy="2"/>
<feGaussianBlur stdDeviation="2"/>
<feComposite in2="hardAlpha" operator="arithmetic" k2="-1" k3="1"/>
<feColorMatrix type="matrix" values="0 0 0 0 0.2 0 0 0 0 0.4 0 0 0 0 0.6 0 0 0 1 0"/>
<feBlend mode="normal" in2="effect1_innerShadow_281_2" result="effect2_innerShadow_281_2"/>
</filter>
<filter id="filter1_ii_281_2" x="218.623" y="243.907" width="553.754" height="557.185" filterUnits="userSpaceOnUse" color-interpolation-filters="sRGB">
<feFlood flood-opacity="0" result="BackgroundImageFix"/>
<feBlend mode="normal" in="SourceGraphic" in2="BackgroundImageFix" result="shape"/>
<feColorMatrix in="SourceAlpha" type="matrix" values="0 0 0 0 0 0 0 0 0 0 0 0 0 0 0 0 0 0 127 0" result="hardAlpha"/>
<feOffset dx="2" dy="-2"/>
<feGaussianBlur stdDeviation="2"/>
<feComposite in2="hardAlpha" operator="arithmetic" k2="-1" k3="1"/>
<feColorMatrix type="matrix" values="0 0 0 0 0 0 0 0 0 0 0 0 0 0 0 0 0 0 0.25 0"/>
<feBlend mode="normal" in2="shape" result="effect1_innerShadow_281_2"/>
<feColorMatrix in="SourceAlpha" type="matrix" values="0 0 0 0 0 0 0 0 0 0 0 0 0 0 0 0 0 0 127 0" result="hardAlpha"/>
<feOffset dx="-2" dy="2"/>
<feGaussianBlur stdDeviation="2"/>
<feComposite in2="hardAlpha" operator="arithmetic" k2="-1" k3="1"/>
<feColorMatrix type="matrix" values="0 0 0 0 0.368627 0 0 0 0 0.823529 0 0 0 0 1 0 0 0 1 0"/>
<feBlend mode="normal" in2="effect1_innerShadow_281_2" result="effect2_innerShadow_281_2"/>
</filter>
<filter id="filter2_ii_281_2" x="304.388" y="331.388" width="382.224" height="382.224" filterUnits="userSpaceOnUse" color-interpolation-filters="sRGB">
<feFlood flood-opacity="0" result="BackgroundImageFix"/>
<feBlend mode="normal" in="SourceGraphic" in2="BackgroundImageFix" result="shape"/>
<feColorMatrix in="SourceAlpha" type="matrix" values="0 0 0 0 0 0 0 0 0 0 0 0 0 0 0 0 0 0 127 0" result="hardAlpha"/>
<feOffset dx="2" dy="-2"/>
<feGaussianBlur stdDeviation="2"/>
<feComposite in2="hardAlpha" operator="arithmetic" k2="-1" k3="1"/>
<feColorMatrix type="matrix" values="0 0 0 0 0 0 0 0 0 0 0 0 0 0 0 0 0 0 0.25 0"/>
<feBlend mode="normal" in2="shape" result="effect1_innerShadow_281_2"/>
<feColorMatrix in="SourceAlpha" type="matrix" values="0 0 0 0 0 0 0 0 0 0 0 0 0 0 0 0 0 0 127 0" result="hardAlpha"/>
<feOffset dx="-2" dy="2"/>
<feGaussianBlur stdDeviation="2"/>
<feComposite in2="hardAlpha" operator="arithmetic" k2="-1" k3="1"/>
<feColorMatrix type="matrix" values="0 0 0 0 0.2 0 0 0 0 0.4 0 0 0 0 0.6 0 0 0 1 0"/>
<feBlend mode="normal" in2="effect1_innerShadow_281_2" result="effect2_innerShadow_281_2"/>
</filter>
<filter id="filter3_ii_281_2" x="396" y="421" width="199" height="202" filterUnits="userSpaceOnUse" color-interpolation-filters="sRGB">
<feFlood flood-opacity="0" result="BackgroundImageFix"/>
<feBlend mode="normal" in="SourceGraphic" in2="BackgroundImageFix" result="shape"/>
<feColorMatrix in="SourceAlpha" type="matrix" values="0 0 0 0 0 0 0 0 0 0 0 0 0 0 0 0 0 0 127 0" result="hardAlpha"/>
<feOffset dx="2" dy="-2"/>
<feGaussianBlur stdDeviation="2"/>
<feComposite in2="hardAlpha" operator="arithmetic" k2="-1" k3="1"/>
<feColorMatrix type="matrix" values="0 0 0 0 0 0 0 0 0 0 0 0 0 0 0 0 0 0 0.25 0"/>
<feBlend mode="normal" in2="shape" result="effect1_innerShadow_281_2"/>
<feColorMatrix in="SourceAlpha" type="matrix" values="0 0 0 0 0 0 0 0 0 0 0 0 0 0 0 0 0 0 127 0" result="hardAlpha"/>
<feOffset dx="-2" dy="2"/>
<feGaussianBlur stdDeviation="2"/>
<feComposite in2="hardAlpha" operator="arithmetic" k2="-1" k3="1"/>
<feColorMatrix type="matrix" values="0 0 0 0 1 0 0 0 0 1 0 0 0 0 1 0 0 0 1 0"/>
<feBlend mode="normal" in2="effect1_innerShadow_281_2" result="effect2_innerShadow_281_2"/>
</filter>
</defs>
</svg>
