<svg id="Layer_1" data-name="Layer 1" xmlns="http://www.w3.org/2000/svg" viewBox="0 0 100 100"><rect x="3" y="59.12" width="14.52" height="36.4" id="id_101" style="fill: rgb(255, 255, 255);"></rect><path d="M58.78,60.88A20.32,20.32,0,1,0,38.46,40.56,20.34,20.34,0,0,0,58.78,60.88Zm-.31-18.63v0c-4.36-.43-7.77-3.78-7.77-7.84,0-3.9,3.16-7.14,7.28-7.76V23.28h3.1v3.36c4,.7,7.06,3.9,7.06,7.73H65c0-2.63-2.52-4.78-5.62-4.78s-5.61,2.15-5.61,4.78,2.51,4.78,5.61,4.78v.05c4.55.43,8.1,3.91,8.1,8.13a8.35,8.35,0,0,1-6.44,7.83v2.68H58V55.48c-4.76-.23-8.56-3.79-8.56-8.15h3.1c0,2.8,2.67,5.08,5.95,5.08s6-2.28,6-5.08S61.75,42.25,58.47,42.25Z" id="id_102" style="fill: rgb(255, 255, 255);"></path><path d="M96.27,67a3.43,3.43,0,0,0-4.4-.87l-19.52,11-.13-.22a6.88,6.88,0,0,1-6,3.46h-24v-3.1h24a3.78,3.78,0,0,0,0-7.56H46.92a18,18,0,0,1-8.23-2,13.27,13.27,0,0,0-6.11-1.5h-12V87.37l33.32,8a7.12,7.12,0,0,0,5.4-.88L95.38,72a3.44,3.44,0,0,0,.89-5Z" id="id_103" style="fill: rgb(255, 255, 255);"></path><rect x="57.98" y="4.47" width="3.1" height="9.7" id="id_104" style="fill: rgb(255, 255, 255);"></rect><rect x="35.59" y="12.81" width="3.1" height="9.7" transform="translate(-1.67 31.25) rotate(-44.73)" id="id_105" style="fill: rgb(255, 255, 255);"></rect><rect x="25.55" y="34.42" width="3.1" height="9.7" transform="translate(-12.49 65.9) rotate(-89.32)" id="id_106" style="fill: rgb(255, 255, 255);"></rect><rect x="75.6" y="16.11" width="9.7" height="3.1" transform="translate(11.28 62.38) rotate(-45.26)" id="id_107" style="fill: rgb(255, 255, 255);"></rect><rect x="85.64" y="37.72" width="9.69" height="3.1" transform="translate(-0.45 1.06) rotate(-0.67)" id="id_108" style="fill: rgb(255, 255, 255);"></rect></svg>