<svg xmlns="http://www.w3.org/2000/svg" xml:space="preserve" width="0.306709in" height="0.243669in" version="1.1" style="shape-rendering:geometricPrecision; text-rendering:geometricPrecision; image-rendering:optimizeQuality; fill-rule:evenodd; clip-rule:evenodd" viewBox="0 0 307 244" xmlns:xlink="http://www.w3.org/1999/xlink">
 <defs>
  <style type="text/css">
   
    .fil0 {fill:black}
   
  </style>
 </defs>
 <g id="Layer_x0020_1">
  <metadata id="CorelCorpID_0Corel-Layer"></metadata>
  <path class="fil0" d="M54 23c-19,0 -34,15 -34,34 0,18 15,33 34,33 18,0 33,-15 33,-33 0,-19 -15,-34 -33,-34zm99 -23c23,0 42,18 42,41 0,23 -19,42 -42,42 -22,0 -41,-19 -41,-42 0,-23 19,-41 41,-41zm67 213l0 -74c0,-57 -133,-57 -133,0l0 74 66 31 67 -31zm-62 -100l7 65 -12 12 -11 -12 6 -65c-5,-1 -5,-11 2,-11l7 0c7,0 7,10 1,11zm95 -90c18,0 33,15 33,34 0,18 -15,33 -33,33 -18,0 -33,-15 -33,-33 0,-19 15,-34 33,-34zm54 151l0 -39c0,-33 -57,-42 -88,-27 7,8 12,18 12,31l0 69 76 -34zm-50 -59l5 53 -9 9 -10 -9 6 -53c-5,-1 -4,-9 1,-9l6 0c6,0 6,8 1,9zm-257 59l0 -39c0,-33 57,-42 88,-27 -8,8 -12,18 -12,31l0 69 -76 -34zm50 -59l-6 53 10 9 9 -9 -5 -53c5,-1 4,-9 -1,-9l-6 0c-6,0 -6,8 -1,9z" id="id_101" style="fill: rgb(255, 255, 255);"></path>
 </g>
</svg>