<svg width="18" height="18" viewBox="0 0 18 18" fill="none" xmlns="http://www.w3.org/2000/svg">
<path d="M9 18C7.77 18 6.6075 17.7636 5.5125 17.2908C4.4175 16.8186 3.4614 16.1736 2.6442 15.3558C1.8264 14.5386 1.1814 13.5825 0.7092 12.4875C0.2364 11.3925 0 10.23 0 9C0 7.755 0.2364 6.5889 0.7092 5.5017C1.1814 4.4139 1.8264 3.4614 2.6442 2.6442C3.4614 1.8264 4.4175 1.1811 5.5125 0.7083C6.6075 0.2361 7.77 0 9 0C9.285 0 9.5625 0.015 9.8325 0.045C10.1025 0.075 10.3725 0.1125 10.6425 0.1575V5.175C10.4625 4.56 10.2336 3.9786 9.9558 3.4308C9.6786 2.8836 9.36 2.355 9 1.845C8.61 2.385 8.2725 2.9475 7.9875 3.5325C7.7025 4.1175 7.47 4.74 7.29 5.4H10.6425V7.2H6.885C6.84 7.5 6.8064 7.7964 6.7842 8.0892C6.7614 8.3814 6.75 8.685 6.75 9C6.75 9.315 6.7614 9.6186 6.7842 9.9108C6.8064 10.2036 6.84 10.5 6.885 10.8H11.115C11.16 10.5 11.1939 10.2036 11.2167 9.9108C11.2389 9.6186 11.25 9.315 11.25 9C11.25 8.685 11.2389 8.3814 11.2167 8.0892C11.1939 7.7964 11.16 7.5 11.115 7.2H12.915C12.96 7.5 12.9936 7.7964 13.0158 8.0892C13.0386 8.3814 13.05 8.685 13.05 9C13.05 9.315 13.0386 9.6186 13.0158 9.9108C12.9936 10.2036 12.96 10.5 12.915 10.8H15.975C16.05 10.5 16.1064 10.2036 16.1442 9.9108C16.1814 9.6186 16.2 9.315 16.2 9C16.2 8.685 16.1814 8.3814 16.1442 8.0892C16.1064 7.7964 16.05 7.5 15.975 7.2H17.82C17.88 7.5 17.925 7.8 17.955 8.1C17.985 8.4 18 8.7 18 9C18 10.23 17.7636 11.3925 17.2908 12.4875C16.8186 13.5825 16.1736 14.5386 15.3558 15.3558C14.5386 16.1736 13.5861 16.8186 12.4983 17.2908C11.4111 17.7636 10.245 18 9 18ZM2.025 10.8H5.085C5.04 10.5 5.0061 10.2036 4.9833 9.9108C4.9611 9.6186 4.95 9.315 4.95 9C4.95 8.685 4.9611 8.3814 4.9833 8.0892C5.0061 7.7964 5.04 7.5 5.085 7.2H2.025C1.95 7.5 1.8936 7.7964 1.8558 8.0892C1.8186 8.3814 1.8 8.685 1.8 9C1.8 9.315 1.8186 9.6186 1.8558 9.9108C1.8936 10.2036 1.95 10.5 2.025 10.8ZM6.66 15.795C6.39 15.3 6.1539 14.7861 5.9517 14.2533C5.7489 13.7211 5.58 13.17 5.445 12.6H2.79C3.225 13.35 3.7686 14.0025 4.4208 14.5575C5.0736 15.1125 5.82 15.525 6.66 15.795ZM2.79 5.4H5.445C5.58 4.83 5.7489 4.2786 5.9517 3.7458C6.1539 3.2136 6.39 2.7 6.66 2.205C5.82 2.475 5.0736 2.8875 4.4208 3.4425C3.7686 3.9975 3.225 4.65 2.79 5.4ZM9 16.155C9.39 15.615 9.7275 15.0525 10.0125 14.4675C10.2975 13.8825 10.53 13.26 10.71 12.6H7.29C7.47 13.26 7.7025 13.8825 7.9875 14.4675C8.2725 15.0525 8.61 15.615 9 16.155ZM11.34 15.795C12.18 15.525 12.9261 15.1125 13.5783 14.5575C14.2311 14.0025 14.775 13.35 15.21 12.6H12.555C12.42 13.17 12.2514 13.7211 12.0492 14.2533C11.8464 14.7861 11.61 15.3 11.34 15.795ZM12.6 5.4V0H18V5.4H12.6ZM15.3 2.7H17.1V0.9H15.3V2.7Z" fill="#C1C1C1"/>
</svg>
