<svg xmlns="http://www.w3.org/2000/svg" xml:space="preserve" width="512px" height="512px" version="1.1" style="shape-rendering:geometricPrecision; text-rendering:geometricPrecision; image-rendering:optimizeQuality; fill-rule:evenodd; clip-rule:evenodd" viewBox="0 0 512 512" xmlns:xlink="http://www.w3.org/1999/xlink">
 <defs>
  <style type="text/css">
   
    .fil0 {fill:black}
   
  </style>
 </defs>
 <g id="Layer_x0020_1">
  <metadata id="CorelCorpID_0Corel-Layer"></metadata>
  <path class="fil0" d="M472 439l-433 0c-21,0 -39,-19 -39,-42l0 -35c0,-4 3,-7 7,-7l188 0c4,0 8,3 8,7l0 14c0,3 2,6 5,6l96 0c3,0 6,-3 6,-6l0 -14c0,-4 3,-7 7,-7l188 0c4,0 7,3 7,7l0 35c-1,23 -19,42 -40,42z" id="id_101" style="fill: rgb(255, 255, 255);"></path>
  <path class="fil0" d="M458 341l0 -209c0,-16 -14,-29 -29,-29l-347 0c-16,0 -29,13 -29,29l0 209 -30 0 0 -209c0,-33 26,-59 59,-59l347 0c32,0 59,26 59,59l0 209 -30 0zm-308 -46c-11,0 -22,-2 -30,-8 -7,-5 -13,-13 -17,-22 -5,-9 -6,-19 -6,-29 0,-12 2,-22 6,-31 5,-9 12,-16 20,-20 9,-5 18,-7 28,-7 11,0 21,3 29,9 8,6 14,14 17,25 1,4 -1,8 -5,9 -4,1 -8,-1 -9,-5 -2,-7 -7,-14 -12,-18 -5,-4 -12,-6 -21,-6 -7,0 -14,2 -20,5 -6,4 -11,8 -14,15 -3,7 -6,15 -6,24 0,8 2,16 5,23 3,7 7,12 13,16 5,3 13,5 22,5 9,0 16,-2 21,-7 6,-4 10,-11 13,-20 1,-4 5,-7 9,-5 4,1 6,5 5,9 -3,12 -9,21 -17,28 -9,7 -19,10 -31,10zm258 -2c-4,0 -8,-3 -8,-7l0 -65 -24 55c-1,2 -4,4 -7,4 -3,0 -5,-2 -6,-4l-27 -57 0 67c0,4 -4,7 -8,7 -4,0 -7,-3 -7,-7l0 -99c0,-3 2,-6 5,-7 4,-1 7,1 9,4l34 72 32 -72c1,-3 5,-5 8,-4 3,1 6,4 6,7l0 99c0,4 -3,7 -7,7zm-146 -45l-29 0 0 38c0,4 -3,7 -7,7 -4,0 -8,-3 -8,-7l0 -44 0 -1 0 -52c0,-1 0,-1 0,-2 0,-4 3,-8 7,-8l31 0c10,0 17,1 23,3 6,2 11,6 15,13 3,5 5,12 5,18 0,9 -3,16 -9,23 -2,3 -6,5 -10,7 4,3 7,7 9,11l17 27c3,3 2,8 -2,10 -1,2 -3,2 -4,2 -3,0 -5,-1 -6,-3l-18 -27c-3,-5 -6,-8 -9,-12 -1,-1 -3,-2 -5,-3zm-29 -54l0 39 31 0c1,0 1,0 1,0 7,-1 11,-3 14,-6 4,-4 5,-8 5,-13 0,-5 -1,-8 -3,-12 -2,-3 -4,-5 -7,-6 0,0 0,0 0,0 -2,-1 -7,-2 -18,-2l-23 0zm-38 147l-127 0 0 -209c0,-8 7,-14 14,-14l347 0c7,0 14,6 14,14l0 209 -126 0c0,0 0,0 0,0 0,0 0,0 -1,0l-121 0z" id="id_102" style="fill: rgb(255, 255, 255);"></path>
  <path class="fil0" d="M316 370l-121 0c-4,0 -7,-4 -7,-8 0,-4 3,-7 7,-7l121 0c5,0 8,3 8,7 0,4 -3,8 -8,8z" id="id_103" style="fill: rgb(255, 255, 255);"></path>
 </g>
</svg>