<svg width="512" height="512" viewBox="0 0 512 512" fill="none" xmlns="http://www.w3.org/2000/svg">
<path d="M496 464H488V448C488 445.878 487.157 443.843 485.657 442.343C484.157 440.843 482.122 440 480 440H472V360H480C482.122 360 484.157 359.157 485.657 357.657C487.157 356.157 488 354.122 488 352V336C490.122 336 492.157 335.157 493.657 333.657C495.157 332.157 496 330.122 496 328V312C496.001 310.482 495.569 308.995 494.757 307.713C493.944 306.431 492.783 305.407 491.41 304.76L355.41 240.76C354.342 240.261 353.178 240.002 352 240.002C350.822 240.002 349.658 240.261 348.59 240.76L212.59 304.76C211.217 305.407 210.056 306.431 209.243 307.713C208.431 308.995 207.999 310.482 208 312V328C208 330.122 208.843 332.157 210.343 333.657C211.843 335.157 213.878 336 216 336V352C216 354.122 216.843 356.157 218.343 357.657C219.843 359.157 221.878 360 224 360H232V440H224C221.878 440 219.843 440.843 218.343 442.343C216.843 443.843 216 445.878 216 448V464H208C205.878 464 203.843 464.843 202.343 466.343C200.843 467.843 200 469.878 200 472V496C200 498.122 200.843 500.157 202.343 501.657C203.843 503.157 205.878 504 208 504H496C498.122 504 500.157 503.157 501.657 501.657C503.157 500.157 504 498.122 504 496V472C504 469.878 503.157 467.843 501.657 466.343C500.157 464.843 498.122 464 496 464ZM472 344H424V336H472V344ZM384 440H376V360H384C386.122 360 388.157 359.157 389.657 357.657C391.157 356.157 392 354.122 392 352V336H408V352C408 354.122 408.843 356.157 410.343 357.657C411.843 359.157 413.878 360 416 360H424V440H416C413.878 440 411.843 440.843 410.343 442.343C408.843 443.843 408 445.878 408 448V464H392V448C392 445.878 391.157 443.843 389.657 442.343C388.157 440.843 386.122 440 384 440ZM288 440H280V360H288C290.122 360 292.157 359.157 293.657 357.657C295.157 356.157 296 354.122 296 352V336H312V352C312 354.122 312.843 356.157 314.343 357.657C315.843 359.157 317.878 360 320 360H328V440H320C317.878 440 315.843 440.843 314.343 442.343C312.843 443.843 312 445.878 312 448V464H296V448C296 445.878 295.157 443.843 293.657 442.343C292.157 440.843 290.122 440 288 440ZM232 344V336H280V344H232ZM264 360V440H248V360H264ZM328 456H376V464H328V456ZM344 440V360H360V440H344ZM328 344V336H376V344H328ZM424 456H472V464H424V456ZM440 440V360H456V440H440ZM224 320V317.08L352 256.84L480 317.08V320H224ZM232 456H280V464H232V456ZM488 488H216V480H488V488Z" fill="#ffffff" id="id_101"></path>
<path d="M180 8H28C22.6973 8.00529 17.6133 10.1141 13.8637 13.8637C10.1141 17.6133 8.00529 22.6973 8 28V292C8.00529 297.303 10.1141 302.387 13.8637 306.136C17.6133 309.886 22.6973 311.995 28 312H180C185.303 311.995 190.387 309.886 194.136 306.136C197.886 302.387 199.995 297.303 200 292V28C199.995 22.6973 197.886 17.6133 194.136 13.8637C190.387 10.1141 185.303 8.00529 180 8V8ZM132.9 24L130.23 32H77.77L75.1 24H132.9ZM184 292C184 293.061 183.579 294.078 182.828 294.828C182.078 295.579 181.061 296 180 296H28C26.9391 296 25.9217 295.579 25.1716 294.828C24.4214 294.078 24 293.061 24 292V28C24 26.9391 24.4214 25.9217 25.1716 25.1716C25.9217 24.4214 26.9391 24 28 24H58.23L64.41 42.53C64.941 44.1229 65.9598 45.5084 67.322 46.4902C68.6843 47.4719 70.3209 48.0001 72 48H136C137.679 48.0001 139.316 47.4719 140.678 46.4902C142.04 45.5084 143.059 44.1229 143.59 42.53L149.77 24H180C181.061 24 182.078 24.4214 182.828 25.1716C183.579 25.9217 184 26.9391 184 28V292Z" fill="#ffffff" id="id_102"></path>
<path d="M197.121 401.854L149.121 361.854C147.953 360.881 146.532 360.26 145.024 360.066C143.516 359.871 141.983 360.111 140.607 360.756C139.23 361.401 138.065 362.424 137.249 363.708C136.433 364.991 136 366.48 136 368V384H120V336C120 333.878 119.157 331.843 117.657 330.343C116.157 328.843 114.122 328 112 328H80C77.8783 328 75.8434 328.843 74.3431 330.343C72.8429 331.843 72 333.878 72 336V424C72 426.122 72.8429 428.157 74.3431 429.657C75.8434 431.157 77.8783 432 80 432H136V448C136 449.52 136.433 451.009 137.249 452.292C138.065 453.576 139.23 454.599 140.607 455.244C141.983 455.889 143.516 456.129 145.024 455.934C146.532 455.74 147.953 455.119 149.121 454.146L197.121 414.146C198.022 413.395 198.747 412.455 199.244 411.393C199.742 410.331 200 409.173 200 408C200 406.827 199.742 405.669 199.244 404.607C198.747 403.545 198.022 402.605 197.121 401.854V401.854ZM152 430.92V424C152 421.878 151.157 419.843 149.657 418.343C148.157 416.843 146.122 416 144 416H88V344H104V392C104 394.122 104.843 396.157 106.343 397.657C107.843 399.157 109.878 400 112 400H144C146.122 400 148.157 399.157 149.657 397.657C151.157 396.157 152 394.122 152 392V385.08L179.5 408L152 430.92Z" fill="#ffffff" id="id_103"></path>
<path d="M224 144H328V160H312C310.48 160 308.991 160.433 307.708 161.249C306.424 162.065 305.401 163.23 304.756 164.607C304.111 165.983 303.871 167.516 304.066 169.024C304.26 170.532 304.881 171.953 305.854 173.121L345.854 221.121C346.605 222.022 347.545 222.747 348.607 223.244C349.669 223.742 350.827 224 352 224C353.173 224 354.331 223.742 355.393 223.244C356.455 222.747 357.395 222.022 358.146 221.121L398.146 173.121C399.119 171.953 399.74 170.532 399.934 169.024C400.129 167.516 399.889 165.983 399.244 164.607C398.599 163.23 397.576 162.065 396.292 161.249C395.009 160.433 393.52 160 392 160H376V104C376 101.878 375.157 99.8434 373.657 98.3431C372.157 96.8429 370.122 96 368 96H224C221.878 96 219.843 96.8429 218.343 98.3431C216.843 99.8434 216 101.878 216 104V136C216 138.122 216.843 140.157 218.343 141.657C219.843 143.157 221.878 144 224 144ZM232 112H360V168C360 170.122 360.843 172.157 362.343 173.657C363.843 175.157 365.878 176 368 176H374.92L352 203.5L329.08 176H336C338.122 176 340.157 175.157 341.657 173.657C343.157 172.157 344 170.122 344 168V136C344 133.878 343.157 131.843 341.657 130.343C340.157 128.843 338.122 128 336 128H232V112Z" fill="#ffffff" id="id_104"></path>
</svg>