<svg xmlns="http://www.w3.org/2000/svg" viewBox="0 0 48 48"><title>meeting-exchange-chat-talk-speech-communication-people</title><g id="_02-meeting" data-name="02-meeting"><path d="M.606,45.919a18.858,18.858,0,0,0,14.788,0A1,1,0,0,0,16,45a6.876,6.876,0,0,0-4.342-6.414l-.475-.19a4,4,0,1,0-6.366,0l-.474.19A6.875,6.875,0,0,0,0,45,1,1,0,0,0,.606,45.919ZM8,34a2,2,0,1,1-2,2A2,2,0,0,1,8,34ZM5.085,40.443,6.193,40H9.807l1.108.443a4.88,4.88,0,0,1,3.042,3.9,16.859,16.859,0,0,1-11.914,0A4.88,4.88,0,0,1,5.085,40.443Z" id="id_101" style="fill: rgb(255, 255, 255);"></path><path d="M.606,13.919A18.784,18.784,0,0,0,8,15.429a18.784,18.784,0,0,0,7.394-1.51A1,1,0,0,0,16,13a6.876,6.876,0,0,0-4.342-6.414l-.475-.19a4,4,0,1,0-6.366,0l-.474.19A6.875,6.875,0,0,0,0,13,1,1,0,0,0,.606,13.919ZM8,2A2,2,0,1,1,6,4,2,2,0,0,1,8,2ZM5.085,8.443,6.193,8H9.807l1.108.443a4.88,4.88,0,0,1,3.042,3.9,16.859,16.859,0,0,1-11.914,0A4.88,4.88,0,0,1,5.085,8.443Z" id="id_102" style="fill: rgb(255, 255, 255);"></path><path d="M43.658,6.586l-.475-.19a4,4,0,1,0-6.366,0l-.474.19A6.875,6.875,0,0,0,32,13a1,1,0,0,0,.606.919A18.784,18.784,0,0,0,40,15.429a18.784,18.784,0,0,0,7.394-1.51A1,1,0,0,0,48,13,6.876,6.876,0,0,0,43.658,6.586ZM40,2a2,2,0,1,1-2,2A2,2,0,0,1,40,2ZM34.043,12.343a4.88,4.88,0,0,1,3.042-3.9L38.193,8h3.614l1.108.443a4.88,4.88,0,0,1,3.042,3.9A16.859,16.859,0,0,1,34.043,12.343Z" id="id_103" style="fill: rgb(255, 255, 255);"></path><path d="M43.658,38.586l-.475-.19a4,4,0,1,0-6.366,0l-.474.19A6.875,6.875,0,0,0,32,45a1,1,0,0,0,.606.919,18.858,18.858,0,0,0,14.788,0A1,1,0,0,0,48,45,6.876,6.876,0,0,0,43.658,38.586ZM40,34a2,2,0,1,1-2,2A2,2,0,0,1,40,34ZM34.043,44.343a4.88,4.88,0,0,1,3.042-3.9L38.193,40h3.614l1.108.443a4.88,4.88,0,0,1,3.042,3.9A16.859,16.859,0,0,1,34.043,44.343Z" id="id_104" style="fill: rgb(255, 255, 255);"></path><path d="M35,24c0-4.962-4.71-9-10.5-9S14,19.038,14,24a8.729,8.729,0,0,0,4.488,7.373L17.462,34.45a1.422,1.422,0,0,0,2.177,1.608l4.3-3.074c.184.01.37.016.558.016C30.29,33,35,28.962,35,24ZM24.5,31c-.261,0-.519-.014-.775-.033a.977.977,0,0,0-.656.183L19.921,33.4l.729-2.187a1,1,0,0,0-.5-1.212A6.907,6.907,0,0,1,16,24c0-3.86,3.813-7,8.5-7S33,20.14,33,24,29.187,31,24.5,31Z" id="id_105" style="fill: rgb(255, 255, 255);"></path><path d="M3.252,16.667a22.1,22.1,0,0,0,0,14.666l1.886-.666a20.1,20.1,0,0,1,0-13.334Z" id="id_106" style="fill: rgb(255, 255, 255);"></path><path d="M18.285,43.172l-.57,1.917a22.136,22.136,0,0,0,12.57,0l-.57-1.917A20.225,20.225,0,0,1,18.285,43.172Z" id="id_107" style="fill: rgb(255, 255, 255);"></path><path d="M44.748,31.333a22.1,22.1,0,0,0,0-14.666l-1.886.666a20.1,20.1,0,0,1,0,13.334Z" id="id_108" style="fill: rgb(255, 255, 255);"></path><path d="M33.523,6.408l.954-1.758a22.036,22.036,0,0,0-20.954,0l.954,1.758A20.369,20.369,0,0,1,33.523,6.408Z" id="id_109" style="fill: rgb(255, 255, 255);"></path></g></svg>