<svg width="21" height="13" viewBox="0 0 21 13" fill="none" xmlns="http://www.w3.org/2000/svg">
<path d="M21 6.49834C21 6.60117 20.9443 6.70069 20.8527 6.74713L17.9359 8.52182C17.8901 8.54835 17.8443 8.56826 17.7886 8.56826C17.7428 8.56826 17.6871 8.55831 17.6413 8.53177C17.5497 8.47538 17.494 8.3825 17.494 8.27303V7.09211H9.67997C10.5082 8.40572 11.0058 10.6382 11.9584 10.6382H12.8324V9.74917C12.8324 9.58331 12.9601 9.45394 13.1238 9.45394H16.0405C16.2042 9.45394 16.3319 9.58331 16.3319 9.74917V12.7048C16.3319 12.8706 16.2042 13 16.0405 13H13.1238C12.9601 13 12.8324 12.8706 12.8324 12.7048V11.8191H11.9584C9.4901 11.8191 9.30351 7.09211 7.87623 7.09211H4.59283C4.32767 8.10717 3.41762 8.8668 2.33406 8.8668C1.04754 8.86349 0 7.80199 0 6.49834C0 5.19469 1.04754 4.1332 2.33406 4.1332C3.41762 4.1332 4.33094 4.88951 4.59283 5.90789C5.8728 5.90789 6.02993 6.22302 7.03492 3.90431C8.34762 0.948712 8.93687 1.18091 10.5998 1.18091C10.8454 0.487624 11.4837 0 12.2497 0C13.2154 0 14.0011 0.792804 14.0011 1.77469C14.0011 2.75657 13.2187 3.54938 12.2497 3.54938C11.4837 3.54938 10.8454 3.05843 10.5998 2.36846H9.62432C8.67171 2.36846 8.17412 4.60424 7.34591 5.91452H17.4973V4.73361C17.4973 4.62414 17.5529 4.53126 17.6446 4.47487C17.7362 4.41847 17.8541 4.42843 17.9359 4.48482L20.8527 6.25951C20.9443 6.29599 21 6.39551 21 6.49834Z" fill="#C1C1C1"/>
</svg>
