<svg width="393" height="393" viewBox="0 0 393 393" fill="none" xmlns="http://www.w3.org/2000/svg">
<g filter="url(#filter0_d_22_349)">
<circle cx="194.5" cy="194.5" r="172.5" fill="white"/>
</g>
<circle cx="195" cy="195" r="143" stroke="#BB54F1" stroke-width="18"/>
<path d="M189.754 126.41C189.754 126.638 188.933 126.684 187.93 126.547C186.698 126.41 186.197 126.456 186.425 126.821C186.607 127.094 186.425 127.186 185.968 127.003C185.512 126.866 185.193 126.912 185.193 127.186C185.193 127.459 185.011 127.55 184.828 127.414C184.281 127.094 182.411 128.508 182.684 129.01C182.867 129.238 182.775 129.421 182.502 129.421C182.228 129.421 182.182 129.74 182.319 130.196C182.502 130.607 182.411 130.835 182.182 130.652C181.909 130.515 181.818 132.249 181.909 135.168C182.046 138.452 181.954 139.912 181.589 139.912C181.316 139.912 181.088 140.277 181.088 140.733C181.088 141.828 180.221 142.649 179.354 142.329C178.853 142.101 178.761 142.193 179.035 142.649C179.309 143.105 179.218 143.196 178.67 142.968C178.214 142.786 177.895 142.877 177.895 143.15C177.895 143.424 177.575 143.561 177.211 143.379C176.846 143.242 176.526 143.333 176.526 143.561C176.526 143.789 176.207 143.88 175.842 143.743C175.477 143.561 175.158 143.698 175.158 144.017C175.158 144.336 174.839 144.473 174.428 144.291C173.972 144.108 173.835 144.2 174.063 144.565C174.291 144.929 174.154 144.975 173.653 144.793C173.197 144.61 172.877 144.701 172.877 144.975C172.877 145.249 172.558 145.386 172.193 145.203C171.828 145.066 171.509 145.158 171.509 145.431C171.509 145.705 171.326 145.75 171.053 145.614C170.825 145.477 170.597 145.568 170.597 145.842C170.597 146.115 170.414 146.252 170.186 146.07C169.958 145.933 169.456 146.115 169.091 146.48C168.726 146.845 168.316 147.028 168.133 146.891C167.997 146.708 167.86 146.845 167.86 147.165C167.86 147.484 167.677 147.575 167.404 147.438C167.175 147.301 166.947 147.393 166.947 147.666C166.947 147.94 166.765 148.031 166.491 147.894C166.263 147.758 166.035 147.849 166.035 148.077C166.035 148.715 164.347 148.715 163.982 148.122C163.846 147.894 163.435 147.803 163.116 147.94C162.705 148.077 162.34 147.803 162.158 147.21C161.975 146.663 161.747 146.343 161.611 146.48C161.474 146.617 160.653 145.842 159.74 144.793C158.874 143.743 157.961 142.922 157.779 143.014C157.551 143.059 157.368 142.786 157.368 142.421C157.368 142.056 157.232 141.782 157.049 141.782C156.182 141.919 155.498 141.691 155.726 141.372C155.863 141.143 155.498 141.007 154.951 141.052C154.404 141.098 153.811 140.915 153.628 140.687C153.446 140.368 153.081 140.414 152.625 140.779C152.26 141.098 151.712 141.235 151.439 141.052C151.211 140.915 150.982 141.007 150.982 141.28C150.982 141.554 150.8 141.691 150.572 141.554C150.344 141.417 150.025 141.6 149.888 141.965C149.751 142.329 149.386 142.603 149.067 142.558C148.747 142.466 148.519 142.786 148.519 143.196C148.565 143.652 148.428 143.926 148.246 143.789C148.018 143.652 147.561 143.88 147.196 144.245C146.786 144.61 146.33 144.929 146.102 144.929C145.509 144.929 140.947 149.673 140.947 150.266C140.947 150.54 140.491 151.179 139.898 151.635C139.305 152.091 138.849 152.593 138.849 152.775C138.895 152.958 138.484 153.414 137.982 153.824C137.481 154.235 137.389 154.417 137.754 154.235C138.347 153.915 138.347 153.961 137.754 154.691C137.07 155.558 136.751 159.07 137.389 159.07C137.572 159.07 137.618 159.343 137.481 159.663C137.207 160.438 139.898 162.4 140.628 161.989C141.039 161.715 141.039 161.807 140.582 162.354C139.807 163.312 140.947 164.361 141.814 163.494C142.27 163.084 142.316 163.129 142.088 163.722C141.86 164.27 142.225 164.908 143.091 165.729C143.775 166.368 144.323 167.235 144.232 167.6C144.14 168.01 144.277 168.147 144.596 167.965C145.007 167.691 145.007 167.873 144.642 168.512C144.368 169.014 144.323 169.561 144.46 169.743C144.596 169.88 144.505 170.017 144.14 170.017C143.684 170.017 143.684 170.154 144.14 170.701C144.642 171.294 144.596 171.34 143.912 171.112C143.319 170.884 143.182 170.929 143.411 171.294C143.593 171.614 143.502 171.842 143.228 171.842C142.954 171.842 142.863 172.024 143 172.298C143.137 172.526 143.046 172.754 142.726 172.754C142.407 172.754 142.27 172.891 142.453 173.028C142.589 173.21 142.407 173.621 142.042 173.986C141.677 174.351 141.495 174.807 141.632 175.035C141.768 175.217 141.54 175.536 141.175 175.673C140.719 175.856 139.944 175.354 139.077 174.351C138.302 173.484 137.481 172.891 137.253 173.028C137.025 173.165 136.888 173.119 136.933 172.891C137.116 172.435 132.281 167.736 131.688 167.736C131.46 167.736 131.368 167.463 131.505 167.098C131.642 166.733 131.414 166.186 131.004 165.821C130.411 165.319 130.319 165.319 130.684 165.912C130.912 166.322 130.912 166.459 130.639 166.231C130.411 166.003 130.228 165.684 130.228 165.501C130.228 165.319 128.677 163.677 126.807 161.898C123.523 158.705 123.432 158.568 124.298 157.884C124.8 157.519 125.165 157.108 125.119 157.017C124.937 156.515 125.575 154.965 125.986 154.965C126.214 154.965 126.26 154.736 126.123 154.508C125.986 154.235 126.032 154.052 126.26 154.052C126.533 154.052 126.625 153.642 126.488 153.14C126.351 152.638 126.442 152.228 126.625 152.228C126.853 152.228 127.081 151.772 127.126 151.179C127.218 150.631 127.354 149.217 127.537 147.986C127.719 146.435 127.674 145.842 127.263 145.842C126.898 145.842 126.761 145.431 126.898 144.701C127.035 144.063 126.944 143.561 126.67 143.561C126.442 143.561 126.351 143.15 126.488 142.649C126.625 142.193 126.488 141.691 126.214 141.6C125.804 141.463 125.667 140.961 125.484 138.817C125.439 138.635 125.165 138.543 124.8 138.68C124.344 138.863 124.207 138.68 124.298 138.042C124.389 137.494 124.207 137.038 123.796 136.856C123.386 136.719 122.884 136.08 122.656 135.487C122.428 134.894 122.063 134.529 121.789 134.666C121.561 134.803 121.333 134.712 121.333 134.438C121.333 134.165 121.196 134.028 121.014 134.119C120.512 134.438 119.509 133.252 119.874 132.796C120.056 132.614 119.919 132.614 119.6 132.796C119.281 132.979 118.916 132.842 118.779 132.431C118.642 132.021 118.323 131.793 118.14 131.929C117.593 132.294 116.27 131.656 116.589 131.2C116.726 130.972 116.498 130.926 116.133 131.063C115.723 131.2 115.404 131.108 115.404 130.789C115.404 130.515 115.221 130.379 114.993 130.561C114.765 130.698 114.4 130.607 114.263 130.333C114.081 130.059 113.579 129.968 113.077 130.105C112.621 130.287 112.211 130.242 112.211 130.014C112.211 129.512 106.691 129.558 105.916 130.014C105.642 130.242 105.14 130.242 104.912 130.105C104.639 129.968 104.456 130.059 104.456 130.379C104.456 130.652 104.091 130.789 103.544 130.652C103.042 130.515 102.632 130.607 102.632 130.88C102.632 131.108 102.449 131.154 102.175 131.017C101.947 130.88 101.719 130.972 101.719 131.2C101.719 131.473 101.309 131.701 100.807 131.701C100.305 131.701 99.8947 131.929 99.8947 132.203C99.8947 132.431 99.6667 132.522 99.3474 132.34C99.0737 132.158 98.9825 132.203 99.1193 132.477C99.3018 132.75 99.1193 133.115 98.7088 133.252C98.2982 133.389 98.1614 133.754 98.3439 134.073C98.5719 134.529 98.5263 134.529 98.0702 134.119C97.614 133.708 97.1579 133.891 95.9719 135.031C95.1053 135.807 94.4211 136.719 94.4211 137.038C94.4211 137.358 94.193 137.631 93.9649 137.631C93.6912 137.631 93.5544 137.768 93.6 137.95C93.7825 138.543 92.5053 141.28 92.0947 141.28C91.8667 141.28 91.8211 141.6 91.9579 141.965C92.1404 142.329 92.0035 142.649 91.6842 142.649C91.3649 142.649 91.2737 143.014 91.4561 143.561C91.593 144.063 91.593 144.473 91.3649 144.473C91.1825 144.473 91 146.024 91 147.894C91 149.765 91.1825 151.315 91.3649 151.315C91.593 151.315 91.593 151.726 91.4561 152.228C91.2737 152.775 91.3649 153.14 91.6842 153.14C92.0035 153.14 92.1404 153.459 91.9579 153.824C91.8211 154.189 91.9123 154.508 92.186 154.508C92.4596 154.508 92.5053 154.691 92.3684 154.965C92.2316 155.193 92.3228 155.421 92.5965 155.421C92.8702 155.421 93.007 155.603 92.8246 155.831C92.6877 156.059 92.9158 156.607 93.3263 156.972C93.6912 157.382 93.8737 157.701 93.6456 157.701C93.4632 157.701 93.9193 158.112 94.6491 158.614C95.4246 159.115 95.7439 159.526 95.4246 159.526C95.1053 159.526 94.9684 159.754 95.1053 159.982C95.2877 160.256 95.6526 160.301 95.9263 160.165C96.2456 159.982 96.3368 160.028 96.1088 160.21C95.7439 160.621 97.0211 162.263 97.7509 162.263C97.9789 162.263 98.4807 162.628 98.8456 163.038C99.3018 163.586 99.393 163.631 99.2105 163.175C98.9825 162.673 99.1193 162.719 99.5298 163.266C99.8947 163.677 100.488 164.087 100.807 164.179C101.172 164.27 101.765 164.589 102.084 164.908C102.449 165.228 103.179 165.319 103.863 165.182C104.684 164.954 104.958 165.045 104.73 165.365C104.547 165.729 104.639 165.821 105.049 165.638C105.414 165.501 105.87 165.593 106.053 165.866C106.418 166.505 111.618 166.505 111.982 165.912C112.165 165.638 112.712 165.547 113.214 165.729C113.898 165.912 114.035 165.866 113.807 165.41C113.533 165 113.716 164.908 114.446 165.136C115.13 165.319 115.404 165.228 115.267 164.863C115.13 164.498 115.723 164.27 117 164.224C118.779 164.179 119.098 164.361 121.835 167.189C123.432 168.831 124.435 170.017 124.07 169.789C123.705 169.607 125.028 171.066 127.035 173.028C129.042 175.035 130.912 177.042 131.186 177.543C131.46 178.045 131.916 178.456 132.189 178.456C132.463 178.456 132.828 178.638 133.056 178.866C133.284 179.094 133.147 179.14 132.737 178.912C132.372 178.729 134.014 180.463 136.386 182.789C138.758 185.115 140.309 186.758 139.807 186.438C139.305 186.119 141.039 187.943 143.684 190.452C146.33 193.007 148.291 195.059 148.063 195.105C147.835 195.105 148.109 195.607 148.702 196.245C149.249 196.838 149.888 197.249 150.07 197.158C150.253 197.021 150.526 197.386 150.663 197.887C150.846 198.572 151.165 198.8 151.667 198.572C152.077 198.435 152.26 198.48 152.123 198.754C151.849 199.165 154.084 201.491 154.814 201.491C155.042 201.491 155.088 199.758 154.905 197.386C154.677 194.421 154.723 193.28 155.133 193.28C155.453 193.28 155.544 192.87 155.361 192.186C155.225 191.547 155.27 190.908 155.544 190.772C155.818 190.635 155.863 189.951 155.726 189.312C155.498 188.491 155.589 188.217 155.909 188.445C156.274 188.673 156.365 188.536 156.182 188.08C156.046 187.67 156.137 187.351 156.456 187.351C156.775 187.351 156.867 186.986 156.684 186.438C156.502 185.891 156.593 185.526 156.958 185.526C157.323 185.526 157.323 185.343 156.912 184.842C156.593 184.431 156.456 184.021 156.639 183.838C156.775 183.701 156.912 183.793 156.912 184.066C156.912 184.386 157.095 184.614 157.368 184.614C157.597 184.614 157.688 184.294 157.551 183.929C157.368 183.565 157.505 183.245 157.825 183.245C158.098 183.245 158.189 183.017 158.053 182.789C157.916 182.515 157.961 182.333 158.235 182.333C158.509 182.333 158.6 182.014 158.463 181.649C158.281 181.284 158.509 180.873 158.919 180.691C159.33 180.554 159.512 180.235 159.375 180.007C159.239 179.779 159.375 179.596 159.649 179.596C159.923 179.596 160.06 179.414 159.923 179.186C159.786 178.958 159.968 178.638 160.379 178.501C160.744 178.365 160.926 178.045 160.789 177.772C160.653 177.543 160.744 177.315 160.972 177.315C161.246 177.315 161.474 176.996 161.474 176.631C161.474 176.266 161.702 175.947 161.975 175.947C162.204 175.947 162.34 175.765 162.158 175.491C162.021 175.263 162.432 174.715 163.07 174.305C163.709 173.894 164.211 173.301 164.211 173.028C164.211 172.207 171.053 165.866 171.554 166.186C171.782 166.322 172.102 166.094 172.239 165.729C172.375 165.319 172.695 165.091 172.877 165.228C173.06 165.365 173.379 165.136 173.516 164.726C173.698 164.315 173.926 164.087 174.109 164.224C174.519 164.635 176.116 163.631 175.842 163.129C175.66 162.901 176.07 162.719 176.709 162.719C177.347 162.719 177.895 162.491 177.895 162.217C177.895 161.943 178.214 161.852 178.625 161.989C179.081 162.172 179.218 162.08 178.989 161.715C178.761 161.351 178.898 161.305 179.4 161.487C179.856 161.624 180.175 161.579 180.175 161.305C180.175 161.031 180.404 160.986 180.632 161.122C180.905 161.259 181.088 161.168 181.088 160.894C181.088 160.575 181.361 160.438 181.681 160.575C181.954 160.666 182.639 160.575 183.14 160.301C183.642 160.028 184.509 159.845 185.102 159.936C185.649 159.982 186.105 159.8 186.105 159.526C186.105 159.161 186.516 159.07 187.246 159.252C187.93 159.435 188.386 159.343 188.386 159.07C188.386 158.751 188.979 158.659 189.937 158.842C190.849 159.024 191.579 158.933 191.761 158.659C192.172 158.066 198.877 157.975 198.877 158.568C198.877 158.842 199.607 158.887 200.474 158.751C201.568 158.568 202.07 158.659 202.07 159.024C202.07 159.389 202.435 159.48 202.982 159.298C203.53 159.115 203.895 159.207 203.895 159.526C203.895 159.845 204.26 159.936 204.807 159.754C205.354 159.572 205.719 159.663 205.719 159.982C205.719 160.301 206.084 160.393 206.632 160.21C207.133 160.028 207.544 160.119 207.544 160.393C207.544 160.666 207.863 160.758 208.228 160.621C208.593 160.438 208.912 160.529 208.912 160.803C208.912 161.031 209.232 161.396 209.642 161.533C210.007 161.67 210.189 161.624 210.053 161.351C209.87 161.077 210.281 161.122 210.919 161.442C211.558 161.715 212.105 162.126 212.105 162.354C212.105 162.536 212.242 162.673 212.47 162.628C213.109 162.491 215.298 163.631 215.298 164.087C215.298 164.361 215.526 164.452 215.754 164.315C216.028 164.179 216.211 164.27 216.211 164.543C216.211 164.817 216.393 164.908 216.667 164.772C216.895 164.635 217.351 164.908 217.67 165.456C217.989 165.958 218.491 166.368 218.811 166.368C219.13 166.368 219.404 166.596 219.404 166.824C219.404 167.28 221.593 168.421 222.232 168.284C222.414 168.238 222.46 168.466 222.323 168.786C222.232 169.105 223.919 171.066 226.246 173.21C228.526 175.354 230.579 177.543 230.853 178.136C231.081 178.775 231.491 179.049 231.811 178.866C232.084 178.684 232.175 178.729 232.039 179.003C231.902 179.231 233.407 180.919 235.368 182.743C237.375 184.568 239.018 186.301 239.018 186.621C239.018 186.894 240.751 188.765 242.895 190.726C244.993 192.733 246.635 194.466 246.544 194.649C246.407 194.831 246.772 195.379 247.365 195.835C248.323 196.701 248.323 196.701 247.684 195.789C247.046 194.968 247.046 194.922 247.775 195.515C248.232 195.835 248.505 196.291 248.368 196.473C248.277 196.656 248.551 197.158 249.053 197.614C249.828 198.298 250.056 198.343 250.74 197.796C251.47 197.203 251.516 197.249 250.968 197.887C250.467 198.572 250.74 198.982 252.793 201.035C254.116 202.358 254.891 203.27 254.526 203.042C254.161 202.859 254.572 203.498 255.439 204.41C256.305 205.322 257.263 205.961 257.582 205.87C257.902 205.733 258.13 205.779 258.13 205.961C257.947 207.01 258.267 207.512 258.905 207.238C259.27 207.101 259.498 207.147 259.361 207.375C258.997 207.922 261.597 210.249 262.053 209.838C262.281 209.61 262.235 209.793 261.916 210.203C261.46 210.796 261.505 211.07 262.144 211.572C262.828 212.119 262.874 212.119 262.509 211.526C262.144 210.933 262.189 210.933 262.874 211.48C263.421 211.891 263.649 211.936 263.649 211.572C263.649 211.252 263.877 211.161 264.197 211.343C264.561 211.572 264.607 211.435 264.379 210.842C264.151 210.203 264.197 210.112 264.698 210.522C265.474 211.161 266.386 210.386 266.386 209.154C266.386 208.698 266.614 208.333 266.842 208.333C267.116 208.333 267.207 207.831 267.025 207.147C266.797 206.235 266.842 206.007 267.253 206.235C267.663 206.508 267.709 206.007 267.481 204.319C267.298 202.859 267.389 201.947 267.709 201.765C268.393 201.308 268.393 196.017 267.709 196.017C267.344 196.017 267.253 195.242 267.481 193.508C267.663 191.775 267.618 191 267.253 191C266.979 191 266.842 190.68 267.025 190.315C267.389 189.266 265.747 187.761 264.972 188.4C264.607 188.719 264.698 188.536 265.154 187.989C266.067 186.894 265.656 186.165 264.607 186.986C264.197 187.305 264.014 187.351 264.197 187.168C264.698 186.575 263.695 185.526 262.919 185.845C262.554 185.982 262.281 185.845 262.281 185.526C262.281 185.161 261.004 185.07 257.719 185.161C255.211 185.252 253.158 185.115 253.158 184.933C253.158 184.705 252.975 184.659 252.747 184.796C252.519 184.979 252.246 184.796 252.109 184.522C251.972 184.066 251.744 184.112 251.105 184.614C250.375 185.207 250.33 185.207 250.649 184.659C251.197 183.747 251.242 181.877 250.74 181.877C250.512 181.877 250.467 181.558 250.604 181.147C250.786 180.691 250.695 180.554 250.33 180.782C249.965 181.01 249.919 180.873 250.102 180.372C250.239 179.915 250.193 179.596 249.919 179.596C249.646 179.596 249.509 179.322 249.6 179.049C249.737 178.729 249.509 178.182 249.189 177.817C248.825 177.498 248.642 176.905 248.779 176.586C248.916 176.221 248.825 175.947 248.551 175.947C248.277 175.947 248.232 175.719 248.368 175.491C248.505 175.217 248.414 175.035 248.14 175.035C247.821 175.035 247.684 174.761 247.821 174.396C247.958 174.031 247.775 173.621 247.365 173.484C247 173.301 246.772 172.891 246.954 172.526C247.091 172.161 247 171.842 246.726 171.842C246.453 171.842 246.407 171.614 246.544 171.386C246.681 171.112 246.635 170.929 246.407 170.929C245.86 170.929 245.86 166.414 246.361 166.094C246.589 165.958 246.635 165.638 246.498 165.365C246.316 165.091 246.407 165 246.681 165.182C246.954 165.319 247.593 164.908 248.14 164.224C248.688 163.494 249.189 163.038 249.189 163.129C249.235 163.266 249.919 162.673 250.695 161.898C251.47 161.122 252.018 160.347 251.881 160.21C251.744 160.073 251.881 159.982 252.154 159.982C252.428 159.982 252.565 159.663 252.382 159.207C252.2 158.796 252.291 158.568 252.519 158.751C252.747 158.887 252.93 158.203 252.93 157.2C252.93 156.242 252.793 155.421 252.656 155.421C252.474 155.421 252.2 155.101 252.063 154.691C251.881 154.235 251.972 154.098 252.337 154.326C253.249 154.919 251.561 152.775 250.284 151.772C249.6 151.224 249.053 150.54 249.053 150.221C249.053 149.491 246.681 147.393 246.088 147.575C245.86 147.666 245.768 147.575 245.997 147.393C246.179 147.21 245.768 146.48 245.084 145.75C244.126 144.747 243.761 144.61 243.26 145.021C242.895 145.294 242.667 145.34 242.758 145.112C242.849 144.884 242.439 144.108 241.891 143.379C241.298 142.649 240.842 142.238 240.842 142.466C240.842 142.694 240.523 142.466 240.112 141.965C239.747 141.463 239.337 141.098 239.246 141.143C238.653 141.508 237.193 141.235 237.421 140.824C237.558 140.55 237.284 140.368 236.782 140.368C235.505 140.368 234.411 140.87 234.684 141.326C234.821 141.508 234.547 141.6 234.046 141.508C233.453 141.417 233.225 141.6 233.316 142.101C233.453 143.014 232.221 144.565 231.674 144.2C231.035 143.789 228.025 146.435 228.207 147.256C228.344 147.803 228.116 147.94 227.34 147.849C226.747 147.803 226.246 147.94 226.246 148.168C226.246 148.715 224.558 148.715 224.193 148.122C224.056 147.849 223.509 147.666 223.007 147.666C222.505 147.666 222.004 147.347 221.867 146.982C221.684 146.617 221.411 146.435 221.182 146.572C220.954 146.708 220.772 146.572 220.772 146.298C220.772 146.024 220.589 145.933 220.316 146.07C220.088 146.207 219.86 146.161 219.86 145.979C219.86 145.75 219.404 145.522 218.856 145.522C218.263 145.477 217.761 145.203 217.67 144.929C217.579 144.701 217.305 144.565 217.077 144.747C216.849 144.884 216.667 144.793 216.667 144.519C216.667 144.245 216.347 144.154 215.982 144.291C215.618 144.473 215.298 144.336 215.298 144.063C215.298 143.789 214.979 143.698 214.614 143.835C214.249 144.017 213.93 143.926 213.93 143.652C213.93 143.379 213.474 143.287 212.926 143.47C212.197 143.652 212.06 143.561 212.333 143.105C212.607 142.649 212.516 142.558 211.968 142.786C211.512 142.922 211.193 142.877 211.193 142.649C211.193 142.421 210.691 142.101 210.053 141.919C209.414 141.782 209.049 141.463 209.186 141.235C209.323 141.007 209.186 140.824 208.912 140.824C208.639 140.824 208.547 140.596 208.684 140.368C208.821 140.094 208.73 139.912 208.456 139.912C208.046 139.912 207.954 138.589 208.091 135.35C208.137 132.842 208.046 130.789 207.818 130.789C207.635 130.789 207.589 130.47 207.726 130.059C207.863 129.694 207.818 129.512 207.544 129.649C207.27 129.786 207.042 129.694 207.042 129.466C206.997 129.193 206.951 128.691 206.905 128.372C206.86 128.098 206.586 127.87 206.267 127.961C205.947 128.007 205.582 127.779 205.446 127.414C205.309 127.049 204.898 126.866 204.533 127.003C204.168 127.14 203.895 127.003 203.895 126.729C203.895 126.365 203.393 126.273 202.298 126.501C201.432 126.638 200.702 126.593 200.702 126.41C200.702 126.182 198.239 126 195.228 126C192.218 126 189.754 126.182 189.754 126.41ZM111.663 137.266C112.211 137.266 112.667 137.449 112.667 137.722C112.667 137.95 112.849 138.042 113.077 137.859C113.305 137.722 113.853 137.95 114.218 138.361C114.628 138.726 114.947 138.954 114.947 138.772C114.947 138.635 115.768 139.456 116.772 140.596C117.775 141.736 118.596 142.922 118.596 143.15C118.596 143.424 118.779 143.515 119.007 143.379C119.235 143.196 119.326 143.561 119.144 144.108C119.007 144.747 119.098 144.975 119.418 144.747C119.782 144.519 119.874 144.838 119.691 145.842C119.509 146.708 119.6 147.21 119.919 147.21C120.193 147.21 120.421 147.529 120.421 147.894C120.421 148.259 120.193 148.579 119.919 148.579C119.6 148.579 119.509 149.035 119.691 149.719C119.874 150.358 119.782 150.859 119.554 150.859C119.281 150.859 119.189 151.179 119.326 151.543C119.509 151.908 119.372 152.228 119.053 152.228C118.779 152.228 118.688 152.41 118.825 152.684C118.961 152.912 118.87 153.14 118.642 153.14C118.368 153.14 118.14 153.368 118.14 153.642C118.14 154.28 115.586 156.789 114.947 156.789C114.719 156.789 114.491 157.017 114.491 157.291C114.491 157.519 114.309 157.61 114.035 157.473C113.807 157.336 113.579 157.428 113.579 157.701C113.579 157.975 113.351 158.066 113.032 157.884C112.667 157.656 112.621 157.793 112.804 158.34C113.032 158.979 112.94 159.024 112.211 158.614C111.618 158.294 110.979 158.294 110.158 158.705C109.246 159.115 108.744 159.115 108.105 158.705C107.604 158.431 106.919 158.294 106.509 158.431C106.144 158.568 105.825 158.477 105.825 158.203C105.825 157.929 105.505 157.838 105.14 157.975C104.775 158.158 104.456 158.021 104.456 157.656C104.456 157.336 104.319 157.245 104.137 157.382C104 157.565 103.544 157.291 103.225 156.789C102.86 156.287 102.404 155.968 102.221 156.105C101.993 156.196 101.446 155.877 100.989 155.329C100.396 154.645 100.351 154.463 100.807 154.691C101.309 154.965 101.309 154.873 100.761 154.417C100.351 154.098 99.8947 153.368 99.7123 152.775C99.5298 152.228 99.1649 151.772 98.9368 151.772C98.6632 151.772 98.6175 151.361 98.7544 150.859C98.9368 150.312 98.8456 149.947 98.4807 149.947C98.1158 149.947 98.0246 149.4 98.2982 147.986C98.4807 146.936 98.6175 145.614 98.6175 145.021C98.6175 144.473 98.8 144.017 99.0281 144.017C99.2105 144.017 99.3018 143.743 99.1649 143.379C99.0281 143.014 99.3018 142.512 99.8491 142.238C100.396 141.919 100.67 141.372 100.579 140.824C100.488 140.322 100.625 139.958 100.944 140.049C101.263 140.094 101.446 139.912 101.4 139.593C101.309 139.273 101.674 139.136 102.13 139.228C102.632 139.319 103.133 139.091 103.27 138.726C103.407 138.315 103.726 138.133 103.954 138.27C104.182 138.452 104.684 138.224 105.049 137.859C105.46 137.494 106.053 137.312 106.418 137.449C106.782 137.586 107.239 137.449 107.421 137.175C107.649 136.81 108.288 136.765 109.2 136.947C109.975 137.084 111.07 137.221 111.663 137.266ZM144.186 147.347C143.912 147.712 143.775 148.077 143.912 148.214C144.049 148.35 143.867 148.715 143.502 148.989C143 149.445 142.863 149.4 142.954 148.898C143.046 148.168 144.095 146.754 144.46 146.754C144.596 146.754 144.46 147.028 144.186 147.347Z" fill="#7060FE"/>
<path d="M231.719 143.379C231.719 144.018 231.856 144.018 232.403 143.562C232.768 143.242 233.088 142.923 233.088 142.832C233.088 142.741 232.768 142.649 232.403 142.649C232.039 142.649 231.719 142.969 231.719 143.379Z" fill="#404040"/>
<path d="M190.211 170.2C190.211 170.382 189.709 170.428 189.116 170.291C188.477 170.154 187.884 170.2 187.702 170.474C187.565 170.702 187.154 170.793 186.79 170.61C186.425 170.474 186.105 170.61 186.105 170.93C186.105 171.249 185.786 171.386 185.421 171.203C185.056 171.067 184.463 171.249 184.098 171.614C183.779 171.979 183.368 172.116 183.186 171.979C183.049 171.796 182.912 171.888 182.912 172.161C182.912 172.663 180.312 173.849 179.583 173.712C179.4 173.712 179.126 173.986 178.99 174.351C178.853 174.716 178.533 174.898 178.305 174.761C178.077 174.624 177.895 174.761 177.895 174.989C177.895 175.263 177.667 175.491 177.439 175.491C177.165 175.491 175.797 176.632 174.383 178C172.649 179.688 171.919 180.691 172.147 181.193C172.284 181.603 172.239 181.832 172.056 181.74C171.874 181.649 171.235 182.105 170.597 182.698C169.958 183.337 169.775 183.702 170.14 183.519C170.551 183.291 170.505 183.428 170.049 183.839C169.593 184.203 169.365 184.614 169.547 184.751C169.684 184.933 169.593 185.07 169.274 185.07C168.954 185.07 168.863 185.253 169 185.526C169.137 185.754 169.091 185.982 168.818 185.982C168.544 185.982 168.453 186.256 168.59 186.575C168.726 186.94 168.498 187.488 168.133 187.807C167.723 188.126 167.54 188.537 167.677 188.765C167.814 188.993 167.677 189.175 167.404 189.175C167.084 189.175 166.993 189.54 167.175 190.088C167.358 190.589 167.267 191 166.993 191C166.719 191 166.628 191.274 166.765 191.639C166.902 192.003 166.811 192.414 166.537 192.596C166.263 192.733 166.172 193.372 166.309 193.965C166.446 194.512 166.354 195.151 166.081 195.288C165.442 195.698 165.442 201.81 166.081 202.221C166.354 202.358 166.446 202.996 166.309 203.544C166.172 204.137 166.263 204.775 166.491 204.912C166.765 205.095 166.856 205.596 166.719 206.098C166.537 206.6 166.628 206.965 166.947 206.965C167.267 206.965 167.404 207.284 167.221 207.649C167.084 208.014 167.175 208.333 167.449 208.333C167.723 208.333 167.768 208.516 167.632 208.789C167.495 209.017 167.586 209.246 167.86 209.246C168.179 209.246 168.27 209.565 168.133 209.975C167.951 210.432 168.042 210.568 168.407 210.34C168.772 210.112 168.818 210.249 168.635 210.751C168.498 211.207 168.544 211.526 168.818 211.526C169.091 211.526 169.137 211.709 169 211.982C168.863 212.21 168.954 212.439 169.274 212.439C169.593 212.439 169.684 212.575 169.547 212.758C169.365 212.895 169.547 213.26 169.912 213.533C170.232 213.807 170.597 214.309 170.688 214.674C170.779 215.039 171.326 215.86 171.965 216.453C172.695 217.137 172.74 217.319 172.193 216.954C171.281 216.361 171.281 216.361 172.147 217.319C172.604 217.912 173.197 218.232 173.425 218.095C173.607 217.958 173.744 218.049 173.698 218.323C173.607 218.551 174.2 219.235 174.975 219.828C175.751 220.421 176.435 221.06 176.481 221.333C176.481 221.561 176.709 221.789 176.983 221.789C177.211 221.789 177.712 222.2 178.123 222.702C178.533 223.203 178.716 223.34 178.579 222.975C178.351 222.565 178.625 222.61 179.446 223.158C180.084 223.614 180.632 224.161 180.632 224.389C180.632 224.617 180.814 224.709 181.042 224.572C181.681 224.161 182.958 224.8 182.593 225.347C182.411 225.621 182.593 225.712 183.049 225.53C183.414 225.393 184.007 225.575 184.281 225.895C184.6 226.26 185.011 226.488 185.193 226.351C185.421 226.214 185.695 226.305 185.877 226.533C186.014 226.807 186.425 226.898 186.79 226.716C187.154 226.579 187.474 226.716 187.474 227.035C187.474 227.4 187.884 227.491 188.614 227.309C189.253 227.126 189.754 227.172 189.754 227.354C189.754 227.582 192.126 227.719 195 227.719C197.874 227.719 200.246 227.537 200.246 227.309C200.246 227.126 200.565 227.081 200.975 227.217C201.386 227.4 202.025 227.263 202.344 226.989C202.663 226.716 203.165 226.625 203.439 226.807C203.667 226.944 203.895 226.853 203.895 226.579C203.895 226.26 204.168 226.123 204.533 226.26C204.898 226.396 205.446 226.214 205.765 225.849C206.039 225.484 206.54 225.256 206.814 225.347C207.088 225.439 207.59 225.21 207.909 224.8C208.274 224.389 208.411 224.344 208.228 224.617C208.046 225.028 208.183 225.119 208.639 224.937C209.049 224.8 209.368 224.481 209.368 224.298C209.368 224.116 209.916 223.614 210.554 223.158C211.376 222.656 211.649 222.61 211.375 222.975C211.102 223.432 211.239 223.432 211.923 222.93C213.519 221.653 216.667 218.323 216.667 217.867C216.667 217.593 216.895 217.547 217.123 217.684C217.397 217.821 217.579 217.639 217.579 217.274C217.579 216.909 217.944 216.316 218.4 215.996C218.811 215.677 219.495 214.993 219.86 214.537C220.453 213.716 220.453 213.67 219.86 213.989C219.449 214.172 219.495 214.081 219.951 213.67C220.407 213.305 220.635 212.895 220.453 212.758C220.316 212.575 220.453 212.439 220.772 212.439C221.091 212.439 221.274 212.302 221.091 212.165C220.954 211.982 221.137 211.572 221.502 211.207C221.867 210.842 222.049 210.34 221.912 210.112C221.73 209.884 221.821 209.702 222.095 209.702C222.368 209.702 222.46 209.382 222.323 209.017C222.14 208.653 222.277 208.333 222.551 208.333C222.825 208.333 222.916 208.014 222.779 207.649C222.597 207.284 222.733 206.965 223.053 206.965C223.326 206.965 223.418 206.737 223.281 206.509C223.098 206.235 223.19 205.733 223.463 205.414C223.737 205.095 223.874 204.456 223.691 204.046C223.554 203.635 223.6 203.042 223.874 202.723C224.421 201.993 224.467 195.516 223.874 194.786C223.646 194.467 223.554 193.828 223.737 193.326C223.874 192.87 223.783 192.323 223.509 192.14C223.235 191.958 223.098 191.547 223.235 191.182C223.372 190.817 223.281 190.544 223.053 190.544C222.825 190.544 222.733 190.224 222.87 189.86C223.053 189.495 222.916 189.175 222.597 189.175C222.277 189.175 222.14 188.856 222.323 188.491C222.46 188.126 222.368 187.807 222.095 187.807C221.821 187.807 221.73 187.624 221.912 187.396C222.049 187.168 221.867 186.667 221.502 186.302C221.137 185.937 220.954 185.526 221.091 185.344C221.274 185.207 221.137 185.07 220.818 185.07C220.498 185.07 220.407 184.842 220.544 184.614C220.681 184.34 220.498 184.158 220.133 184.158C219.723 184.158 219.404 183.93 219.404 183.656C219.404 183.428 219.632 183.337 219.905 183.474C220.179 183.656 220.133 183.382 219.814 182.881C219.495 182.333 219.039 182.06 218.856 182.151C218.674 182.288 218.491 182.151 218.491 181.877C218.491 181.603 218.309 181.467 218.126 181.603C217.898 181.74 217.716 181.558 217.716 181.193C217.716 180.828 217.944 180.691 218.218 180.828C218.491 181.01 217.305 179.779 215.572 178.091C213.884 176.403 212.288 175.172 212.06 175.309C211.832 175.4 211.421 175.126 211.102 174.624C210.691 173.94 210.418 173.849 209.916 174.214C209.597 174.488 209.368 174.533 209.414 174.305C209.551 173.393 209.323 172.846 208.639 172.572C208.183 172.389 208.046 172.481 208.228 172.891C208.411 173.165 208.274 173.119 207.909 172.709C207.59 172.298 207.042 172.07 206.768 172.161C206.449 172.298 206.175 172.161 206.175 171.842C206.175 171.568 205.993 171.477 205.719 171.614C205.491 171.751 205.263 171.705 205.263 171.432C205.263 171.158 204.944 171.067 204.579 171.203C204.214 171.386 203.895 171.295 203.895 171.021C203.895 170.747 203.484 170.656 202.983 170.793C202.435 170.93 202.07 170.793 202.07 170.474C202.07 170.109 201.66 170.017 200.93 170.2C200.291 170.382 199.79 170.337 199.79 170.154C199.79 169.926 197.646 169.789 195 169.789C192.354 169.789 190.211 169.972 190.211 170.2ZM198.786 183.291C198.832 183.337 199.014 183.382 199.242 183.428C199.425 183.474 200.018 183.747 200.519 184.067C201.067 184.34 201.614 184.432 201.797 184.295C201.933 184.158 202.07 184.203 202.07 184.477C202.07 184.751 202.39 185.116 202.8 185.253C203.256 185.435 203.393 185.344 203.211 184.933C203.028 184.66 203.347 184.888 203.895 185.481C204.442 186.119 205.309 186.849 205.856 187.123C206.404 187.396 206.814 187.898 206.768 188.172C206.677 188.446 207.042 188.902 207.544 189.175C208.046 189.449 208.365 189.86 208.228 190.042C208.091 190.27 208.319 190.589 208.73 190.726C209.095 190.863 209.277 191.182 209.14 191.456C209.004 191.684 209.095 191.912 209.323 191.912C209.597 191.912 209.779 192.186 209.733 192.46C209.642 192.779 209.87 193.007 210.235 192.916C210.783 192.779 210.783 192.916 210.281 193.463C209.87 194.01 209.87 194.193 210.235 194.193C210.6 194.193 210.691 194.558 210.509 195.105C210.326 195.653 210.418 196.017 210.737 196.017C211.056 196.017 211.193 196.975 211.147 198.754C211.102 200.26 210.874 201.491 210.646 201.491C210.418 201.491 210.372 201.902 210.509 202.403C210.691 202.951 210.6 203.316 210.235 203.316C209.87 203.316 209.87 203.498 210.281 204.046C210.646 204.41 210.691 204.684 210.463 204.593C210.235 204.502 210.007 204.639 209.961 204.821C209.916 205.003 209.551 205.505 209.14 205.87C208.776 206.281 208.456 206.828 208.456 207.193C208.456 207.512 208.137 207.923 207.726 208.06C207.316 208.242 207.088 208.47 207.27 208.653C207.635 209.017 206.221 210.614 205.537 210.614C205.263 210.614 204.305 211.253 203.484 212.028C202.618 212.803 201.568 213.442 201.112 213.488C200.611 213.533 200.246 213.716 200.246 213.944C200.246 214.172 199.926 214.263 199.561 214.081C199.197 213.944 198.877 214.035 198.877 214.263C198.877 214.537 198.102 214.628 196.961 214.446C195.593 214.217 195.183 214.263 195.411 214.628C195.593 214.947 195.456 215.175 195.046 215.175C194.635 215.175 194.316 214.947 194.316 214.674C194.316 214.309 193.768 214.217 192.719 214.4C191.853 214.537 191.123 214.491 191.123 214.263C191.123 214.035 190.804 213.944 190.439 214.081C190.074 214.263 189.754 214.126 189.754 213.807C189.754 213.533 189.572 213.442 189.298 213.579C189.07 213.716 188.842 213.624 188.842 213.351C188.842 213.077 188.66 212.986 188.386 213.123C188.158 213.26 187.93 213.168 187.93 212.895C187.93 212.621 187.747 212.53 187.474 212.667C187.246 212.803 187.018 212.712 187.018 212.484C187.018 212.21 186.835 212.028 186.607 212.074C186.379 212.165 185.877 211.846 185.558 211.389C185.239 210.933 184.509 210.523 183.961 210.477C183.323 210.432 183.049 210.158 183.14 209.656C183.232 209.2 182.958 208.561 182.547 208.242C181.818 207.695 181.818 207.74 182.456 208.516C182.867 209.063 182.912 209.291 182.547 209.063C181.772 208.607 180.586 206.235 180.951 205.87C181.133 205.733 180.997 205.596 180.677 205.596C180.358 205.596 180.221 205.414 180.404 205.186C180.54 204.958 180.449 204.639 180.175 204.456C179.902 204.274 179.811 203.954 179.947 203.726C180.13 203.498 179.993 203.316 179.719 203.316C179.4 203.316 179.309 202.996 179.446 202.586C179.628 202.175 179.491 201.537 179.218 201.217C178.898 200.853 178.807 199.758 178.99 198.435C179.126 197.203 179.309 195.789 179.309 195.196C179.354 194.649 179.537 194.193 179.811 194.193C180.039 194.193 180.084 193.965 179.947 193.737C179.811 193.463 179.902 193.281 180.175 193.281C180.449 193.281 180.632 193.007 180.54 192.688C180.358 191.684 181.133 190.179 182.228 189.449C183.323 188.719 183.414 188.126 182.73 186.895C182.411 186.347 182.456 186.302 182.912 186.758C183.414 187.214 183.688 187.214 184.235 186.758C184.783 186.302 184.828 186.347 184.554 186.895C184.372 187.26 184.646 187.077 185.239 186.439C185.786 185.8 186.425 185.344 186.607 185.389C186.835 185.481 187.018 185.298 187.018 185.024C187.018 184.796 187.246 184.705 187.565 184.888C187.884 185.116 187.93 185.024 187.702 184.614C187.428 184.158 187.519 184.067 188.067 184.295C188.523 184.432 188.842 184.386 188.842 184.112C188.842 183.839 189.07 183.793 189.298 183.93C189.572 184.067 189.754 183.975 189.754 183.702C189.754 183.382 190.119 183.291 190.712 183.474C191.26 183.656 191.579 183.61 191.442 183.382C191.214 183.063 198.284 182.972 198.786 183.291Z" fill="#40D1CE"/>
<path d="M125.53 186.439C125.165 186.94 124.663 187.214 124.481 187.077C124.298 186.986 124.207 187.305 124.298 187.853C124.39 188.4 124.39 188.719 124.253 188.582C123.705 188.081 122.884 189.358 123.067 190.407C123.204 191 123.021 191.456 122.747 191.456C122.337 191.456 122.291 192.049 122.519 193.509C122.702 194.877 122.611 195.789 122.246 196.246C121.881 196.702 121.79 197.705 122.018 199.302C122.154 200.625 122.291 202.677 122.291 203.863C122.291 205.095 122.519 206.053 122.793 206.053C123.067 206.053 123.158 206.509 122.976 207.239C122.793 207.968 122.839 208.288 123.112 208.105C123.432 207.923 123.477 208.151 123.295 208.607C123.112 209.154 123.204 209.291 123.66 209.154C124.025 209.018 124.253 208.653 124.162 208.379C124.116 208.06 124.253 207.923 124.526 208.105C124.8 208.242 124.846 208.653 124.663 208.926C123.979 210.021 124.162 210.66 125.347 211.161C126.032 211.435 126.99 211.846 127.537 212.074C128.039 212.302 130.365 212.439 132.646 212.347C134.972 212.256 136.842 212.347 136.842 212.484C136.842 212.621 137.344 212.986 137.937 213.26C138.712 213.625 139.169 213.579 139.579 213.214C139.898 212.895 139.853 213.168 139.442 213.807C138.53 215.13 138.439 215.814 139.214 215.358C139.579 215.13 139.625 215.267 139.442 215.768C139.305 216.179 139.351 216.635 139.625 216.772C139.853 216.954 139.944 217.228 139.807 217.456C139.67 217.684 139.762 217.958 140.035 218.14C140.309 218.323 140.4 218.642 140.263 218.87C140.081 219.098 140.218 219.281 140.491 219.281C140.765 219.281 140.856 219.463 140.719 219.737C140.583 219.965 140.674 220.193 140.947 220.193C141.267 220.193 141.358 220.512 141.221 220.923C141.039 221.379 141.13 221.516 141.495 221.288C141.86 221.06 141.905 221.196 141.723 221.698C141.586 222.109 141.632 222.565 141.905 222.702C142.133 222.884 142.225 223.158 142.088 223.386C141.951 223.568 142.179 223.888 142.59 224.025C143 224.207 143.228 224.618 143.046 224.982C142.909 225.347 143 225.667 143.274 225.667C143.547 225.667 143.593 225.895 143.456 226.123C143.319 226.351 143.411 226.579 143.684 226.579C143.958 226.579 144.049 226.761 143.912 227.035C143.776 227.263 143.867 227.491 144.186 227.491C144.505 227.491 144.597 227.628 144.46 227.765C144.323 227.947 144.369 228.495 144.642 228.996C145.053 229.681 145.007 229.818 144.551 229.544C144.186 229.27 144.049 229.361 144.232 229.818C144.369 230.182 143.912 231.049 143.183 231.825C142.407 232.554 141.905 233.375 142.042 233.695C142.133 233.968 141.905 234.197 141.495 234.151C140.993 234.105 140.765 234.425 140.765 234.926C140.811 235.474 140.674 235.611 140.309 235.291C139.944 235.018 139.488 235.2 138.849 235.93C138.302 236.523 137.983 237.161 138.119 237.298C138.256 237.435 138.119 237.526 137.846 237.526C137.572 237.526 137.435 237.846 137.572 238.211C137.754 238.575 137.618 238.895 137.39 238.895C136.66 238.895 136.979 241.814 137.754 242.818C138.347 243.547 138.347 243.593 137.754 243.274C137.39 243.091 137.435 243.228 137.891 243.593C138.347 244.004 138.667 244.368 138.576 244.505C138.484 244.642 138.986 245.189 139.67 245.737C140.354 246.239 140.902 246.877 140.811 247.06C140.765 247.288 141.54 248.246 142.544 249.204C143.502 250.207 144.14 250.663 143.912 250.298C143.684 249.888 143.912 249.933 144.505 250.481C145.6 251.439 145.828 251.895 144.962 251.393C144.642 251.211 144.779 251.484 145.235 252.032C146.193 253.126 146.649 253.354 146.147 252.442C145.965 252.168 146.33 252.351 146.969 252.944C147.562 253.491 148.2 253.856 148.337 253.674C148.474 253.537 148.565 253.811 148.565 254.267C148.519 254.677 148.702 255.088 148.93 255.133C149.888 255.27 152.351 256.456 152.351 256.775C152.351 257.323 154.54 257.232 154.723 256.684C154.814 256.456 155.362 256.182 155.955 256.091C156.593 256 157.186 255.681 157.277 255.361C157.369 255.042 158.372 253.856 159.512 252.716C160.653 251.621 161.428 250.937 161.246 251.302C161.109 251.621 161.383 251.393 161.884 250.8C162.432 250.253 162.751 249.568 162.614 249.386C162.477 249.158 162.614 248.839 162.888 248.656C163.207 248.474 163.298 248.519 163.116 248.839C162.979 249.112 163.025 249.432 163.298 249.614C163.526 249.751 163.755 249.705 163.755 249.523C163.755 249.295 164.256 249.067 164.895 249.021C165.533 248.975 166.035 249.158 166.035 249.432C166.035 249.66 166.263 249.751 166.491 249.614C166.765 249.477 167.084 249.66 167.221 250.025C167.358 250.435 167.677 250.618 167.905 250.481C168.133 250.344 168.316 250.481 168.316 250.754C168.316 251.028 168.498 251.119 168.772 250.982C169 250.846 169.228 250.891 169.228 251.119C169.228 251.393 169.547 251.712 169.958 251.849C170.323 251.986 170.551 251.94 170.414 251.712C170.277 251.484 170.87 251.667 171.737 252.032C172.604 252.442 173.333 252.944 173.333 253.126C173.333 253.309 173.653 253.354 174.018 253.218C174.383 253.035 174.702 253.172 174.702 253.491C174.702 253.765 174.93 253.856 175.158 253.719C175.432 253.582 175.614 253.674 175.614 253.947C175.614 254.267 175.979 254.358 176.526 254.175C177.028 253.993 177.439 254.084 177.439 254.358C177.439 254.632 177.758 254.723 178.123 254.586C178.488 254.404 178.807 254.54 178.807 254.86C178.807 255.179 179.081 255.316 179.446 255.179C179.811 255.042 180.449 255.361 180.951 255.863C181.407 256.411 181.498 256.684 181.225 256.502C180.814 256.274 180.723 256.411 180.905 256.867C181.042 257.277 181.362 257.597 181.635 257.597C181.863 257.597 182 259.467 181.909 262.021C181.818 265.533 181.909 266.628 182.456 267.084C182.821 267.449 182.867 267.586 182.593 267.404C182.274 267.267 182 267.312 182 267.54C182 267.814 182.319 268.133 182.73 268.27C183.095 268.407 183.323 268.726 183.14 268.954C182.912 269.411 183.642 270.049 184.509 270.186C184.783 270.186 185.239 270.277 185.558 270.277C185.877 270.323 186.014 270.597 185.877 270.825C185.695 271.144 186.242 271.189 187.519 271.007C188.614 270.825 189.344 270.87 189.162 271.098C189.025 271.326 191.442 271.509 194.818 271.509C198.056 271.509 200.702 271.326 200.702 271.098C200.702 270.916 201.432 270.825 202.298 270.916C203.165 271.007 203.895 270.961 203.895 270.779C203.895 270.505 205.172 269.958 206.267 269.73C206.449 269.73 206.86 269.411 207.179 269.046C207.681 268.498 207.635 268.453 207.088 268.726C206.586 268.954 206.632 268.909 207.179 268.453C207.772 267.951 207.818 267.632 207.407 266.947C206.997 266.172 207.042 266.126 207.59 266.582C208.137 267.039 208.228 266.4 208.091 262.34C207.955 258.965 208.091 257.597 208.456 257.597C208.73 257.597 208.821 257.368 208.684 257.14C208.547 256.867 208.639 256.684 208.867 256.684C209.14 256.684 209.323 256.411 209.277 256.091C209.186 255.818 209.414 255.589 209.733 255.681C210.007 255.726 210.281 255.544 210.281 255.27C210.281 255.042 210.509 254.951 210.737 255.088C211.011 255.225 211.193 255.133 211.193 254.86C211.193 254.54 211.512 254.404 211.877 254.586C212.242 254.723 212.562 254.632 212.562 254.358C212.562 254.084 212.881 253.947 213.246 254.13C213.611 254.267 213.93 254.175 213.93 253.902C213.93 253.628 214.112 253.537 214.34 253.719C214.569 253.856 214.888 253.765 215.07 253.491C215.253 253.218 215.572 253.126 215.8 253.263C216.028 253.446 216.211 253.309 216.211 253.035C216.211 252.761 216.393 252.625 216.621 252.807C216.849 252.944 217.169 252.853 217.351 252.579C217.533 252.305 217.853 252.214 218.081 252.351C218.309 252.533 218.491 252.397 218.491 252.168C218.491 251.895 218.628 251.712 218.856 251.758C219.358 251.849 220.909 251.119 221.593 250.435C221.912 250.116 222.597 249.842 223.098 249.842C223.555 249.842 223.965 249.66 223.965 249.432C223.965 249.204 224.467 249.021 225.105 249.021C225.744 249.021 226.246 249.249 226.246 249.523C226.246 249.797 226.337 249.888 226.474 249.751C226.656 249.614 228.253 250.982 230.077 252.853C231.902 254.677 233.544 256.046 233.726 255.909C233.863 255.726 234 255.818 234 256.091C234 256.365 234.548 256.456 235.186 256.319C236.053 256.182 236.326 256.274 236.098 256.639C235.916 256.912 236.053 257.14 236.463 257.14C236.874 257.14 237.193 256.912 237.193 256.684C237.193 256.411 237.558 256.228 238.014 256.228C238.47 256.228 239.291 255.863 239.884 255.453C240.705 254.905 240.888 254.86 240.66 255.361C240.477 255.726 240.797 255.453 241.39 254.723C241.983 254.039 242.667 253.491 242.94 253.491C243.67 253.491 245.449 251.439 245.084 251.028C244.856 250.846 244.948 250.709 245.176 250.754C246.179 250.982 246.407 250.709 245.86 250.07C245.358 249.477 245.404 249.432 245.905 249.614C246.27 249.751 247.274 249.204 248.14 248.428C249.007 247.698 249.418 247.151 249.053 247.333C248.688 247.516 249.19 246.877 250.193 245.919C251.197 245.007 251.698 244.368 251.333 244.551C250.969 244.733 251.151 244.505 251.79 244.004C252.702 243.228 252.93 242.681 252.93 240.765C252.93 239.488 252.748 238.439 252.565 238.439C252.337 238.439 252.337 238.256 252.474 237.982C252.611 237.754 251.151 236.021 249.19 234.105C247.228 232.235 245.769 230.684 245.905 230.684C246.088 230.684 246.042 229.954 245.86 229.088C245.632 228.13 245.677 227.491 245.951 227.491C246.179 227.491 246.225 227.263 246.088 227.035C245.951 226.807 246.042 226.579 246.316 226.579C246.59 226.579 246.681 226.351 246.544 226.123C246.407 225.849 246.498 225.667 246.772 225.667C247.046 225.667 247.137 225.484 247 225.211C246.863 224.982 246.955 224.754 247.274 224.754C247.593 224.754 247.73 224.618 247.548 224.481C247.411 224.298 247.593 223.888 247.958 223.523C248.323 223.112 248.551 222.565 248.46 222.246C248.14 221.47 249.646 221.607 250.33 222.428C250.832 223.021 250.877 223.021 250.604 222.474C250.421 222.063 250.467 221.926 250.695 222.154C250.923 222.382 251.105 222.747 251.105 222.975C251.105 223.386 257.309 229.498 257.719 229.453C257.856 229.453 258.54 230.182 259.316 231.095C260.502 232.554 260.502 232.646 259.498 231.825C258.905 231.323 259.909 232.418 261.825 234.197C263.695 236.021 265.246 237.754 265.246 237.982C265.246 238.256 265.565 238.667 265.93 238.895C266.477 239.26 266.477 239.351 265.793 239.625C265.383 239.761 265.109 240.081 265.246 240.263C265.383 240.491 265.2 240.947 264.835 241.312C264.47 241.677 264.288 242.088 264.425 242.27C264.607 242.407 264.47 242.544 264.197 242.544C263.923 242.544 263.786 242.863 263.923 243.228C264.105 243.593 264.014 243.912 263.74 243.912C263.467 243.912 263.376 244.368 263.558 244.916C263.695 245.554 263.604 245.782 263.284 245.554C262.919 245.326 262.828 245.737 262.965 246.877C263.102 247.926 263.011 248.428 262.737 248.246C262.463 248.063 262.281 248.611 262.281 249.614C262.281 250.754 262.463 251.165 262.828 250.937C263.193 250.709 263.239 251.074 263.056 252.26C262.919 253.309 262.965 253.947 263.284 253.947C263.558 253.947 263.649 254.358 263.512 254.86C263.376 255.361 263.467 255.772 263.74 255.772C263.969 255.772 264.014 256 263.877 256.228C263.74 256.502 263.786 256.684 264.06 256.684C264.333 256.684 264.425 256.958 264.288 257.323C264.151 257.688 264.47 258.418 264.972 258.919C265.519 259.467 265.793 259.877 265.611 259.877C265.383 259.877 265.611 260.197 266.112 260.561C266.569 260.926 267.207 261.702 267.481 262.249C267.755 262.842 268.256 263.298 268.576 263.298C268.895 263.298 269.351 263.618 269.579 263.982C269.807 264.347 270.218 264.712 270.491 264.712C270.719 264.758 271.176 264.804 271.449 264.849C271.677 264.849 271.769 265.077 271.632 265.351C271.358 265.761 271.997 265.989 272.909 265.853C273.091 265.853 273.228 265.989 273.228 266.263C273.228 266.491 273.548 266.582 273.912 266.446C274.277 266.263 274.597 266.4 274.597 266.674C274.597 266.947 274.916 267.039 275.281 266.902C275.646 266.719 275.965 266.856 275.965 267.175C275.965 267.449 276.148 267.54 276.421 267.404C276.695 267.267 277.151 267.267 277.47 267.495C278.246 267.997 284.176 268.042 283.902 267.54C283.765 267.312 284.176 267.267 284.814 267.449C285.59 267.632 286 267.54 286 267.175C286 266.856 286.319 266.719 286.684 266.902C287.049 267.039 287.369 266.947 287.369 266.674C287.369 266.4 287.597 266.354 287.825 266.491C288.098 266.628 288.281 266.582 288.281 266.309C288.281 266.035 288.646 265.989 289.056 266.126C289.604 266.354 289.741 266.218 289.512 265.716C289.33 265.214 289.512 265.032 290.014 265.077C290.425 265.168 291.155 264.758 291.611 264.256C292.067 263.709 292.295 263.618 292.112 263.982C291.884 264.347 292.614 263.754 293.663 262.66C294.712 261.565 295.579 260.47 295.579 260.242C295.579 260.06 295.807 259.877 296.081 259.877C296.309 259.877 296.4 259.649 296.263 259.421C296.126 259.147 296.263 258.828 296.674 258.691C297.084 258.554 297.221 258.144 297.084 257.733C296.902 257.232 296.993 257.095 297.312 257.323C297.677 257.551 297.769 257.414 297.586 256.958C297.449 256.547 297.541 256.228 297.86 256.228C298.133 256.228 298.225 256.046 298.088 255.772C297.951 255.544 298.042 255.316 298.316 255.316C298.681 255.316 298.772 254.905 298.59 254.175C298.407 253.537 298.453 253.035 298.635 253.035C298.863 253.035 299 251.53 299 249.66C299 247.789 298.818 246.375 298.59 246.512C298.362 246.695 298.316 246.239 298.498 245.554C298.681 244.87 298.59 244.368 298.362 244.368C298.088 244.368 298.042 244.049 298.179 243.593C298.407 243.046 298.316 242.954 297.86 243.228C297.404 243.502 297.312 243.411 297.541 242.863C297.677 242.407 297.632 242.088 297.358 242.088C297.084 242.088 296.993 241.905 297.176 241.677C297.312 241.449 297.084 240.902 296.674 240.537C296.309 240.126 296.126 239.807 296.263 239.807C296.446 239.807 296.126 239.397 295.533 238.895C294.941 238.439 294.621 238.028 294.849 237.982C295.123 237.982 294.712 237.389 293.983 236.614C293.298 235.884 292.569 235.382 292.386 235.474C292.204 235.565 291.383 235.063 290.562 234.333C289.741 233.604 288.874 233.102 288.691 233.239C288.463 233.375 288.281 233.239 288.281 232.965C288.281 232.691 288.098 232.554 287.916 232.691C287.688 232.828 287.004 232.646 286.319 232.281C285.681 231.961 284.723 231.779 284.176 231.916C283.674 232.053 283.263 231.916 283.263 231.642C283.263 231.323 282.305 231.14 280.755 231.14C279.204 231.14 278.246 231.323 278.246 231.642C278.246 231.916 277.835 232.053 277.333 231.916C276.832 231.779 276.421 231.87 276.421 232.144C276.421 232.418 276.011 232.509 275.509 232.372C275.007 232.235 274.597 232.326 274.597 232.6C274.597 232.828 274.414 232.874 274.14 232.737C273.912 232.6 273.684 232.691 273.684 232.919C273.684 233.193 273.137 233.421 272.407 233.421C271.495 233.421 270.537 232.828 268.986 231.186C267.8 230 266.842 228.768 266.842 228.495C266.842 228.267 264.881 226.26 262.509 224.07C260.137 221.881 258.267 219.874 258.312 219.554C258.358 219.281 258.13 219.098 257.811 219.189C257.446 219.235 257.309 219.098 257.446 218.87C257.765 218.368 256.579 217.365 256.169 217.821C255.986 218.004 255.895 217.912 255.986 217.639C256.032 217.411 254.846 215.951 253.295 214.446C251.698 212.94 250.421 211.526 250.421 211.298C250.421 211.025 248.232 208.698 245.54 206.098C242.804 203.498 240.933 201.537 241.298 201.765C241.891 202.084 241.891 201.993 241.344 201.354C241.025 200.944 240.523 200.716 240.204 200.898C239.93 201.035 239.839 201.035 240.021 200.807C240.523 200.305 239.474 199.165 238.881 199.53C238.607 199.667 238.562 199.575 238.744 199.302C239.109 198.709 237.467 197.705 236.965 198.207C236.737 198.389 236.737 198.298 236.874 198.025C237.056 197.751 236.646 197.021 235.962 196.428L234.776 195.333L235.049 199.758C235.186 202.586 235.14 204.228 234.821 204.228C234.593 204.228 234.502 204.775 234.684 205.596C234.867 206.463 234.821 206.965 234.502 206.965C234.183 206.965 234.091 207.421 234.274 208.151C234.502 209.063 234.456 209.291 234 209.018C233.59 208.789 233.544 208.926 233.772 209.656C233.955 210.249 233.863 210.614 233.544 210.614C233.27 210.614 233.133 210.796 233.316 211.025C233.453 211.253 233.362 211.572 233.133 211.754C232.86 211.891 232.769 212.302 232.905 212.621C233.042 212.94 232.814 213.533 232.449 213.944C232.084 214.309 231.902 214.719 232.039 214.902C232.221 215.039 232.13 215.175 231.856 215.175C231.583 215.175 231.218 215.495 231.081 215.905C230.898 216.361 230.99 216.498 231.4 216.316C231.674 216.133 231.583 216.316 231.172 216.681C230.716 217.046 230.488 217.456 230.67 217.593C230.807 217.775 230.716 217.912 230.397 217.912C230.077 217.912 229.986 218.14 230.123 218.368C230.26 218.596 230.169 218.825 229.895 218.825C229.621 218.825 229.53 219.053 229.667 219.281C229.804 219.554 229.621 219.874 229.256 220.011C228.846 220.147 228.618 220.467 228.755 220.649C228.891 220.832 228.663 221.151 228.253 221.288C227.888 221.425 227.66 221.744 227.842 222.018C227.979 222.246 227.705 222.702 227.158 223.021C226.656 223.34 226.246 223.842 226.246 224.161C226.246 224.481 226.018 224.754 225.744 224.754C225.47 224.754 225.379 225.074 225.516 225.484C225.653 225.849 225.607 226.032 225.333 225.895C225.105 225.758 224.011 226.579 222.916 227.719C221.821 228.86 220.681 229.772 220.407 229.772C219.814 229.772 218.856 231.368 219.221 231.733C219.358 231.87 219.084 231.87 218.537 231.733C217.99 231.596 217.579 231.688 217.579 232.007C217.579 232.281 217.26 232.509 216.895 232.509C216.53 232.509 216.211 232.737 216.211 233.011C216.211 233.239 216.028 233.375 215.8 233.239C215.572 233.102 215.253 233.284 215.116 233.695C214.979 234.06 214.66 234.288 214.432 234.151C214.204 233.968 213.702 234.151 213.337 234.516C212.972 234.881 212.562 235.063 212.379 234.926C212.242 234.744 212.105 234.926 212.105 235.246C212.105 235.565 211.969 235.747 211.832 235.565C211.649 235.428 211.239 235.611 210.874 235.975C210.463 236.34 209.87 236.568 209.551 236.432C209.232 236.295 208.821 236.386 208.684 236.66C208.502 236.888 208.183 236.979 207.955 236.842C207.726 236.66 207.544 236.797 207.544 237.07C207.544 237.389 207.225 237.526 206.86 237.389C206.495 237.207 206.084 237.298 205.947 237.526C205.811 237.754 205.4 237.846 205.035 237.663C204.67 237.526 204.351 237.663 204.351 237.982C204.351 238.347 203.94 238.439 203.211 238.256C202.481 238.074 202.07 238.165 202.07 238.484C202.07 238.804 201.523 238.895 200.519 238.712C199.607 238.53 198.832 238.621 198.649 238.895C198.512 239.123 196.642 239.351 194.498 239.351C191.67 239.351 190.712 239.214 190.94 238.849C191.169 238.439 190.895 238.393 190.028 238.621C189.298 238.804 188.477 238.712 188.158 238.439C187.839 238.165 186.744 237.937 185.695 237.846C184.691 237.8 183.825 237.572 183.825 237.344C183.825 237.161 183.505 237.07 183.14 237.253C182.776 237.389 182.456 237.298 182.456 237.07C182.456 236.842 182.137 236.751 181.772 236.888C181.407 237.07 181.088 236.933 181.088 236.614C181.088 236.34 180.905 236.249 180.632 236.386C180.358 236.523 180.176 236.477 180.176 236.204C180.176 235.93 179.856 235.839 179.491 235.975C179.126 236.158 178.807 236.021 178.807 235.702C178.807 235.428 178.625 235.337 178.351 235.474C178.123 235.611 177.895 235.519 177.895 235.291C177.895 235.018 177.484 234.789 176.983 234.789C176.481 234.789 176.07 234.561 176.07 234.288C176.07 234.06 175.842 233.968 175.614 234.105C175.34 234.242 175.021 234.06 174.884 233.695C174.747 233.284 174.428 233.056 174.246 233.193C174.018 233.33 173.653 233.056 173.379 232.646C173.105 232.189 172.877 232.007 172.877 232.235C172.877 232.509 172.558 232.281 172.147 231.779C171.783 231.323 171.555 231.232 171.737 231.596C171.919 231.961 171.463 231.642 170.825 230.912C170.14 230.137 169.73 229.818 169.958 230.182C170.14 230.593 169.867 230.502 169.137 229.954C168.453 229.498 167.951 228.996 167.997 228.86C168.133 228.404 166.309 226.625 165.944 226.853C165.716 226.989 165.625 226.853 165.67 226.533C165.762 226.214 165.488 225.94 165.123 225.895C164.758 225.895 164.439 225.621 164.439 225.347C164.439 225.028 163.116 223.568 161.474 222.063C159.832 220.558 158.509 219.098 158.509 218.87C158.509 218.596 156.912 216.909 154.997 215.039C153.035 213.168 151.439 211.435 151.439 211.116C151.439 210.796 151.256 210.705 150.983 210.842C150.755 210.979 150.526 210.842 150.526 210.432C150.526 209.565 145.965 205.551 145.372 205.916C145.098 206.053 145.053 206.007 145.19 205.733C145.372 205.505 144.87 204.684 144.14 204C143.411 203.316 142.909 202.586 143 202.404C143.319 201.902 139.123 198.253 138.621 198.572C138.393 198.709 138.256 198.572 138.302 198.207C138.393 197.888 138.165 197.66 137.846 197.751C137.481 197.796 137.344 197.66 137.481 197.432C137.663 197.204 137.207 196.474 136.523 195.835C135.793 195.151 135.246 194.375 135.246 194.056C135.2 193.782 134.972 193.554 134.653 193.6C134.333 193.691 134.151 193.463 134.242 193.144C134.288 192.87 134.06 192.642 133.74 192.733C133.376 192.779 133.239 192.642 133.376 192.414C133.74 191.867 131.825 190.498 131.277 190.818C131.049 190.954 130.958 190.909 131.004 190.681C131.095 190.453 130.411 189.495 129.544 188.582C128.677 187.625 127.947 186.621 127.947 186.347C127.947 185.481 126.305 185.572 125.53 186.439ZM265.383 227.172C266.158 227.993 266.249 228.267 265.702 228.267C265.337 228.267 265.109 228.13 265.246 228.039C265.383 227.902 265.155 227.4 264.698 226.944C263.604 225.712 264.242 225.94 265.383 227.172ZM283.172 238.986C283.719 238.986 284.176 239.168 284.176 239.442C284.176 239.67 284.404 239.716 284.632 239.579C284.905 239.397 285.681 239.807 286.319 240.446C286.958 241.084 287.642 241.54 287.825 241.404C288.007 241.312 288.372 241.723 288.691 242.361C288.965 243.046 289.421 243.365 289.741 243.182C290.014 243 290.105 243.046 289.923 243.365C289.786 243.639 289.923 244.14 290.288 244.505C290.653 244.87 290.835 245.281 290.698 245.463C290.516 245.6 290.653 245.737 290.972 245.737C291.337 245.737 291.474 246.056 291.291 246.421C291.155 246.786 291.2 247.105 291.383 247.105C291.565 247.105 291.748 248.246 291.793 249.614C291.793 250.982 291.656 252.123 291.428 252.123C291.246 252.123 291.155 252.442 291.291 252.807C291.474 253.172 291.337 253.491 291.018 253.491C290.744 253.491 290.653 253.674 290.79 253.947C290.926 254.175 290.835 254.404 290.562 254.404C290.288 254.404 290.151 254.586 290.288 254.814C290.425 255.042 290.242 255.361 289.832 255.498C289.467 255.635 289.284 255.954 289.421 256.228C289.558 256.456 289.467 256.684 289.148 256.684C288.783 256.684 288.783 256.867 289.102 257.277C289.467 257.688 289.467 258.053 289.102 258.509C288.737 259.056 288.691 259.056 288.919 258.372C289.148 257.597 288.691 257.323 288.098 257.961C287.916 258.144 287.597 258.281 287.46 258.326C286.684 258.418 284.632 259.604 284.632 259.968C284.632 260.197 284.221 260.288 283.765 260.105C283.263 259.968 282.762 260.06 282.579 260.333C282.214 260.926 279.295 260.926 278.93 260.288C278.748 260.014 278.337 259.923 277.972 260.06C277.607 260.197 277.333 260.105 277.333 259.832C277.333 259.558 277.06 259.421 276.695 259.558C276.33 259.695 275.919 259.512 275.783 259.147C275.646 258.737 275.326 258.554 275.098 258.691C274.87 258.828 274.551 258.646 274.414 258.235C274.277 257.87 273.912 257.688 273.639 257.87C273.274 258.053 273.228 258.007 273.411 257.688C273.593 257.414 273.183 256.867 272.544 256.411C271.951 256 271.54 255.498 271.677 255.27C271.814 255.042 271.677 254.86 271.404 254.86C271.13 254.86 271.039 254.632 271.176 254.404C271.312 254.13 271.267 253.947 270.993 253.947C270.719 253.947 270.628 253.628 270.765 253.263C270.948 252.898 270.811 252.579 270.537 252.579C270.218 252.579 270.126 252.123 270.309 251.393C270.537 250.526 270.491 250.253 270.081 250.481C269.807 250.663 269.579 250.526 269.579 250.116C269.579 249.705 269.807 249.386 270.081 249.386C270.4 249.386 270.491 248.884 270.355 248.018C270.172 247.151 270.263 246.649 270.537 246.649C270.811 246.649 270.948 246.33 270.765 245.965C270.628 245.6 270.719 245.281 270.993 245.281C271.267 245.281 271.358 245.098 271.221 244.87C271.084 244.642 271.267 244.323 271.677 244.186C272.088 244.004 272.362 243.775 272.225 243.639C271.86 243.319 274.232 240.719 274.916 240.719C275.235 240.719 275.509 240.491 275.509 240.263C275.509 239.989 275.646 239.853 275.874 239.853C276.877 240.035 277.79 239.761 277.562 239.351C277.379 239.032 277.653 238.94 278.428 239.168C279.204 239.351 279.614 239.26 279.614 238.895C279.614 238.53 280.025 238.439 280.891 238.667C281.576 238.804 282.579 238.986 283.172 238.986Z" fill="#7060FE"/>
<defs>
<filter id="filter0_d_22_349" x="0" y="0" width="393" height="393" filterUnits="userSpaceOnUse" color-interpolation-filters="sRGB">
<feFlood flood-opacity="0" result="BackgroundImageFix"/>
<feColorMatrix in="SourceAlpha" type="matrix" values="0 0 0 0 0 0 0 0 0 0 0 0 0 0 0 0 0 0 127 0" result="hardAlpha"/>
<feOffset dx="2" dy="2"/>
<feGaussianBlur stdDeviation="12"/>
<feComposite in2="hardAlpha" operator="out"/>
<feColorMatrix type="matrix" values="0 0 0 0 0 0 0 0 0 0 0 0 0 0 0 0 0 0 0.25 0"/>
<feBlend mode="normal" in2="BackgroundImageFix" result="effect1_dropShadow_22_349"/>
<feBlend mode="normal" in="SourceGraphic" in2="effect1_dropShadow_22_349" result="shape"/>
</filter>
</defs>
</svg>
