<svg width="393" height="393" viewBox="0 0 393 393" fill="none" xmlns="http://www.w3.org/2000/svg">
<g filter="url(#filter0_d_22_348)">
<circle cx="194.5" cy="194.5" r="172.5" fill="white"/>
</g>
<circle cx="195" cy="195" r="143" stroke="#BB54F1" stroke-width="18"/>
<path d="M133 131.19V146.381H139.329C144.773 146.381 145.659 146.761 145.659 148.913C145.659 151.065 144.773 151.444 139.329 151.444H133V166.635V181.825H139.329C144.773 181.825 145.659 182.205 145.659 184.357C145.659 186.509 144.773 186.889 139.329 186.889H133V202.079V217.27H139.329C144.773 217.27 145.659 217.649 145.659 219.801C145.659 221.953 144.773 222.333 139.329 222.333H133V236.258V250.182H158.317C182.749 250.182 183.635 250.056 183.635 247.65C183.635 245.245 182.749 245.119 160.849 245.119H138.063V236.258V227.396H160.849C182.749 227.396 183.635 227.27 183.635 224.865C183.635 222.46 182.749 222.333 167.178 222.333C151.608 222.333 150.722 222.206 150.722 219.801C150.722 217.396 151.608 217.27 169.71 217.27C187.812 217.27 188.698 217.143 188.698 214.738C188.698 212.333 187.812 212.206 163.381 212.206H138.063V202.079V191.952H186.166C217.433 191.952 234.269 192.459 234.269 193.218C234.269 193.851 235.409 194.484 236.801 194.484C238.827 194.484 239.333 193.598 239.333 190.686C239.333 187.015 239.206 186.889 233.004 186.889C227.56 186.889 226.674 186.509 226.674 184.357C226.674 182.205 227.56 181.825 233.004 181.825H239.333V166.635V151.444H233.004C227.56 151.444 226.674 151.065 226.674 148.913C226.674 146.761 227.56 146.381 233.004 146.381H239.333V131.19V116H186.166H133V131.19ZM234.269 131.19V141.317H186.166H138.063V131.19V121.064H186.166H234.269V131.19ZM221.611 148.913C221.611 151.444 220.725 151.444 186.166 151.444C151.608 151.444 150.722 151.444 150.722 148.913C150.722 146.381 151.608 146.381 186.166 146.381C220.725 146.381 221.611 146.381 221.611 148.913ZM234.269 166.635V176.762H186.166H138.063V166.635V156.508H186.166H234.269V166.635ZM221.611 184.357C221.611 186.889 220.725 186.889 186.166 186.889C151.608 186.889 150.722 186.889 150.722 184.357C150.722 181.825 151.608 181.825 186.166 181.825C220.725 181.825 221.611 181.825 221.611 184.357Z" fill="#7060FE"/>
<path d="M224.396 199.8C223.51 200.687 222.877 203.218 222.877 205.37C222.877 208.282 222.244 209.674 220.472 210.307C219.079 210.687 215.915 212.459 213.383 214.231C209.079 217.143 208.319 217.269 204.269 215.75C200.091 214.231 199.711 214.358 196.8 217.649C193.002 222.08 193.002 222.586 196.8 227.017C199.585 230.434 199.838 231.194 198.572 236.004C197.559 240.308 196.547 241.448 192.876 242.713C188.825 243.979 188.572 244.359 188.952 249.296C189.331 254.359 189.584 254.613 194.395 255.752C198.699 256.765 200.091 257.904 203.509 263.853C207.433 270.309 207.56 271.195 206.167 275.626C204.901 280.057 205.028 280.689 207.813 282.968C211.737 286.259 213.383 286.259 218.193 282.588C224.269 278.031 230.219 279.297 232.751 285.753C234.649 290.816 236.548 291.576 242.751 289.93C244.65 289.424 245.662 287.905 246.295 284.614C246.928 280.816 248.194 279.297 252.751 276.512C258.321 273.094 258.448 273.094 263.511 275.12L268.701 277.145L271.739 273.474C275.41 268.917 275.41 268.917 271.613 264.36C268.701 260.815 268.575 260.309 269.967 254.233C271.36 248.41 271.993 247.65 276.55 245.878C281.233 243.979 281.36 243.726 280.727 239.296C279.841 233.979 278.195 232.46 273.258 232.46C271.233 232.46 269.714 231.953 269.714 231.321C269.714 230.814 268.195 228.156 266.423 225.498C263.131 220.687 263.131 220.687 265.41 215.624L267.689 210.56L264.018 207.649C259.334 203.978 259.081 203.978 254.144 207.522C250.22 210.434 249.84 210.434 244.017 208.788C239.08 207.269 237.687 206.256 236.168 202.585C234.649 198.914 233.763 198.281 230.219 198.281C227.814 198.281 225.282 198.914 224.396 199.8ZM249.46 222.839C253.004 225.244 255.663 228.282 257.815 232.84C261.866 241.574 261.739 248.283 257.308 256.638C250.22 270.183 232.497 274.613 219.965 265.879C206.674 256.638 205.028 236.131 216.801 225.244C225.029 217.523 239.839 216.383 249.46 222.839Z" fill="#40D1CE"/>
<path d="M226.421 229.422C216.547 234.738 216.674 253.22 226.674 258.41C231.991 261.195 236.801 260.942 236.801 257.777C236.801 256.258 235.662 254.992 233.763 254.486C229.206 253.346 225.029 248.283 225.029 243.726C225.029 235.624 236.168 230.054 241.612 235.371C243.51 237.397 243.51 237.523 241.485 237.523C237.687 237.523 239.08 242.207 243.637 244.992C249.46 248.663 251.359 248.283 254.397 243.346C258.068 237.397 257.941 234.485 253.89 235.371C251.612 235.751 250.219 235.245 249.333 233.599C246.295 227.902 233.51 225.497 226.421 229.422Z" fill="#7060FE"/>
<defs>
<filter id="filter0_d_22_348" x="0" y="0" width="393" height="393" filterUnits="userSpaceOnUse" color-interpolation-filters="sRGB">
<feFlood flood-opacity="0" result="BackgroundImageFix"/>
<feColorMatrix in="SourceAlpha" type="matrix" values="0 0 0 0 0 0 0 0 0 0 0 0 0 0 0 0 0 0 127 0" result="hardAlpha"/>
<feOffset dx="2" dy="2"/>
<feGaussianBlur stdDeviation="12"/>
<feComposite in2="hardAlpha" operator="out"/>
<feColorMatrix type="matrix" values="0 0 0 0 0 0 0 0 0 0 0 0 0 0 0 0 0 0 0.25 0"/>
<feBlend mode="normal" in2="BackgroundImageFix" result="effect1_dropShadow_22_348"/>
<feBlend mode="normal" in="SourceGraphic" in2="effect1_dropShadow_22_348" result="shape"/>
</filter>
</defs>
</svg>
