<svg xmlns="http://www.w3.org/2000/svg" xml:space="preserve" width="1.70666in" height="1.70666in" version="1.1" style="shape-rendering:geometricPrecision; text-rendering:geometricPrecision; image-rendering:optimizeQuality; fill-rule:evenodd; clip-rule:evenodd" viewBox="0 0 1707 1707" xmlns:xlink="http://www.w3.org/1999/xlink">
 <defs>
  <style type="text/css">
   
    .fil0 {fill:#000002}
   
  </style>
 </defs>
 <g id="Layer_x0020_1">
  <metadata id="CorelCorpID_0Corel-Layer"></metadata>
  <path class="fil0" d="M1369 1045c-186,0 -338,-152 -338,-338 0,-186 152,-338 338,-338 186,0 338,152 338,338 0,186 -152,338 -338,338zm65 -374l1 0 42 0 0 136 -216 0 0 -136 42 0 1 0 0 0 129 0 1 0zm20 -40l0 -33c0,-47 -41,-75 -85,-75 -44,0 -85,28 -85,75l0 33 -43 0c-11,0 -20,9 -20,20l0 176c0,11 9,20 20,20l256 0c11,0 20,-9 20,-20l0 -176c0,-11 -9,-20 -20,-20l-43 0zm-130 0l0 -33c0,-25 24,-35 45,-35 21,0 45,10 45,35l0 33 -90 0z" id="id_113" style="fill: rgb(255, 255, 255);"></path>
  <path class="fil0" d="M1241 1165l-1073 0c-93,0 -168,-75 -168,-168l0 -51 1077 0c69,85 174,138 292,138 5,0 10,0 16,0 -30,49 -83,81 -144,81zm-643 -686c12,0 20,-9 20,-20 0,-11 -8,-20 -20,-20l-371 0c-11,0 -20,9 -20,20 0,11 9,20 20,20l371 0zm209 148c11,0 20,-9 20,-20 0,-11 -9,-20 -20,-20l-580 0c-11,0 -20,9 -20,20 0,11 9,20 20,20l580 0zm107 149c12,0 20,-9 20,-20 0,-11 -8,-20 -20,-20l-687 0c-11,0 -20,9 -20,20 0,11 9,20 20,20l687 0zm-914 130l0 -490c0,-92 75,-167 168,-167l1073 0c61,0 114,32 144,81 -6,-1 -11,-1 -16,-1 -208,0 -378,170 -378,378 0,73 21,141 57,199l-1048 0z" id="id_114" style="fill: rgb(255, 255, 255);"></path>
  <path class="fil0" d="M398 1458c-22,0 -40,-18 -40,-40 0,-22 18,-40 40,-40 47,0 87,-63 87,-138 0,-12 -1,-24 -3,-35l445 0c-2,11 -3,23 -3,35 0,75 40,138 87,138 22,0 40,18 40,40 0,22 -18,40 -40,40 -33,0 -63,-12 -89,-32l-426 -8c-27,25 -61,40 -98,40z" id="id_115" style="fill: rgb(255, 255, 255);"></path>
  <path class="fil0" d="M1113 1458l-817 0c-22,0 -40,-18 -40,-40 0,-22 18,-40 40,-40l817 0c22,0 40,18 40,40 0,22 -18,40 -40,40z" id="id_116" style="fill: rgb(255, 255, 255);"></path>
 </g>
</svg>