<svg version="1.1" id="Layer_1" xmlns="http://www.w3.org/2000/svg" xmlns:xlink="http://www.w3.org/1999/xlink" x="0px" y="0px" viewBox="0 0 27 27" style="enable-background:new 0 0 27 27;" xml:space="preserve">
<g id="shop-star-7_1_">
	<path d="M13,20.5c0-2.827,1.565-5.287,3.876-6.564c-0.728-0.133-1.379-0.482-1.876-0.989c-0.636,0.649-1.522,1.053-2.5,1.053
		c-0.979,0-1.864-0.403-2.5-1.053c-0.636,0.649-1.522,1.053-2.5,1.053c-0.979,0-1.864-0.403-2.5-1.053
		c-0.636,0.649-1.522,1.053-2.5,1.053c-0.539,0-1.043-0.133-1.5-0.351V25H0v1h15.413C13.933,24.63,13,22.676,13,20.5z M11,21H5v-4h6
		V21z" id="id_101" style="fill: rgb(255, 255, 255);"></path>
	<line x1="20.999" y1="3" x2="21" y2="3" id="id_102" style="fill: rgb(255, 255, 255);"></line>
	<line x1="4" y1="3" x2="4.001" y2="3" id="id_103" style="fill: rgb(255, 255, 255);"></line>
	<rect x="4.001" width="16.998" height="3" id="id_104" style="fill: rgb(255, 255, 255);"></rect>
	<polygon points="21.801,4 3.199,4 0.799,7 24.201,7 	" id="id_105" style="fill: rgb(255, 255, 255);"></polygon>
	<path d="M2.5,12.999c1.381,0,2.5-1.119,2.5-2.5c0,1.381,1.119,2.5,2.5,2.5c1.381,0,2.5-1.119,2.5-2.5c0,1.381,1.119,2.5,2.5,2.5
		c1.381,0,2.5-1.119,2.5-2.5c0,1.381,1.119,2.5,2.5,2.5c1.381,0,2.5-1.119,2.5-2.5c0,1.381,1.119,2.5,2.5,2.5
		c1.381,0,2.5-1.119,2.5-2.5V8H0v2.499C0,11.88,1.119,12.999,2.5,12.999z" id="id_106" style="fill: rgb(255, 255, 255);"></path>
	<path d="M20.5,14c-3.59,0-6.5,2.91-6.5,6.5s2.91,6.5,6.5,6.5c3.59,0,6.5-2.91,6.5-6.5S24.09,14,20.5,14z M22.23,21.078l1.048,3.266
		L20.5,22.336l-2.783,2.008l1.051-3.266L16,19h3.43l1.07-3.215L21.568,19H25L22.23,21.078z" id="id_107" style="fill: rgb(255, 255, 255);"></path>
</g>
</svg>