<svg xmlns="http://www.w3.org/2000/svg" viewBox="0 0 64 64"><g id="Layer_28" data-name="Layer 28"><path d="M61,18.63c-.49-5.22-8.13-5-8.28.23l-.8,12.05a4,4,0,0,0-5.7,1.82l-2.56,6a2,2,0,0,1-.58.75L37.6,43.91a4,4,0,0,0-1.16,1.52l-3.53,8.24A1,1,0,0,0,33.44,55l13.85,5.94h0a1,1,0,0,0,1.32-.53l1.21-2.82a11.31,11.31,0,0,1,3.3-4.29l5-6A7.77,7.77,0,0,0,61,40.71Zm-4.2,27.12-.15.15-5,6a15.13,15.13,0,0,0-4.49,6.76l-12-5.15,3.13-7.32a2.11,2.11,0,0,1,.57-.75L44.35,41A4,4,0,0,0,45.5,39.5l2.57-6a2,2,0,0,1,3.64,1.56l-4,9.23a1,1,0,0,0,1.84.79l4-9.24a3.9,3.9,0,0,0,.21-2.43l1-14.5A2.15,2.15,0,0,1,59,18.7l0,22.08A5.83,5.83,0,0,1,56.81,45.75Z" id="id_101" style="fill: rgb(255, 255, 255);"></path><path d="M31.07,53.67l-3.53-8.24a3.92,3.92,0,0,0-1.15-1.52l-5.5-4.44a1.9,1.9,0,0,1-.57-.75l-2.57-6a4,4,0,0,0-5.69-1.82l-.81-12A4.14,4.14,0,0,0,3,18.71L3,40.64a7.8,7.8,0,0,0,2.85,6.61l5,6a11.24,11.24,0,0,1,3.31,4.29l1.21,2.82a1,1,0,0,0,1.31.53h0L30.54,55A1,1,0,0,0,31.07,53.67ZM12.33,51.93l-5-6A6,6,0,0,1,5,40.71L5,18.78A2.14,2.14,0,0,1,9.25,19l1,14.43a4,4,0,0,0,.21,2.43l4,9.24a1,1,0,0,0,1.84-.79l-4-9.23a2,2,0,0,1,3.64-1.56l2.57,6A4,4,0,0,0,19.63,41l5.5,4.44a1.9,1.9,0,0,1,.57.75l3.14,7.32-12,5.15A15,15,0,0,0,12.33,51.93Z" id="id_102" style="fill: rgb(255, 255, 255);"></path><path d="M46.29,22.42C55.71,12.51,43.58-2.31,32,4.88,20.43-2.36,8.32,12.53,17.71,22.42L31.29,36a1,1,0,0,0,1.09.22,2.37,2.37,0,0,0,.33-.22ZM18.21,19.94c-4.55-6,0-15.07,7.55-14.94a9.38,9.38,0,0,1,5.69,1.92,1.08,1.08,0,0,0,.74.15c6.35-4.71,15.32-.78,15.43,7.31A9.25,9.25,0,0,1,44.87,21L32,33.88,19.13,21A8.82,8.82,0,0,1,18.21,19.94Z" id="id_103" style="fill: rgb(255, 255, 255);"></path><path d="M38.23,9a5.39,5.39,0,0,1,5.39,5.37,1,1,0,0,0,2,0A7.4,7.4,0,0,0,38.23,7a1,1,0,0,0,0,2Z" id="id_104" style="fill: rgb(255, 255, 255);"></path></g></svg>