<svg width="48" height="48" viewBox="0 0 48 48" fill="none" xmlns="http://www.w3.org/2000/svg">
<path d="M43 22H42V8.5C42 7.83696 41.7366 7.20107 41.2678 6.73223C40.7989 6.26339 40.163 6 39.5 6C38.837 6 38.2011 6.26339 37.7322 6.73223C37.2634 7.20107 37 7.83696 37 8.5V22H11V8.5C11 7.83696 10.7366 7.20107 10.2678 6.73223C9.79893 6.26339 9.16304 6 8.5 6C7.83696 6 7.20107 6.26339 6.73223 6.73223C6.26339 7.20107 6 7.83696 6 8.5V22H5C4.20435 22 3.44129 22.3161 2.87868 22.8787C2.31607 23.4413 2 24.2044 2 25V35C2 35.7956 2.31607 36.5587 2.87868 37.1213C3.44129 37.6839 4.20435 38 5 38V40C5 40.5304 5.21071 41.0391 5.58579 41.4142C5.96086 41.7893 6.46957 42 7 42H9C9.53043 42 10.0391 41.7893 10.4142 41.4142C10.7893 41.0391 11 40.5304 11 40V38H37V40C37 40.5304 37.2107 41.0391 37.5858 41.4142C37.9609 41.7893 38.4696 42 39 42H41C41.5304 42 42.0391 41.7893 42.4142 41.4142C42.7893 41.0391 43 40.5304 43 40V38C43.7956 38 44.5587 37.6839 45.1213 37.1213C45.6839 36.5587 46 35.7956 46 35V25C46 24.2044 45.6839 23.4413 45.1213 22.8787C44.5587 22.3161 43.7956 22 43 22ZM39 8.5C39 8.36739 39.0527 8.24021 39.1464 8.14645C39.2402 8.05268 39.3674 8 39.5 8C39.6326 8 39.7598 8.05268 39.8536 8.14645C39.9473 8.24021 40 8.36739 40 8.5V22H39V8.5ZM8 8.5C8 8.36739 8.05268 8.24021 8.14645 8.14645C8.24021 8.05268 8.36739 8 8.5 8C8.63261 8 8.75979 8.05268 8.85355 8.14645C8.94732 8.24021 9 8.36739 9 8.5V22H8V8.5ZM9 40H7V38H9V40ZM41 40H39V38H41V40ZM44 35C44 35.2652 43.8946 35.5196 43.7071 35.7071C43.5196 35.8946 43.2652 36 43 36H5C4.73478 36 4.48043 35.8946 4.29289 35.7071C4.10536 35.5196 4 35.2652 4 35V25C4 24.7348 4.10536 24.4804 4.29289 24.2929C4.48043 24.1054 4.73478 24 5 24H43C43.2652 24 43.5196 24.1054 43.7071 24.2929C43.8946 24.4804 44 24.7348 44 25V35Z" fill="#ffffff" id="id_114"></path>
<path d="M16 26H7C6.73478 26 6.48043 26.1054 6.29289 26.2929C6.10536 26.4804 6 26.7348 6 27C6 27.2652 6.10536 27.5196 6.29289 27.7071C6.48043 27.8946 6.73478 28 7 28H16C16.2652 28 16.5196 27.8946 16.7071 27.7071C16.8946 27.5196 17 27.2652 17 27C17 26.7348 16.8946 26.4804 16.7071 26.2929C16.5196 26.1054 16.2652 26 16 26Z" fill="#ffffff" id="id_115"></path>
<path d="M41 28C41.5523 28 42 27.5523 42 27C42 26.4477 41.5523 26 41 26C40.4477 26 40 26.4477 40 27C40 27.5523 40.4477 28 41 28Z" fill="#ffffff" id="id_116"></path>
<path d="M38 28C38.5523 28 39 27.5523 39 27C39 26.4477 38.5523 26 38 26C37.4477 26 37 26.4477 37 27C37 27.5523 37.4477 28 38 28Z" fill="#ffffff" id="id_117"></path>
<path d="M35 28C35.5523 28 36 27.5523 36 27C36 26.4477 35.5523 26 35 26C34.4477 26 34 26.4477 34 27C34 27.5523 34.4477 28 35 28Z" fill="#ffffff" id="id_118"></path>
<path d="M17 12.73C17.1628 12.7302 17.3232 12.6903 17.467 12.614C19.4815 11.554 21.7236 11 24 11C26.2764 11 28.5185 11.554 30.533 12.614C30.6493 12.6787 30.7774 12.7195 30.9098 12.734C31.0421 12.7485 31.176 12.7365 31.3036 12.6986C31.4312 12.6607 31.5499 12.5977 31.6529 12.5133C31.7558 12.4289 31.8409 12.3248 31.9031 12.2071C31.9652 12.0894 32.0033 11.9604 32.015 11.8278C32.0267 11.6952 32.0118 11.5616 31.9712 11.4349C31.9306 11.3081 31.865 11.1907 31.7785 11.0896C31.6919 10.9885 31.586 10.9057 31.467 10.846C29.1646 9.63359 26.6016 9.00002 23.9995 9.00002C21.3974 9.00002 18.8344 9.63359 16.532 10.846C16.3345 10.9504 16.1777 11.1179 16.0866 11.3218C15.9954 11.5258 15.9751 11.7543 16.029 11.9711C16.0828 12.1879 16.2077 12.3804 16.3837 12.5179C16.5597 12.6554 16.7766 12.7301 17 12.73Z" fill="#ffffff" id="id_119"></path>
<path d="M28.5 15.96C28.7292 15.9605 28.9515 15.8822 29.1299 15.7383C29.3083 15.5944 29.4318 15.3936 29.4798 15.1696C29.5279 14.9455 29.4975 14.7117 29.3937 14.5074C29.29 14.303 29.1192 14.1405 28.91 14.047C27.3651 13.3567 25.6921 13 24 13C22.3079 13 20.6349 13.3567 19.09 14.047C18.848 14.1557 18.6591 14.3562 18.5649 14.6042C18.4706 14.8522 18.4788 15.1275 18.5875 15.3695C18.6962 15.6115 18.8967 15.8004 19.1447 15.8946C19.3927 15.9889 19.668 15.9807 19.91 15.872C21.1976 15.2999 22.591 15.0043 24 15.0043C25.409 15.0043 26.8024 15.2999 28.09 15.872C28.2189 15.93 28.3586 15.96 28.5 15.96Z" fill="#ffffff" id="id_120"></path>
<path d="M21.715 17.332C21.4625 17.4091 21.2508 17.5828 21.1259 17.8154C21.0011 18.0479 20.9732 18.3204 21.0484 18.5734C21.1237 18.8264 21.2959 19.0395 21.5275 19.166C21.7592 19.2926 22.0314 19.3224 22.285 19.249C23.4042 18.919 24.5948 18.919 25.714 19.249C25.8402 19.2875 25.9727 19.3007 26.104 19.2878C26.2353 19.2748 26.3628 19.236 26.479 19.1736C26.5953 19.1112 26.698 19.0264 26.7813 18.9241C26.8646 18.8218 26.9269 18.704 26.9645 18.5776C27.0021 18.4511 27.0143 18.3185 27.0004 18.1873C26.9865 18.0561 26.9468 17.9289 26.8835 17.8131C26.8203 17.6974 26.7347 17.5952 26.6318 17.5127C26.529 17.4301 26.4107 17.3687 26.284 17.332C24.7927 16.8925 23.2063 16.8925 21.715 17.332V17.332Z" fill="#ffffff" id="id_121"></path>
</svg>