<svg width="393" height="393" viewBox="0 0 393 393" fill="none" xmlns="http://www.w3.org/2000/svg">
<g filter="url(#filter0_d_22_351)">
<circle cx="194.5" cy="194.5" r="172.5" fill="white"/>
</g>
<circle cx="195" cy="195" r="143" stroke="#BB54F1" stroke-width="18"/>
<path d="M182.735 98.6315C181.562 98.902 180.48 99.8941 180.21 100.976C180.029 102.059 179.308 105.125 178.676 107.83L177.504 112.7L170.289 114.414L163.074 116.127L160.369 113.151C158.836 111.528 156.851 109.003 155.769 107.56L153.966 105.035L147.021 107.921C143.233 109.454 140.077 111.348 140.077 111.979C140.077 112.7 140.708 115.947 141.52 119.374L142.963 125.507L138.093 129.746C135.477 132.09 132.592 134.255 131.78 134.525C130.968 134.796 127.812 133.804 124.836 132.271C121.859 130.828 118.883 129.565 118.162 129.565C117.531 129.565 115.005 132.181 112.66 135.427L108.332 141.379L112.48 146.7C114.735 149.586 116.629 152.202 116.629 152.563C116.629 152.833 115.366 156.17 113.833 159.777L111.037 166.451L103.732 166.722L96.3369 166.992L95.1645 170.6C94.5332 172.584 93.7215 175.83 93.4509 177.905L93 181.692L99.4032 184.669L105.806 187.645V195.311V203.067L99.8541 206.133C96.6074 207.846 93.7215 209.83 93.4509 210.462C93.1804 211.183 93.5411 214.52 94.1724 217.767L95.435 223.809L102.83 224.26C106.979 224.531 110.676 225.162 111.037 225.613C111.939 226.605 116.629 237.517 116.629 238.6C116.629 238.96 114.825 241.576 112.57 244.462C107.971 250.414 107.971 250.143 114.194 257.178L118.252 261.687L124.565 258.621C131.78 255.104 131.239 255.013 139.085 261.868L143.053 265.385L141.52 272.059C140.077 278.732 140.077 278.822 142.061 280.265C143.143 281.077 146.21 282.7 148.915 283.873L153.875 285.857L156.22 283.242C157.483 281.799 159.557 279.273 160.82 277.65L163.074 274.674L170.109 276.207C174.347 277.109 177.414 278.372 177.865 279.183C178.316 279.995 179.127 283.061 179.759 286.037C181.021 292.08 181.653 292.801 185.891 292.801H188.777V269.353V245.905H184.178C178.586 245.905 167.313 242.207 161.541 238.6C151.531 232.196 141.881 218.578 139.265 207.035C137.912 201.173 138.093 188.366 139.626 182.504C144.857 162.212 165.509 144.897 184.448 144.897H188.777V121.448V98.0002L186.793 98.0904C185.621 98.1805 183.817 98.4511 182.735 98.6315Z" fill="#7060FE"/>
<path d="M195.09 110.716V123.433L197.164 122.892C198.247 122.621 203.026 122.35 207.716 122.35H216.284L219.801 116.939L223.228 111.528H229.451C234.411 111.528 236.666 111.979 240.093 113.873C244.241 116.037 244.692 116.037 247.668 114.775C249.562 114.053 251.456 112.34 252.358 110.716C253.621 108.191 253.621 107.65 252.358 105.215C249.472 99.6236 242.708 98.2708 238.83 102.51C237.387 104.043 236.034 104.313 229 104.313H220.793L216.915 110.175L213.127 116.037H207.716H202.305V107.019V98.0002H198.698H195.09V110.716Z" fill="#40D1CE"/>
<path d="M259.122 128.392C258.401 128.663 256.597 129.926 255.244 131.098L252.629 133.172L226.114 132.631L199.6 132V143.724V155.448L189.769 156.079L179.939 156.801L179.398 159.507C179.127 161.04 178.857 164.647 178.857 167.533V172.854H182.013H185.17V167.894V162.934H195.992H206.814V151.209V139.485H229.812H252.809L257.048 141.83C260.746 143.814 261.738 143.995 263.812 143.183C266.878 142.01 270.125 136.96 269.403 134.525C269.133 133.533 267.69 131.639 266.247 130.196C263.631 127.851 261.918 127.4 259.122 128.392Z" fill="#40D1CE"/>
<path d="M217.907 157.252C218.268 160.679 218.538 171.592 218.538 181.512V199.73L221.695 200.09L224.851 200.451V178.987V157.523H230.984L237.026 157.613L241.987 163.655C247.668 170.419 248.841 170.87 261.016 170.96C266.517 171.051 268.411 171.411 270.215 172.854C275.355 176.913 282.931 173.395 282.931 166.992C282.931 164.377 282.3 163.114 280.406 161.491C277.249 158.695 273.822 158.785 269.944 161.581C267.148 163.655 266.066 163.836 258.22 163.836H249.652L244.692 157.523L239.732 151.21H228.549H217.366L217.907 157.252Z" fill="#40D1CE"/>
<path d="M166.231 196.213V211.634H162.804C158.926 211.634 157.212 212.897 157.212 215.873C157.212 217.857 157.483 217.947 164.427 217.947H171.642V203.067V188.186H187.875H204.109V201.714V215.242H221.244H238.379V206.674V198.106H259.934C281.217 198.106 281.488 198.106 285.366 200.361C290.416 203.247 291.138 203.157 294.385 200C296.459 197.926 297 196.573 297 193.687C297 190.441 296.639 189.719 294.114 188.186C290.146 185.751 287.801 185.931 284.464 188.637L281.759 190.982L256.958 191.523L232.066 192.064V200.541V209.019L221.515 208.748L210.873 208.478L210.602 195.13L210.332 181.873H191.663C181.382 181.873 171.461 181.602 169.658 181.332L166.231 180.701V196.213Z" fill="#40D1CE"/>
<path d="M185.711 199.189C185.44 200.361 185.17 208.658 185.17 217.677V234.181H193.647H202.035L202.486 244.552C202.756 250.324 203.297 255.284 203.658 255.645C203.929 256.006 214.841 256.456 227.828 256.547C251.096 256.907 251.456 256.907 255.244 259.162C259.483 261.597 261.738 261.417 265.255 258.26C268.231 255.555 267.96 250.955 264.624 247.618C261.377 244.372 257.769 244.191 254.703 247.167C252.358 249.242 252.088 249.332 230.714 249.602L209.069 249.963L208.799 239.502L208.528 229.04L203.838 228.409C201.223 228.138 197.706 227.868 195.812 227.868H192.565L191.934 212.536L191.212 197.204H188.777C186.974 197.204 186.162 197.746 185.711 199.189Z" fill="#40D1CE"/>
<path d="M269.854 214.791C267.96 216.775 266.517 217.135 260.114 217.676L252.719 218.218L249.202 223.268C247.308 226.064 245.233 228.86 244.512 229.491C243.7 230.122 238.65 230.573 230.623 230.753L218.088 231.024L217.817 233.459L217.546 235.984H224.671C228.549 235.984 235.403 236.255 239.822 236.525L247.849 237.066L251.727 230.753C255.154 225.342 256.056 224.44 258.851 223.989C263.09 223.268 267.149 224.08 270.305 226.334C276.077 230.393 282.57 227.146 282.57 220.111C282.57 217.045 282.119 215.873 280.225 214.43C276.889 211.814 272.74 211.995 269.854 214.791Z" fill="#40D1CE"/>
<path d="M195.721 268.181C195.361 268.451 195.09 274.133 195.09 280.807V292.801H198.247H201.403V283.242V273.682L206.273 274.043C210.422 274.403 211.865 275.035 215.382 278.011C223.138 284.594 224.942 285.586 229.09 285.586C231.976 285.586 233.96 286.218 236.034 287.841C240.003 290.907 243.7 290.727 246.766 287.57C253.891 280.085 244.061 270.616 235.493 276.658C233.87 277.83 231.435 278.642 229.27 278.642C226.204 278.642 224.851 277.83 219.53 273.051L213.308 267.549H204.83C200.14 267.549 195.992 267.82 195.721 268.181Z" fill="#40D1CE"/>
<defs>
<filter id="filter0_d_22_351" x="0" y="0" width="393" height="393" filterUnits="userSpaceOnUse" color-interpolation-filters="sRGB">
<feFlood flood-opacity="0" result="BackgroundImageFix"/>
<feColorMatrix in="SourceAlpha" type="matrix" values="0 0 0 0 0 0 0 0 0 0 0 0 0 0 0 0 0 0 127 0" result="hardAlpha"/>
<feOffset dx="2" dy="2"/>
<feGaussianBlur stdDeviation="12"/>
<feComposite in2="hardAlpha" operator="out"/>
<feColorMatrix type="matrix" values="0 0 0 0 0 0 0 0 0 0 0 0 0 0 0 0 0 0 0.25 0"/>
<feBlend mode="normal" in2="BackgroundImageFix" result="effect1_dropShadow_22_351"/>
<feBlend mode="normal" in="SourceGraphic" in2="effect1_dropShadow_22_351" result="shape"/>
</filter>
</defs>
</svg>
