<svg width="17" height="17" viewBox="0 0 17 17" fill="none" xmlns="http://www.w3.org/2000/svg">
<path d="M0 1.88889V15.1111C0 16.15 0.840556 17 1.88889 17H7.55556V0H1.88889C0.840556 0 0 0.85 0 1.88889ZM5.66667 15.1111H1.88889V1.88889H5.66667V15.1111Z" fill="#C1C1C1"/>
<path d="M15.1111 0H9.44446V7.55556H17V1.88889C17 0.85 16.15 0 15.1111 0ZM15.1111 5.66667H11.3333V1.88889H15.1111V5.66667Z" fill="#C1C1C1"/>
<path d="M9.44446 17H15.1111C16.15 17 17 16.15 17 15.1111V9.4444H9.44446V17ZM11.3333 11.3333H15.1111V15.1111H11.3333V11.3333Z" fill="#C1C1C1"/>
</svg>
