<?xml version="1.0" encoding="UTF-8"?>
<svg xmlns="http://www.w3.org/2000/svg" xmlns:xlink="http://www.w3.org/1999/xlink" width="907.8pt" height="1000.03pt" viewBox="0 0 907.8 1000.03" version="1.1">
<defs>
<clipPath id="clip1">
  <path d="M 0 931 L 907.800781 931 L 907.800781 1000.03125 L 0 1000.03125 Z M 0 931 "/>
</clipPath>
</defs>
<g id="surface1">
<g clip-path="url(#clip1)" clip-rule="nonzero">
<path style=" stroke:none;fill-rule:nonzero;fill:rgb(0%,0%,0%);fill-opacity:1;" d="M 541.992188 975.15625 L 555.871094 943.9375 L 569.75 975.15625 Z M 550.15625 932.871094 L 520.703125 998.511719 L 531.855469 998.511719 L 538.042969 984.734375 L 573.578125 984.734375 L 579.855469 998.511719 L 591.007813 998.511719 L 561.5625 932.871094 Z M 481.21875 939.125 L 481.21875 979.570313 L 443.996094 932.871094 L 435.933594 932.871094 L 435.933594 998.511719 L 440.28125 998.511719 C 443.734375 998.511719 446.535156 995.710938 446.535156 992.253906 L 446.535156 952.1875 L 483.753906 998.523438 L 491.71875 998.523438 L 491.71875 932.882813 L 487.472656 932.882813 C 484.023438 932.882813 481.222656 935.675781 481.21875 939.125 Z M 653.933594 963.714844 L 632.277344 932.960938 L 620.085938 932.960938 L 620.085938 998.597656 L 624.335938 998.597656 C 627.789063 998.597656 630.589844 995.796875 630.589844 992.34375 L 630.589844 948.214844 L 652.652344 979.25 L 654.859375 979.25 L 677.175781 948.214844 L 677.175781 998.566406 L 681.421875 998.566406 C 684.878906 998.566406 687.679688 995.765625 687.679688 992.3125 L 687.679688 932.972656 L 675.542969 932.972656 Z M 724.105469 939.125 L 724.105469 998.511719 L 728.265625 998.511719 C 731.71875 998.511719 734.519531 995.710938 734.519531 992.253906 L 734.519531 932.871094 L 730.304688 932.871094 C 726.871094 932.902344 724.105469 935.695313 724.105469 939.125 Z M 881.441406 959.402344 C 872.8125 958.191406 865.5 956.402344 865.5 950.027344 C 865.5 943.648438 871.875 940.097656 880.691406 940.097656 C 887.53125 940.195313 893.820313 942.910156 896.90625 947.410156 L 904.882813 942.0625 C 899.367188 933.234375 889.878906 931.03125 880.414063 931.03125 C 868.601563 931.03125 855.042969 936.28125 855.097656 949.871094 C 855.097656 963.9375 867.476563 967.214844 880.46875 969 C 889.660156 970.226563 897.25 972.652344 897.25 979.78125 C 897.25 988.03125 888.535156 990.65625 880.703125 990.65625 C 873.113281 990.65625 864.949219 987.84375 860.261719 979.878906 L 852.382813 985.128906 C 858.382813 996.160156 868.039063 1000.03125 880.601563 1000.03125 C 894.292969 1000.03125 907.695313 994.519531 907.796875 979.777344 C 907.894531 965.039063 894.898438 961.277344 881.441406 959.402344 Z M 375.523438 961.851563 L 357.429688 932.871094 L 344.996094 932.871094 L 344.996094 933.347656 L 370.316406 971.605469 L 370.316406 998.511719 L 374.5625 998.511719 C 378.015625 998.511719 380.816406 995.710938 380.816406 992.253906 L 380.816406 971.59375 L 406.886719 933.335938 L 406.886719 932.859375 L 394.234375 932.859375 Z M 800.910156 941.6875 C 807.277344 941.679688 813.382813 944.210938 817.875 948.726563 L 825.035156 941.566406 C 811.714844 928.226563 790.101563 928.214844 776.765625 941.535156 C 763.429688 954.859375 763.414063 976.46875 776.738281 989.808594 C 790.058594 1003.148438 811.667969 1003.160156 825.007813 989.835938 C 825.015625 989.824219 825.027344 989.816406 825.035156 989.808594 L 817.875 982.648438 C 808.511719 992.03125 793.3125 992.046875 783.925781 982.683594 C 774.542969 973.320313 774.527344 958.121094 783.890625 948.734375 C 788.402344 944.214844 794.523438 941.679688 800.910156 941.6875 Z M 291.648438 988.382813 L 277.195313 988.382813 L 277.195313 942.898438 L 291.636719 942.898438 C 307.082031 942.898438 313.855469 953.933594 314.140625 965.03125 C 314.40625 976.570313 307.675781 988.382813 291.636719 988.382813 Z M 291.648438 932.871094 L 266.792969 932.871094 L 266.792969 998.511719 L 291.636719 998.511719 C 314.605469 998.511719 324.917969 981.730469 324.542969 965.128906 C 324.269531 948.902344 314.054688 932.871094 291.636719 932.871094 Z M 21.28125 975.15625 L 35.160156 943.9375 L 49.035156 975.15625 Z M 29.433594 932.871094 L 0 998.511719 L 11.152344 998.511719 L 17.34375 984.734375 L 52.875 984.734375 L 59.164063 998.511719 L 70.316406 998.511719 L 40.871094 932.871094 Z M 213.453125 968.691406 L 193.597656 968.691406 L 193.597656 942.4375 L 213.453125 942.4375 C 230.707031 942.4375 230.808594 968.691406 213.453125 968.691406 Z M 213.453125 932.785156 C 203.425781 932.785156 193.113281 932.871094 183.074219 932.871094 L 183.074219 998.511719 L 187.320313 998.511719 C 190.773438 998.511719 193.574219 995.710938 193.574219 992.253906 L 193.574219 978.332031 L 213.433594 978.332031 C 244.90625 978.15625 244.773438 932.785156 213.453125 932.785156 Z M 129.746094 968.691406 L 109.886719 968.691406 L 109.886719 942.4375 L 129.746094 942.4375 C 147 942.4375 147.085938 968.691406 129.746094 968.691406 Z M 129.746094 932.785156 C 119.71875 932.785156 109.402344 932.871094 99.363281 932.871094 L 99.363281 998.511719 L 103.609375 998.511719 C 107.066406 998.511719 109.867188 995.710938 109.867188 992.253906 L 109.867188 978.332031 L 129.722656 978.332031 C 161.152344 978.15625 161.0625 932.785156 129.746094 932.785156 "/>
</g>
<path style=" stroke:none;fill-rule:nonzero;fill:rgb(0%,0%,0%);fill-opacity:1;" d="M 801.351563 747.769531 L 797.09375 737.101563 L 794.089844 737.101563 L 794.089844 753.285156 L 796.972656 753.285156 L 796.972656 743.027344 L 800.5 751.785156 L 802.199219 751.785156 L 805.730469 743.027344 L 805.730469 753.285156 L 808.632813 753.285156 L 808.632813 737.113281 L 805.628906 737.113281 Z M 779.71875 739.539063 L 783.976563 739.539063 L 783.976563 753.285156 L 786.855469 753.285156 L 786.855469 739.496094 L 791.113281 739.496094 L 791.113281 737.058594 L 779.71875 737.058594 Z M 384.722656 0 C 349.363281 -0.0390625 314.125 4.214844 279.789063 12.664063 L 344.414063 157.910156 C 357.761719 156.019531 371.230469 155.070313 384.710938 155.0625 C 541.363281 155.0625 668.285156 282.019531 668.285156 438.636719 C 668.382813 522.769531 631.035156 602.585938 566.371094 656.414063 L 631.019531 801.605469 C 747.105469 722.738281 823.359375 589.640625 823.359375 438.65625 C 823.347656 196.410156 626.949219 0 384.722656 0 Z M 313.402344 468.773438 L 202.984375 220.921875 C 138.332031 274.738281 100.980469 354.527344 101.0625 438.648438 C 101.0625 595.296875 228.070313 722.285156 384.699219 722.285156 C 398.164063 722.28125 411.613281 721.332031 424.945313 719.441406 L 314.890625 472.21875 C 314.40625 471.046875 313.867188 469.945313 313.402344 468.773438 "/>
</g>
</svg>
