<svg xmlns="http://www.w3.org/2000/svg" enable-background="new 0 0 24 24" viewBox="0 0 24 24" id="asana"><ellipse cx="5.22" cy="17.824" fill="#EF5350" rx="5.22" ry="5.176"></ellipse><ellipse cx="18.78" cy="17.824" fill="#EF5350" rx="5.22" ry="5.176"></ellipse><path fill="#EF5350" d="M12,11.353c2.883,0,5.22-2.318,5.22-5.177C17.22,3.32,14.883,1,12,1C9.118,1,6.78,3.32,6.78,6.176C6.78,9.035,9.118,11.353,12,11.353L12,11.353z"></path><path fill="#D04846" d="M12 1C9.118 1 6.78 3.32 6.78 6.176c0 2.859 2.338 5.177 5.22 5.177l0 0V1L12 1 12 1zM5.22 12.647c-2.882 0-5.22 2.32-5.22 5.176C0 20.682 2.338 23 5.22 23l0 0V12.647L5.22 12.647 5.22 12.647zM18.78 12.647c-2.882 0-5.22 2.32-5.22 5.176 0 2.859 2.338 5.177 5.22 5.177l0 0V12.647L18.78 12.647 18.78 12.647z"></path></svg>