<?xml version="1.0" ?><!DOCTYPE svg  PUBLIC '-//W3C//DTD SVG 1.1//EN'  'http://www.w3.org/Graphics/SVG/1.1/DTD/svg11.dtd'><svg height="512px" style="enable-background:new 0 0 512 512;" version="1.1" viewBox="0 0 512 512" width="512px" xml:space="preserve" xmlns="http://www.w3.org/2000/svg" xmlns:xlink="http://www.w3.org/1999/xlink"><g id="_x33_7-basecamp"><g><path d="M256,51.705c123.82,0,220.83,159.91,230,295c-38.84,68.43-132.57,113.59-230,113.59    s-191.16-45.16-230-113.59C35.17,211.615,132.17,51.705,256,51.705z M454,320.295c0,0-15.59-49.56-54.66-100.69    c-20.67-27.08-45.699-55.35-65.34-67.31c-6.17-3.76-11.8-5.91-16.6-5.91c-20.09,0-76.24,100.92-102,100.92    c-25.76,0-39.16-45.95-70.84-45.75c-10.79,0.06-21.52,8.16-31.56,20.27c-30.09,36.331-53.88,108.76-53.88,108.76    S85,425.295,264,420.295C439.57,415.395,454,320.295,454,320.295z" style="fill:#B9DDF6;"/><path d="M399.34,219.605c39.07,51.13,54.66,100.69,54.66,100.69s-14.43,95.1-190,100    c-179,5-204.88-89.71-204.88-89.71s23.79-72.43,53.88-108.76l2.12,0.14c20.16,0.69,45.17,36.85,52.27,52.67    c3.95,8.8,9.57,20.3,17.75,29.62c8.17,9.31,18.92,16.42,33.13,16.42c35.2,0,109.621-130.03,115.52-168.05l0.21-0.33    C353.641,164.255,378.67,192.525,399.34,219.605z M344.061,353.814c0-7.38-5.9-13.369-13.17-13.369    c-7.271,0-13.17,5.989-13.17,13.369c0,7.391,5.899,13.381,13.17,13.381C338.16,367.195,344.061,361.195,344.061,353.814z     M194.42,353.814c0-7.46-5.96-13.52-13.32-13.52c-7.35,0-13.32,6.05-13.32,13.52c0,7.48,5.97,13.53,13.32,13.53    C188.46,367.345,194.42,361.295,194.42,353.814z" style="fill:#6FC167;"/><path d="M334,152.295l-0.21,0.33c-5.899,38.02-80.32,168.05-115.52,168.05c-14.21,0-24.96-7.11-33.13-16.42    c-8.18-9.32-13.8-20.82-17.75-29.62c-7.1-15.82-32.11-51.98-52.27-52.67l-2.12-0.14c10.04-12.11,20.77-20.21,31.56-20.27    c31.68-0.2,45.08,45.75,70.84,45.75c25.76,0,81.911-100.92,102-100.92C322.2,146.385,327.83,148.535,334,152.295z" style="fill:#22AF4B;"/><g><path d="M181.1,330.295c-12.858,0-23.32,10.551-23.32,23.52c0,12.975,10.461,23.53,23.32,23.53s23.32-10.556,23.32-23.53     C204.42,340.846,193.958,330.295,181.1,330.295z"/><path d="M330.891,330.445c-12.776,0-23.17,10.483-23.17,23.369c0,12.893,10.394,23.381,23.17,23.381     c12.775,0,23.17-10.488,23.17-23.381C354.061,340.929,343.666,330.445,330.891,330.445z"/><path d="M278.941,371.669c-27.859,16.334-47.784,1.516-48.745,0.777c-4.306-3.401-10.555-2.697-13.996,1.589     c-3.457,4.308-2.768,10.602,1.54,14.059c0.836,0.672,14.436,11.301,35.325,11.301c10.412,0,22.637-2.642,35.993-10.474     c4.764-2.793,6.361-8.92,3.568-13.685C289.832,370.472,283.705,368.875,278.941,371.669z"/></g></g></g><g id="Layer_1"/></svg>