<?xml version="1.0" encoding="utf-8"?>
<!-- Generator: Adobe Illustrator 26.0.3, SVG Export Plug-In . SVG Version: 6.00 Build 0)  -->
<svg version="1.0" id="katman_1" xmlns="http://www.w3.org/2000/svg" xmlns:xlink="http://www.w3.org/1999/xlink" x="0px" y="0px"
	 viewBox="0 0 600 450" style="enable-background:new 0 0 600 450;" xml:space="preserve">
<style type="text/css">
	.st0{fill-rule:evenodd;clip-rule:evenodd;}
	.st1{fill-rule:evenodd;clip-rule:evenodd;fill:#EB5E48;}
	.st2{fill:#010202;stroke:#000000;stroke-width:8.2614;}
</style>
<g>
	<path class="st0" d="M348,177.1c2.1,2.8,3.1,6.3,3.1,10.4c0,7.1-2.4,12.5-7.1,16.1c-4.7,3.6-10.8,5.5-18.2,5.5h-31.7v-71.3h29
		c7.8,0,13.8,1.6,18.1,4.8c4.3,3.2,6.4,8.2,6.4,15c0,5.6-2.8,10-8.4,13.4C343,172.2,345.9,174.3,348,177.1z M310.7,165.8H324
		c1.8,0,3.4-0.6,4.8-1.7c1.3-1.1,2-2.8,2-5.1c0-5.1-2.6-7.7-7.8-7.7h-12.3V165.8z M331.4,193.7c1.8-1.4,2.7-3.7,2.7-6.8
		c0-3-0.9-5.1-2.8-6.4c-1.8-1.3-4.2-1.9-7.1-1.9h-13.6v17.2h13.9C327.3,195.8,329.6,195.1,331.4,193.7z"/>
	<path class="st0" d="M357.3,149.2h17.3v-12.6h-17.3V149.2z M357.6,157.5h16.8l0.1,54.7h-16.9V157.5z"/>
	<path class="st0" d="M426.3,157.9c4,2.6,6,6.3,6,11v42.8c0,7.7-2.3,13.6-7,17.7c-4.7,4.1-11.4,6.1-20,6.1c-4.5,0-8.4-0.3-11.7-1
		c-3.4-0.7-6-1.5-7.9-2.6v-14.4c2,1,4.9,2,8.5,3c3.6,0.9,7.1,1.4,10.5,1.4c4.5,0,7.7-1,9.6-2.9c1.8-1.9,2.8-4.6,2.8-8v-3.2
		c-3.6,3.2-8,4.8-13.4,4.8c-7.4-0.4-13.1-2.8-17.2-7.4c-4.1-4.6-6.1-11.3-6.1-20.2c0-11.6,2.5-19.6,7.6-24.2
		c5.1-4.6,12.4-6.9,22.1-6.9C416.8,154.1,422.3,155.3,426.3,157.9z M399.1,196.1c2.1,3,5,4.4,8.5,4.4c3.5,0,6.6-0.8,9.4-2.5v-25.5
		c0-3.7-2.8-5.6-8.4-5.6c-8.5,0-12.8,5.7-12.8,17.1C395.9,189.2,396.9,193.2,399.1,196.1z"/>
	<path class="st1" d="M438.1,212.3h11.5v-69.9h-11.5V212.3z"/>
	<path class="st1" d="M458.8,137.5h24.1c21.9,0,32.9,11.9,32.9,35.6c0,23.8-11,35.8-32.9,35.8h-24.1V137.5z M481.7,199
		c7.7,0,13.3-2.1,17-6.2c3.6-4.1,5.4-10.7,5.4-19.6c0-8.9-1.8-15.4-5.4-19.6c-3.6-4.1-9.3-6.2-17-6.2h-11.6V199H481.7z"/>
	<path class="st0" d="M101.9,183.6c1.8,3.5,3.8,7,5.8,10.3c13.1-2.4,23.4-9.2,31.2-19.3c5.5-7.1,16.3,1.1,10.8,8.2
		c-9.1,11.7-20.5,19.5-33.8,23.1c1.8,2.4,3.6,4.7,5.5,7c7.8-2.8,13.4-5.3,17.8-7.4c6.5-3.1,15.5-9.3,23-9.3c3.5,0,7.3,0.8,11.2,2
		c18.5,5.5,34.4,12.6,53.3,16.1c2.1-2.5,4.2-5,6.2-7.6c-52.7-10.2-90.6-37.2-90.6-87.7c0-16.7,6.5-36.1,30-36.1
		c19,0,25.1,12.5,30.3,27.2c10.8,30.7,24.8,40.3,57.6,40c4.2-16.1,6.2-33.3,5.7-51.4c-4.8-3.9-11-7.6-18.1-11
		c1.8,5.4,3.5,11.2,5,17.2c2.2,8.7-10.9,12-13.2,3.3c-2.6-10-5.5-19-8.6-27.1c-5.1-1.7-10.4-3.2-16-4.4c15.1,20.4,8.9,50.8,36,45.9
		c8.9-1.6,11.4,11.6,2.5,13.2c-56.9,10.3-22-63.2-81.4-63.2c-32.8,0-40.2,25.9-40.2,51.4c0,7.4,1.2,14.9,1.2,20.6
		C133.3,164.3,121,179.1,101.9,183.6z"/>
	<path class="st1" d="M150.7,240.1c7.5,5.5,15.5,10.4,24.1,14.9c6.2-3.2,17.4-10.1,17.8-10.5c-1.9-0.8-3.3-1.4-4.2-1.8
		c-7-3-14.2-6.6-21.9-7.2c-2-0.2-4.1,0-6,0.5c-1.8,0.5-3.5,1.2-5.2,2c-0.9,0.4-1.7,0.8-2.6,1.3C152.3,239.3,150.9,240.2,150.7,240.1
		z"/>
	<path class="st1" d="M130.9,223.2c2.7,2.7,5.5,5.3,8.4,7.8l1.8-0.9c6.5-3.1,14.3-8.7,21.8-8.7c3.5,0,8.7,0.8,12.6,2
		c11.2,3.3,20.6,6.9,31.5,10.3c1.6-1.3,2.8-2.3,4.3-3.6c1.4-1.3,3.8-3.6,4.5-4.3c-1.3-0.5-12.8-4.3-15.4-5.2c-5.9-2-11.4-4.3-17.3-6
		c-5.7-1.7-12.3-4.1-18.3-4.1c-6.6-0.4-12.4,2.6-18.3,5.4C141.2,218.2,136.2,221,130.9,223.2z"/>
	<path class="st1" d="M97.9,89.5c-5.6,2.9-10.5,6-14.5,9.2c-0.5,18.2,1.5,35.5,5.8,51.8c5.9-3,6.5-8.8,6.1-19.7
		C94.8,115.6,94.3,102.7,97.9,89.5z"/>
	<path class="st1" d="M132,77.2c-5.9,1.4-11.5,3.1-16.8,5c-3.9,8-5.7,15.8-6.4,23.3c-1.9,20.8,7.3,48.5-15.6,57.9
		c0.9,2.6,1.9,5.2,3,7.8C141.4,158.2,101.2,107.6,132,77.2z"/>
	<path class="st0" d="M257,164.1l0.3-0.9l-1.5-0.1c-16.7-1.2-30.2-5.2-41.1-12.2c-9.6-6.1-15.9-13.8-19.3-23.6
		c-1.1-3.2-2-6.2-2.9-9.1c-4.1-13.3-7.1-22.9-19.9-22.9c-12.4,0-18.4,7.8-18.4,23.9c1.5,40.1,30.5,66.6,86.1,78.8l0.4,0.1l0.5-0.8
		l0.4-0.6c0.5-0.8,0.9-1.6,1.4-2.4c0,0,0-0.1,0.1-0.1c0.6-1,1.1-2.1,1.6-3.1c0.3-0.5,0.5-1,0.8-1.5c0.3-0.5,0.6-1.1,0.8-1.6l0.4-0.7
		l0.4-0.7h0l0.5-0.9l-1.6-0.3c-23.1-4-42.7-11.9-56.6-22.9c-15.6-12.3-23-29.3-21.3-49.2c0.3-3.6,2.4-4.9,4.3-4.9
		c2.1,0,4.6,1.6,5.5,5.2c7.9,32.4,23,54.1,74.1,61.8l0.5,0.1l0.4-1l0.1-0.3l0.5-1.2c0.5-1.2,1-2.3,1.4-3.3c0.5-1.3,1-2.6,1.6-4.3
		l0.1-0.4L257,164.1L257,164.1z"/>
	<path d="M86.9,276.5h7.9v17.9l17.2-17.9h9.5L107,291.6l14.7,22h-9.3l-10.7-16.5l-6.9,5.7v10.8h-7.9V276.5z M127.8,285.2h6.3
		l0.5,3.7h0.4c2.3-2.9,5.3-4.4,8.9-4.4c2.9,0,5.2,0.8,6.9,2.4c1.7,1.6,2.5,4.1,2.5,7.6v19.1h-7.4v-17.5c0-1.8-0.4-3-1.2-3.8
		c-0.8-0.8-2.1-1.2-3.7-1.2c-1.7,0-3.1,0.6-4.2,1.8c-1.1,1.2-1.6,2.6-1.6,4.3v16.4h-7.4V285.2z M175.1,314.3
		c-4.9,0-8.5-1.2-10.9-3.6c-2.4-2.4-3.6-6.2-3.6-11.3c0-5.1,1.2-8.8,3.6-11.3c2.4-2.4,6-3.6,10.9-3.6c4.9,0,8.5,1.2,10.9,3.6
		c2.4,2.4,3.6,6.2,3.6,11.3c0,5.1-1.2,8.8-3.6,11.3C183.6,313.1,180,314.3,175.1,314.3z M175.1,308.2c2.4,0,4.2-0.7,5.3-2.1
		c1.1-1.4,1.6-3.5,1.6-6.3V299c0-2.8-0.5-4.9-1.6-6.3c-1.1-1.4-2.8-2.1-5.3-2.1c-2.4,0-4.2,0.7-5.3,2.1c-1,1.4-1.6,3.5-1.6,6.3v0.9
		c0,2.8,0.5,4.9,1.6,6.3C170.9,307.5,172.7,308.2,175.1,308.2z M193.4,285.2h7.6l3.1,11.7c0.3,1.3,0.9,4,1.7,8.2h0.2
		c0.8-3.9,1.4-6.6,1.7-8.1l2.9-11.7h7.6l3.1,11.8c0.4,1.7,1,4.3,1.8,8.1h0.2c0.7-3.5,1.3-6.1,1.7-8.1l2.9-11.8h7l-8.5,28.5H219
		l-3.3-13.6c-0.4-1.7-0.8-3.8-1.3-6.3h-0.3c-0.3,2.4-0.7,4.5-1.1,6.2l-3.4,13.6h-7.7L193.4,285.2z M266.7,298.7l-14.2-22.1h8.9
		l9.3,15.1h0.3l9.2-15.1h8.5l-14.1,22.1v15h-7.9V298.7z M302.6,314.3c-4.9,0-8.5-1.2-10.9-3.6c-2.4-2.4-3.6-6.2-3.6-11.3
		c0-5.1,1.2-8.8,3.6-11.3c2.4-2.4,6-3.6,10.9-3.6c4.9,0,8.5,1.2,10.9,3.6c2.4,2.4,3.6,6.2,3.6,11.3c0,5.1-1.2,8.8-3.6,11.3
		C311.1,313.1,307.5,314.3,302.6,314.3z M302.6,308.2c2.4,0,4.2-0.7,5.3-2.1c1.1-1.4,1.6-3.5,1.6-6.3V299c0-2.8-0.5-4.9-1.6-6.3
		c-1.1-1.4-2.8-2.1-5.3-2.1s-4.2,0.7-5.3,2.1c-1,1.4-1.6,3.5-1.6,6.3v0.9c0,2.8,0.5,4.9,1.6,6.3
		C298.4,307.5,300.2,308.2,302.6,308.2z M333.8,314.3c-2.9,0-5.2-0.8-6.9-2.4c-1.7-1.6-2.5-4.1-2.5-7.6v-19.1h7.4v17.5
		c0,1.8,0.4,3,1.2,3.8c0.8,0.8,2.1,1.2,3.7,1.2c1.7,0,3-0.6,4.1-1.7c1.1-1.2,1.7-2.7,1.7-4.4v-16.4h7.4v28.5h-6.3l-0.5-3.7h-0.4
		C340.4,312.8,337.4,314.3,333.8,314.3z M359.2,285.2h6.3l0.6,4.6h0.4c0.6-1.6,1.4-2.9,2.4-3.8c1-0.9,2.3-1.4,3.8-1.4
		c1,0,2,0.2,2.8,0.5v6.9h-2.1c-2.4,0-4.2,0.7-5.3,2c-1.1,1.3-1.6,3.3-1.6,6v13.7h-7.4V285.2z M398.1,276.5h15.4
		c5.7,0,10,1.6,13.1,4.7c3.1,3.1,4.7,7.7,4.7,13.9c0,6.2-1.6,10.9-4.7,14c-3.1,3.1-7.4,4.6-13.1,4.6h-15.4V276.5z M413.5,307
		c3.2,0,5.6-1,7.2-2.9c1.7-1.9,2.5-4.7,2.5-8.2v-1.6c0-3.5-0.8-6.3-2.5-8.2c-1.6-1.9-4-2.9-7.2-2.9h-7.5V307H413.5z M445.4,314.3
		c-2.2,0-4.2-0.6-6.1-1.7c-1.8-1.2-2.8-3.2-2.8-6.3c0-3.6,1.5-6.2,4.5-7.7c3-1.6,7.2-2.3,12.7-2.3v-2c0-1.3-0.3-2.2-0.9-2.9
		c-0.5-0.7-1.6-1-3.1-1c-1.7,0-2.9,0.3-3.6,0.8c-0.7,0.5-1,1.1-1,1.8v0.8h-7.2c0-0.2-0.1-0.6-0.1-1.2c0-2.4,1-4.3,3.1-5.7
		c2.1-1.4,5-2.2,8.5-2.2c3.9,0,6.8,0.8,8.7,2.4c2,1.6,2.9,3.9,2.9,6.9v12.6c0,0.6,0.2,1.1,0.5,1.5c0.4,0.3,0.8,0.4,1.4,0.4h1.5v5.2
		c-1.2,0.6-2.6,0.9-4.3,0.9c-1.5,0-2.7-0.3-3.7-1c-1-0.6-1.6-1.6-2-2.8h-0.3c-1,1.2-2.3,2.2-3.6,2.8
		C449.4,314,447.6,314.3,445.4,314.3z M447.8,308.4c2.1,0,3.6-0.6,4.6-1.7c1-1.2,1.5-2.8,1.5-4.7v-0.9c-6.5,0-9.7,1.4-9.7,4.3
		c0,0.9,0.3,1.6,0.9,2.2C445.6,308.2,446.5,308.4,447.8,308.4z M478.1,314.3c-2.7,0-4.6-0.7-5.7-2.2c-1.2-1.4-1.7-3.3-1.7-5.5v-15.4
		h-3.4v-6.1h3.6l1.2-8h6v8h4.9v6.1h-4.9v14.7c0,1.6,0.8,2.3,2.3,2.3h2.6v5.2c-0.6,0.2-1.4,0.4-2.3,0.6
		C479.8,314.2,478.9,314.3,478.1,314.3z M496.6,314.3c-2.2,0-4.2-0.6-6.1-1.7c-1.8-1.2-2.8-3.2-2.8-6.3c0-3.6,1.5-6.2,4.5-7.7
		c3-1.6,7.2-2.3,12.7-2.3v-2c0-1.3-0.3-2.2-0.9-2.9c-0.5-0.7-1.6-1-3.1-1c-1.7,0-2.9,0.3-3.6,0.8c-0.7,0.5-1,1.1-1,1.8v0.8h-7.2
		c0-0.2-0.1-0.6-0.1-1.2c0-2.4,1-4.3,3.1-5.7c2.1-1.4,5-2.2,8.5-2.2c3.9,0,6.8,0.8,8.7,2.4c2,1.6,2.9,3.9,2.9,6.9v12.6
		c0,0.6,0.2,1.1,0.5,1.5c0.4,0.3,0.8,0.4,1.4,0.4h1.5v5.2c-1.2,0.6-2.6,0.9-4.3,0.9c-1.5,0-2.7-0.3-3.7-1c-1-0.6-1.6-1.6-2-2.8h-0.3
		c-1,1.2-2.3,2.2-3.6,2.8C500.5,314,498.7,314.3,496.6,314.3z M498.9,308.4c2.1,0,3.6-0.6,4.6-1.7c1-1.2,1.5-2.8,1.5-4.7v-0.9
		c-6.5,0-9.7,1.4-9.7,4.3c0,0.9,0.3,1.6,0.9,2.2C496.8,308.2,497.7,308.4,498.9,308.4z"/>
	<path d="M85.5,338.1h9.2c1.9,0,3.3,0.5,4.4,1.6c1,1,1.5,2.4,1.5,4.2c0,1.8-0.5,3.2-1.6,4.3c-1,1.1-2.5,1.6-4.3,1.6h-6.6v7.2h-2.6
		V338.1z M94.5,347.4c1,0,1.8-0.3,2.5-1c0.6-0.6,0.9-1.5,0.9-2.6c0-1.1-0.3-2-0.9-2.6c-0.6-0.6-1.4-0.9-2.5-0.9h-6.4v7.1H94.5z
		 M104.3,342.5h1.8l0.3,2.2h0.2c0.3-0.7,0.7-1.3,1.2-1.8c0.6-0.5,1.3-0.7,2.2-0.7c0.5,0,0.9,0.1,1.3,0.2v2.3h-1
		c-1,0-1.9,0.3-2.6,0.9c-0.7,0.6-1,1.5-1,2.8v8.5h-2.4V342.5z M114.2,337h2.4v2.6h-2.4V337z M114.2,342.5h2.4v14.5h-2.4V342.5z
		 M119.6,342.5h2.6l2.6,7.2c0.4,1,0.8,2.5,1.4,4.5h0.1c0.5-1.9,1-3.4,1.4-4.5l2.5-7.2h2.4l-5.3,14.5h-2.4L119.6,342.5z M139.5,357.2
		c-1.2,0-2.4-0.3-3.3-0.9c-1-0.6-1.5-1.7-1.5-3.2c0-1.9,0.8-3.1,2.5-3.8c1.7-0.7,4-1,7.2-1v-1.6c0-0.8-0.2-1.5-0.7-1.9
		c-0.5-0.5-1.3-0.7-2.6-0.7c-1.2,0-2,0.2-2.5,0.7c-0.5,0.4-0.7,1-0.7,1.6v0.3h-2.3c0-0.1,0-0.3,0-0.6c0-1.3,0.5-2.3,1.6-3
		c1.1-0.7,2.5-1,4.3-1c1.8,0,3.2,0.4,4.1,1.1c0.9,0.8,1.4,1.8,1.4,3.2v7.8c0,0.3,0.1,0.6,0.3,0.7c0.2,0.1,0.4,0.2,0.7,0.2h1.1v1.6
		c-0.5,0.2-1.1,0.3-1.9,0.3c-0.6,0-1.1-0.2-1.6-0.5c-0.4-0.4-0.7-0.9-0.9-1.5h-0.2c-0.5,0.7-1.2,1.2-2,1.6
		C141.5,357.1,140.5,357.2,139.5,357.2z M140.1,355.2c0.7,0,1.4-0.1,2-0.4c0.6-0.3,1.2-0.7,1.6-1.3c0.4-0.6,0.6-1.3,0.6-2.1v-1
		c-2.4,0-4.1,0.2-5.3,0.6c-1.2,0.4-1.8,1.1-1.8,2.1c0,0.8,0.2,1.4,0.7,1.7C138.5,355.1,139.2,355.2,140.1,355.2z M157.1,357.2
		c-2.2,0-3.8-0.6-4.8-1.8c-1-1.2-1.5-3.1-1.5-5.7c0-2.6,0.5-4.5,1.5-5.7c1-1.2,2.7-1.8,4.8-1.8c2,0,3.4,0.5,4.4,1.4
		c0.9,1,1.4,2.4,1.4,4.3h-2.5c0-1.3-0.2-2.2-0.7-2.8c-0.5-0.6-1.3-0.9-2.5-0.9c-1.3,0-2.3,0.4-2.9,1.3c-0.6,0.9-0.9,2.3-0.9,4.2v0.1
		c0,1.9,0.3,3.3,0.9,4.2c0.6,0.8,1.6,1.3,3,1.3c1.2,0,2.1-0.3,2.6-0.9c0.5-0.6,0.8-1.5,0.8-2.8h2.3c0,1.7-0.5,3-1.4,4.1
		C160.5,356.7,159.1,357.2,157.1,357.2z M167.5,361.9c-0.8,0-1.5-0.1-1.9-0.2v-1.6h1c1.9,0,3.1-1.1,3.7-3.2l-5.6-14.5h2.6l2.7,7.2
		c0.4,1,0.9,2.5,1.6,4.5h0.1c0.5-1.9,1-3.4,1.3-4.5l2.3-7.2h2.4l-4.8,13.7c-0.6,1.8-1.4,3.2-2.2,4.2
		C169.9,361.4,168.9,361.9,167.5,361.9z M192.1,350.9c-0.9,0-1.7-0.3-2.4-1c-0.7-0.7-1-1.5-1-2.4c0-0.9,0.3-1.7,1-2.4
		c0.7-0.7,1.5-1,2.4-1c0.6,0,1.2,0.2,1.7,0.5c0.5,0.3,1,0.7,1.3,1.3c0.3,0.5,0.5,1.1,0.5,1.7c0,0.9-0.3,1.7-1,2.4
		C193.8,350.5,193,350.9,192.1,350.9z M208.2,338.1h9.2c1.9,0,3.3,0.5,4.4,1.6c1,1,1.5,2.4,1.5,4.2c0,1.8-0.5,3.2-1.6,4.3
		c-1,1.1-2.5,1.6-4.3,1.6h-6.6v7.2h-2.6V338.1z M217.3,347.4c1,0,1.8-0.3,2.5-1c0.6-0.6,0.9-1.5,0.9-2.6c0-1.1-0.3-2-0.9-2.6
		c-0.6-0.6-1.4-0.9-2.5-0.9h-6.4v7.1H217.3z M227,342.5h1.8l0.3,2.2h0.2c0.3-0.7,0.7-1.3,1.2-1.8c0.6-0.5,1.3-0.7,2.2-0.7
		c0.5,0,0.9,0.1,1.3,0.2v2.3h-1c-1,0-1.9,0.3-2.6,0.9c-0.7,0.6-1,1.5-1,2.8v8.5H227V342.5z M242.7,357.2c-2.2,0-3.9-0.6-5-1.8
		c-1.1-1.2-1.7-3.2-1.7-5.7c0-2.6,0.6-4.5,1.7-5.7c1.1-1.2,2.8-1.9,5-1.9c2.2,0,3.9,0.6,5,1.9c1.1,1.2,1.7,3.1,1.7,5.7
		c0,2.6-0.6,4.5-1.7,5.7C246.6,356.6,244.9,357.2,242.7,357.2z M242.7,355.2c1.5,0,2.5-0.4,3.2-1.3c0.7-0.9,1-2.3,1-4.2v-0.2
		c0-1.9-0.3-3.3-1-4.1c-0.7-0.9-1.7-1.3-3.2-1.3c-1.5,0-2.5,0.4-3.2,1.3c-0.7,0.8-1,2.2-1,4.1v0.2c0,1.9,0.3,3.3,1,4.2
		C240.2,354.8,241.3,355.2,242.7,355.2z M256.2,357.2c-1,0-1.7-0.3-2.2-0.9c-0.5-0.6-0.7-1.3-0.7-2.2v-9.7h-1.8v-2h1.8l0.5-4h1.9v4
		h2.5v2h-2.5v9.5c0,0.9,0.4,1.3,1.2,1.3h1.2v1.6c-0.2,0.1-0.6,0.2-0.9,0.3C256.9,357.2,256.6,357.2,256.2,357.2z M267.5,357.2
		c-2.3,0-4.1-0.6-5.2-1.8c-1.1-1.2-1.7-3.1-1.7-5.7c0-2.6,0.6-4.5,1.7-5.7c1.1-1.2,2.9-1.8,5.2-1.8c2.1,0,3.7,0.6,4.7,1.7
		c1,1.1,1.6,2.9,1.6,5.3v1.2h-10.7c0.1,1.7,0.5,2.9,1.2,3.7c0.7,0.8,1.8,1.2,3.2,1.2c1.2,0,2.1-0.3,2.8-0.8c0.7-0.5,1.1-1.3,1.1-2.4
		h2.4c0,1.7-0.6,3-1.8,3.9C270.9,356.8,269.4,357.2,267.5,357.2z M271.2,348.3c0-2.8-1.2-4.2-3.7-4.2c-1.4,0-2.4,0.3-3.1,1
		c-0.7,0.7-1.1,1.7-1.2,3.2H271.2z M282.9,357.2c-2.2,0-3.8-0.6-4.8-1.8c-1-1.2-1.5-3.1-1.5-5.7c0-2.6,0.5-4.5,1.5-5.7
		c1-1.2,2.7-1.8,4.8-1.8c2,0,3.4,0.5,4.4,1.4c0.9,1,1.4,2.4,1.4,4.3h-2.5c0-1.3-0.2-2.2-0.7-2.8c-0.5-0.6-1.3-0.9-2.5-0.9
		c-1.3,0-2.3,0.4-2.9,1.3c-0.6,0.9-0.9,2.3-0.9,4.2v0.1c0,1.9,0.3,3.3,0.9,4.2c0.6,0.8,1.6,1.3,3,1.3c1.2,0,2.1-0.3,2.6-0.9
		c0.5-0.6,0.8-1.5,0.8-2.8h2.3c0,1.7-0.5,3-1.4,4.1C286.3,356.7,284.9,357.2,282.9,357.2z M295.2,357.2c-1,0-1.7-0.3-2.2-0.9
		c-0.5-0.6-0.7-1.3-0.7-2.2v-9.7h-1.8v-2h1.8l0.5-4h1.9v4h2.5v2h-2.5v9.5c0,0.9,0.4,1.3,1.2,1.3h1.2v1.6c-0.2,0.1-0.6,0.2-0.9,0.3
		C295.9,357.2,295.6,357.2,295.2,357.2z M300.4,337h2.4v2.6h-2.4V337z M300.4,342.5h2.4v14.5h-2.4V342.5z M313,357.2
		c-2.2,0-3.9-0.6-5-1.8c-1.1-1.2-1.7-3.2-1.7-5.7c0-2.6,0.6-4.5,1.7-5.7c1.1-1.2,2.8-1.9,5-1.9c2.2,0,3.9,0.6,5,1.9
		c1.1,1.2,1.7,3.1,1.7,5.7c0,2.6-0.6,4.5-1.7,5.7C316.9,356.6,315.3,357.2,313,357.2z M313,355.2c1.5,0,2.5-0.4,3.2-1.3
		c0.7-0.9,1-2.3,1-4.2v-0.2c0-1.9-0.3-3.3-1-4.1c-0.7-0.9-1.7-1.3-3.2-1.3c-1.5,0-2.5,0.4-3.2,1.3c-0.7,0.8-1,2.2-1,4.1v0.2
		c0,1.9,0.3,3.3,1,4.2C310.5,354.8,311.6,355.2,313,355.2z M323.3,342.5h1.8l0.3,2h0.2c1.1-1.5,2.7-2.3,4.9-2.3
		c1.5,0,2.6,0.4,3.3,1.2c0.8,0.8,1.2,2,1.2,3.7v9.9h-2.4v-9.7c0-1.2-0.3-2-0.8-2.4c-0.5-0.5-1.3-0.7-2.2-0.7c-0.7,0-1.3,0.2-1.9,0.5
		c-0.6,0.3-1.1,0.8-1.4,1.5c-0.3,0.6-0.5,1.4-0.5,2.3v8.5h-2.4V342.5z M350.7,350.9c-0.9,0-1.7-0.3-2.4-1c-0.7-0.7-1-1.5-1-2.4
		c0-0.9,0.3-1.7,1-2.4c0.7-0.7,1.5-1,2.4-1c0.6,0,1.2,0.2,1.7,0.5c0.5,0.3,1,0.7,1.3,1.3c0.3,0.5,0.5,1.1,0.5,1.7
		c0,0.9-0.3,1.7-1,2.4C352.5,350.5,351.7,350.9,350.7,350.9z M366.9,338.1h9.2c1.9,0,3.3,0.5,4.4,1.6c1,1,1.5,2.4,1.5,4.2
		c0,1.8-0.5,3.2-1.6,4.3c-1,1.1-2.5,1.6-4.3,1.6h-6.6v7.2h-2.6V338.1z M375.9,347.4c1,0,1.8-0.3,2.5-1c0.6-0.6,0.9-1.5,0.9-2.6
		c0-1.1-0.3-2-0.9-2.6c-0.6-0.6-1.4-0.9-2.5-0.9h-6.4v7.1H375.9z M391.8,357.2c-2.3,0-4.1-0.6-5.2-1.8c-1.1-1.2-1.7-3.1-1.7-5.7
		c0-2.6,0.6-4.5,1.7-5.7c1.1-1.2,2.9-1.8,5.2-1.8c2.1,0,3.7,0.6,4.7,1.7c1,1.1,1.6,2.9,1.6,5.3v1.2h-10.7c0.1,1.7,0.5,2.9,1.2,3.7
		c0.7,0.8,1.8,1.2,3.2,1.2c1.2,0,2.1-0.3,2.8-0.8c0.7-0.5,1.1-1.3,1.1-2.4h2.4c0,1.7-0.6,3-1.8,3.9
		C395.1,356.8,393.6,357.2,391.8,357.2z M395.5,348.3c0-2.8-1.2-4.2-3.7-4.2c-1.4,0-2.4,0.3-3.1,1c-0.7,0.7-1.1,1.7-1.2,3.2H395.5z
		 M401.7,342.5h1.8l0.3,2.2h0.2c0.3-0.7,0.7-1.3,1.2-1.8c0.6-0.5,1.3-0.7,2.2-0.7c0.5,0,0.9,0.1,1.3,0.2v2.3h-1
		c-1,0-1.9,0.3-2.6,0.9c-0.7,0.6-1,1.5-1,2.8v8.5h-2.4V342.5z M416.6,357.2c-1.3,0-2.5-0.2-3.4-0.6c-0.9-0.4-1.5-0.9-2-1.6
		c-0.4-0.6-0.6-1.3-0.6-2.1c0-0.2,0-0.4,0-0.4c0-0.1,0-0.1,0-0.2h2.4v0.3c0,0.9,0.3,1.5,1,2c0.7,0.4,1.6,0.6,2.6,0.6
		c0.9,0,1.7-0.2,2.3-0.5c0.6-0.4,0.9-0.9,0.9-1.6c0-0.5-0.2-1-0.5-1.3c-0.3-0.3-0.8-0.6-1.3-0.8c-0.5-0.2-1.2-0.4-2.1-0.6
		c-1.1-0.3-1.9-0.5-2.6-0.8c-0.7-0.3-1.2-0.7-1.7-1.2c-0.5-0.6-0.7-1.3-0.7-2.1c0-1.3,0.5-2.3,1.5-3c1-0.8,2.5-1.1,4.2-1.1
		c1.1,0,2.1,0.2,2.9,0.5c0.8,0.3,1.4,0.8,1.8,1.4c0.4,0.6,0.6,1.2,0.6,2l0,0.5h-2.4v-0.2c0-0.6-0.3-1.2-0.8-1.6
		c-0.5-0.4-1.3-0.6-2.4-0.6c-1.1,0-1.9,0.2-2.3,0.6c-0.4,0.4-0.7,0.8-0.7,1.3c0,0.4,0.2,0.8,0.5,1c0.3,0.3,0.7,0.5,1.2,0.7
		c0.5,0.2,1.1,0.3,1.9,0.5c1.1,0.3,2.1,0.6,2.8,0.9c0.7,0.3,1.3,0.7,1.8,1.3c0.5,0.6,0.8,1.3,0.8,2.3c0,1.5-0.5,2.6-1.6,3.4
		C419.8,356.9,418.4,357.2,416.6,357.2z M426.2,342.5h1.8l0.3,2h0.2c0.5-0.8,1.1-1.3,1.9-1.7c0.8-0.4,1.7-0.6,2.6-0.6
		c1.8,0,3.2,0.6,4.2,1.8c1,1.2,1.5,3.1,1.5,5.7c0,2.5-0.5,4.4-1.5,5.7c-1,1.2-2.3,1.9-4,1.9c-1,0-1.9-0.2-2.6-0.5
		c-0.7-0.3-1.3-0.8-1.8-1.5h-0.2v6.4h-2.4V342.5z M432.3,355.2c0.9,0,1.7-0.2,2.2-0.5c0.6-0.3,1-0.9,1.2-1.7
		c0.3-0.8,0.4-1.9,0.4-3.2v-0.1c0-1.4-0.1-2.5-0.4-3.3c-0.3-0.8-0.7-1.4-1.2-1.7c-0.6-0.4-1.3-0.5-2.2-0.5c-1.3,0-2.2,0.5-2.8,1.4
		c-0.6,0.9-0.9,2.3-0.9,4.1v0.1c0,1.8,0.3,3.2,0.9,4.1C430.1,354.8,431,355.2,432.3,355.2z M448.3,357.2c-2.3,0-4.1-0.6-5.2-1.8
		c-1.1-1.2-1.7-3.1-1.7-5.7c0-2.6,0.6-4.5,1.7-5.7c1.1-1.2,2.9-1.8,5.2-1.8c2.1,0,3.7,0.6,4.7,1.7c1,1.1,1.6,2.9,1.6,5.3v1.2h-10.7
		c0.1,1.7,0.5,2.9,1.2,3.7c0.7,0.8,1.8,1.2,3.2,1.2c1.2,0,2.1-0.3,2.8-0.8c0.7-0.5,1.1-1.3,1.1-2.4h2.4c0,1.7-0.6,3-1.8,3.9
		C451.7,356.8,450.2,357.2,448.3,357.2z M452.1,348.3c0-2.8-1.2-4.2-3.7-4.2c-1.4,0-2.4,0.3-3.1,1c-0.7,0.7-1.1,1.7-1.2,3.2H452.1z
		 M463.8,357.2c-2.2,0-3.8-0.6-4.8-1.8c-1-1.2-1.5-3.1-1.5-5.7c0-2.6,0.5-4.5,1.5-5.7c1-1.2,2.7-1.8,4.8-1.8c2,0,3.4,0.5,4.4,1.4
		c0.9,1,1.4,2.4,1.4,4.3H467c0-1.3-0.2-2.2-0.7-2.8c-0.5-0.6-1.3-0.9-2.5-0.9c-1.3,0-2.3,0.4-2.9,1.3c-0.6,0.9-0.9,2.3-0.9,4.2v0.1
		c0,1.9,0.3,3.3,0.9,4.2c0.6,0.8,1.6,1.3,3,1.3c1.2,0,2.1-0.3,2.6-0.9c0.5-0.6,0.8-1.5,0.8-2.8h2.3c0,1.7-0.5,3-1.4,4.1
		C467.2,356.7,465.7,357.2,463.8,357.2z M476.1,357.2c-1,0-1.7-0.3-2.2-0.9c-0.5-0.6-0.7-1.3-0.7-2.2v-9.7h-1.8v-2h1.8l0.5-4h1.9v4
		h2.5v2h-2.5v9.5c0,0.9,0.4,1.3,1.2,1.3h1.2v1.6c-0.2,0.1-0.6,0.2-0.9,0.3S476.4,357.2,476.1,357.2z M481.2,337h2.4v2.6h-2.4V337z
		 M481.2,342.5h2.4v14.5h-2.4V342.5z M486.6,342.5h2.6l2.6,7.2c0.4,1,0.8,2.5,1.4,4.5h0.1c0.5-1.9,1-3.4,1.4-4.5l2.5-7.2h2.4
		l-5.3,14.5h-2.4L486.6,342.5z M508.7,357.2c-2.3,0-4.1-0.6-5.2-1.8c-1.1-1.2-1.7-3.1-1.7-5.7c0-2.6,0.6-4.5,1.7-5.7
		s2.9-1.8,5.2-1.8c2.1,0,3.7,0.6,4.7,1.7c1,1.1,1.6,2.9,1.6,5.3v1.2h-10.7c0.1,1.7,0.5,2.9,1.2,3.7c0.7,0.8,1.8,1.2,3.2,1.2
		c1.2,0,2.1-0.3,2.8-0.8c0.7-0.5,1.1-1.3,1.1-2.4h2.4c0,1.7-0.6,3-1.8,3.9C512,356.8,510.5,357.2,508.7,357.2z M512.4,348.3
		c0-2.8-1.2-4.2-3.7-4.2c-1.4,0-2.4,0.3-3.1,1c-0.7,0.7-1.1,1.7-1.2,3.2H512.4z"/>
	<path class="st2" d="M205.3,256.5H517"/>
	<path class="st2" d="M83.3,256.5h62.3"/>
</g>
</svg>
