<?xml version="1.0" encoding="UTF-8" standalone="no" ?>
<!DOCTYPE svg PUBLIC "-//W3C//DTD SVG 1.1//EN" "http://www.w3.org/Graphics/SVG/1.1/DTD/svg11.dtd">
<svg xmlns="http://www.w3.org/2000/svg" xmlns:xlink="http://www.w3.org/1999/xlink" version="1.1" width="1080" height="1080" viewBox="0 0 1080 1080" xml:space="preserve">
<desc>Created with Fabric.js 5.2.4</desc>
<defs>
</defs>
<rect x="0" y="0" width="100%" height="100%" fill="transparent"></rect>
<g transform="matrix(1 0 0 1 540 540)" id="ca6aaa32-d5d9-4b90-8dea-8416bca0aac6"  >
<rect style="stroke: none; stroke-width: 1; stroke-dasharray: none; stroke-linecap: butt; stroke-dashoffset: 0; stroke-linejoin: miter; stroke-miterlimit: 4; fill: rgb(255,255,255); fill-rule: nonzero; opacity: 1; visibility: hidden;" vector-effect="non-scaling-stroke"  x="-540" y="-540" rx="0" ry="0" width="1080" height="1080" />
</g>
<g transform="matrix(1 0 0 1 540 540)" id="dbe08140-ce79-4db0-989f-868371905d5d"  >
</g>
<g transform="matrix(1 0 0 1 540 559.93)"  >
<rect style="stroke: none; stroke-width: 1; stroke-dasharray: none; stroke-linecap: butt; stroke-dashoffset: 0; stroke-linejoin: miter; stroke-miterlimit: 4; fill: rgb(255,255,255); fill-rule: nonzero; opacity: 1; visibility: hidden;" vector-effect="non-scaling-stroke"  x="-540" y="-540" rx="0" ry="0" width="1080" height="1080" />
</g>
<g transform="matrix(1 0 0 1 540 568.99)"  >
<rect style="stroke: none; stroke-width: 1; stroke-dasharray: none; stroke-linecap: butt; stroke-dashoffset: 0; stroke-linejoin: miter; stroke-miterlimit: 4; fill: rgb(255,255,255); fill-rule: nonzero; opacity: 1; visibility: hidden;" vector-effect="non-scaling-stroke"  x="-540" y="-540" rx="0" ry="0" width="1080" height="1080" />
</g>
<g transform="matrix(1 0 0 1 540 540)"  >
<rect style="stroke: none; stroke-width: 1; stroke-dasharray: none; stroke-linecap: butt; stroke-dashoffset: 0; stroke-linejoin: miter; stroke-miterlimit: 4; fill: rgb(255,255,255); fill-rule: nonzero; opacity: 1; visibility: hidden;" vector-effect="non-scaling-stroke"  x="-540" y="-540" rx="0" ry="0" width="1080" height="1080" />
</g>
<g transform="matrix(NaN NaN NaN NaN 0 0)"  >
<path style="stroke: none; stroke-width: 1; stroke-dasharray: none; stroke-linecap: butt; stroke-dashoffset: 0; stroke-linejoin: miter; stroke-miterlimit: 4; fill: rgb(62,60,66); fill-rule: nonzero; opacity: 1;"  transform=" translate(-32, -32)" d="M 3.556 63.7 L 3.556 54.425000000000004 L 11.286000000000001 54.425000000000004 L 11.286000000000001 9.275 L 3.556000000000001 9.275 L 3.556000000000001 0 L 34.156000000000006 0 C 48.069 0 56.726000000000006 6.184 56.726000000000006 17.314 C 56.726000000000006 24.414 52.39600000000001 28.753999999999998 46.83200000000001 30.918 C 54.87200000000001 33.082 60.43600000000001 38.338 60.43600000000001 45.757999999999996 C 60.444 57.507 51.17 64 35.7 64 L 3.556 64 z M 21.796 9.285000000000004 L 21.796 26.6 L 33.236 26.6 C 41.893 26.6 46.221999999999994 23.508000000000003 46.221999999999994 17.943 C 46.221999999999994 12.069000000000003 41.583999999999996 9.286000000000001 32.92699999999999 9.286000000000001 z M 21.796 54.425000000000004 L 34.782 54.425000000000004 C 44.985 54.425000000000004 49.931999999999995 51.333000000000006 49.931999999999995 45.150000000000006 C 49.931999999999995 38.967000000000006 44.675999999999995 35.87500000000001 34.163999999999994 35.87500000000001 L 21.797 35.87500000000001 z" stroke-linecap="round" />
</g>
<g transform="matrix(NaN NaN NaN NaN 0 0)"  >
<path style="stroke: none; stroke-width: 1; stroke-dasharray: none; stroke-linecap: butt; stroke-dashoffset: 0; stroke-linejoin: miter; stroke-miterlimit: 4; fill: rgb(62,60,66); fill-rule: nonzero; opacity: 1;"  transform=" translate(-32, -32)" d="M 3.556 63.7 L 3.556 54.425000000000004 L 11.286000000000001 54.425000000000004 L 11.286000000000001 9.275 L 3.556000000000001 9.275 L 3.556000000000001 0 L 34.156000000000006 0 C 48.069 0 56.726000000000006 6.184 56.726000000000006 17.314 C 56.726000000000006 24.414 52.39600000000001 28.753999999999998 46.83200000000001 30.918 C 54.87200000000001 33.082 60.43600000000001 38.338 60.43600000000001 45.757999999999996 C 60.444 57.507 51.17 64 35.7 64 L 3.556 64 z M 21.796 9.285000000000004 L 21.796 26.6 L 33.236 26.6 C 41.893 26.6 46.221999999999994 23.508000000000003 46.221999999999994 17.943 C 46.221999999999994 12.069000000000003 41.583999999999996 9.286000000000001 32.92699999999999 9.286000000000001 z M 21.796 54.425000000000004 L 34.782 54.425000000000004 C 44.985 54.425000000000004 49.931999999999995 51.333000000000006 49.931999999999995 45.150000000000006 C 49.931999999999995 38.967000000000006 44.675999999999995 35.87500000000001 34.163999999999994 35.87500000000001 L 21.797 35.87500000000001 z" stroke-linecap="round" />
</g>
<g transform="matrix(NaN NaN NaN NaN 0 0)"  >
<path style="stroke: none; stroke-width: 1; stroke-dasharray: none; stroke-linecap: butt; stroke-dashoffset: 0; stroke-linejoin: miter; stroke-miterlimit: 4; fill: rgb(62,60,66); fill-rule: nonzero; opacity: 1;"  transform=" translate(-32, -32)" d="M 3.556 63.7 L 3.556 54.425000000000004 L 11.286000000000001 54.425000000000004 L 11.286000000000001 9.275 L 3.556000000000001 9.275 L 3.556000000000001 0 L 34.156000000000006 0 C 48.069 0 56.726000000000006 6.184 56.726000000000006 17.314 C 56.726000000000006 24.414 52.39600000000001 28.753999999999998 46.83200000000001 30.918 C 54.87200000000001 33.082 60.43600000000001 38.338 60.43600000000001 45.757999999999996 C 60.444 57.507 51.17 64 35.7 64 L 3.556 64 z M 21.796 9.285000000000004 L 21.796 26.6 L 33.236 26.6 C 41.893 26.6 46.221999999999994 23.508000000000003 46.221999999999994 17.943 C 46.221999999999994 12.069000000000003 41.583999999999996 9.286000000000001 32.92699999999999 9.286000000000001 z M 21.796 54.425000000000004 L 34.782 54.425000000000004 C 44.985 54.425000000000004 49.931999999999995 51.333000000000006 49.931999999999995 45.150000000000006 C 49.931999999999995 38.967000000000006 44.675999999999995 35.87500000000001 34.163999999999994 35.87500000000001 L 21.797 35.87500000000001 z" stroke-linecap="round" />
</g>
<g transform="matrix(NaN NaN NaN NaN 0 0)"  >
<path style="stroke: none; stroke-width: 1; stroke-dasharray: none; stroke-linecap: butt; stroke-dashoffset: 0; stroke-linejoin: miter; stroke-miterlimit: 4; fill: rgb(62,60,66); fill-rule: nonzero; opacity: 1;"  transform=" translate(-32, -32)" d="M 3.556 63.7 L 3.556 54.425000000000004 L 11.286000000000001 54.425000000000004 L 11.286000000000001 9.275 L 3.556000000000001 9.275 L 3.556000000000001 0 L 34.156000000000006 0 C 48.069 0 56.726000000000006 6.184 56.726000000000006 17.314 C 56.726000000000006 24.414 52.39600000000001 28.753999999999998 46.83200000000001 30.918 C 54.87200000000001 33.082 60.43600000000001 38.338 60.43600000000001 45.757999999999996 C 60.444 57.507 51.17 64 35.7 64 L 3.556 64 z M 21.796 9.285000000000004 L 21.796 26.6 L 33.236 26.6 C 41.893 26.6 46.221999999999994 23.508000000000003 46.221999999999994 17.943 C 46.221999999999994 12.069000000000003 41.583999999999996 9.286000000000001 32.92699999999999 9.286000000000001 z M 21.796 54.425000000000004 L 34.782 54.425000000000004 C 44.985 54.425000000000004 49.931999999999995 51.333000000000006 49.931999999999995 45.150000000000006 C 49.931999999999995 38.967000000000006 44.675999999999995 35.87500000000001 34.163999999999994 35.87500000000001 L 21.797 35.87500000000001 z" stroke-linecap="round" />
</g>
<g transform="matrix(NaN NaN NaN NaN 0 0)"  >
<path style="stroke: none; stroke-width: 1; stroke-dasharray: none; stroke-linecap: butt; stroke-dashoffset: 0; stroke-linejoin: miter; stroke-miterlimit: 4; fill: rgb(62,60,66); fill-rule: nonzero; opacity: 1;"  transform=" translate(-32, -32)" d="M 3.556 63.7 L 3.556 54.425000000000004 L 11.286000000000001 54.425000000000004 L 11.286000000000001 9.275 L 3.556000000000001 9.275 L 3.556000000000001 0 L 34.156000000000006 0 C 48.069 0 56.726000000000006 6.184 56.726000000000006 17.314 C 56.726000000000006 24.414 52.39600000000001 28.753999999999998 46.83200000000001 30.918 C 54.87200000000001 33.082 60.43600000000001 38.338 60.43600000000001 45.757999999999996 C 60.444 57.507 51.17 64 35.7 64 L 3.556 64 z M 21.796 9.285000000000004 L 21.796 26.6 L 33.236 26.6 C 41.893 26.6 46.221999999999994 23.508000000000003 46.221999999999994 17.943 C 46.221999999999994 12.069000000000003 41.583999999999996 9.286000000000001 32.92699999999999 9.286000000000001 z M 21.796 54.425000000000004 L 34.782 54.425000000000004 C 44.985 54.425000000000004 49.931999999999995 51.333000000000006 49.931999999999995 45.150000000000006 C 49.931999999999995 38.967000000000006 44.675999999999995 35.87500000000001 34.163999999999994 35.87500000000001 L 21.797 35.87500000000001 z" stroke-linecap="round" />
</g>
<g transform="matrix(NaN NaN NaN NaN 0 0)"  >
<path style="stroke: none; stroke-width: 1; stroke-dasharray: none; stroke-linecap: butt; stroke-dashoffset: 0; stroke-linejoin: miter; stroke-miterlimit: 4; fill: rgb(62,60,66); fill-rule: nonzero; opacity: 1;"  transform=" translate(-32, -32)" d="M 3.556 63.7 L 3.556 54.425000000000004 L 11.286000000000001 54.425000000000004 L 11.286000000000001 9.275 L 3.556000000000001 9.275 L 3.556000000000001 0 L 34.156000000000006 0 C 48.069 0 56.726000000000006 6.184 56.726000000000006 17.314 C 56.726000000000006 24.414 52.39600000000001 28.753999999999998 46.83200000000001 30.918 C 54.87200000000001 33.082 60.43600000000001 38.338 60.43600000000001 45.757999999999996 C 60.444 57.507 51.17 64 35.7 64 L 3.556 64 z M 21.796 9.285000000000004 L 21.796 26.6 L 33.236 26.6 C 41.893 26.6 46.221999999999994 23.508000000000003 46.221999999999994 17.943 C 46.221999999999994 12.069000000000003 41.583999999999996 9.286000000000001 32.92699999999999 9.286000000000001 z M 21.796 54.425000000000004 L 34.782 54.425000000000004 C 44.985 54.425000000000004 49.931999999999995 51.333000000000006 49.931999999999995 45.150000000000006 C 49.931999999999995 38.967000000000006 44.675999999999995 35.87500000000001 34.163999999999994 35.87500000000001 L 21.797 35.87500000000001 z" stroke-linecap="round" />
</g>
<g transform="matrix(NaN NaN NaN NaN 0 0)"  >
<path style="stroke: none; stroke-width: 1; stroke-dasharray: none; stroke-linecap: butt; stroke-dashoffset: 0; stroke-linejoin: miter; stroke-miterlimit: 4; fill: rgb(62,60,66); fill-rule: nonzero; opacity: 1;"  transform=" translate(-32, -32)" d="M 3.556 63.7 L 3.556 54.425000000000004 L 11.286000000000001 54.425000000000004 L 11.286000000000001 9.275 L 3.556000000000001 9.275 L 3.556000000000001 0 L 34.156000000000006 0 C 48.069 0 56.726000000000006 6.184 56.726000000000006 17.314 C 56.726000000000006 24.414 52.39600000000001 28.753999999999998 46.83200000000001 30.918 C 54.87200000000001 33.082 60.43600000000001 38.338 60.43600000000001 45.757999999999996 C 60.444 57.507 51.17 64 35.7 64 L 3.556 64 z M 21.796 9.285000000000004 L 21.796 26.6 L 33.236 26.6 C 41.893 26.6 46.221999999999994 23.508000000000003 46.221999999999994 17.943 C 46.221999999999994 12.069000000000003 41.583999999999996 9.286000000000001 32.92699999999999 9.286000000000001 z M 21.796 54.425000000000004 L 34.782 54.425000000000004 C 44.985 54.425000000000004 49.931999999999995 51.333000000000006 49.931999999999995 45.150000000000006 C 49.931999999999995 38.967000000000006 44.675999999999995 35.87500000000001 34.163999999999994 35.87500000000001 L 21.797 35.87500000000001 z" stroke-linecap="round" />
</g>
<g transform="matrix(NaN NaN NaN NaN 0 0)"  >
<g style=""   >
</g>
</g>
<g transform="matrix(NaN NaN NaN NaN 0 0)"  >
<g style=""   >
</g>
</g>
<g transform="matrix(NaN NaN NaN NaN 0 0)"  >
<g style=""   >
</g>
</g>
<g transform="matrix(NaN NaN NaN NaN 0 0)"  >
<g style=""   >
</g>
</g>
<g transform="matrix(14.26 0 0 14.26 514.82 540)" id="06bd3079-4772-4d9f-b306-9803cb4e88a1"  >
<path style="stroke: rgb(0,0,0); stroke-width: 0; stroke-dasharray: none; stroke-linecap: butt; stroke-dashoffset: 0; stroke-linejoin: miter; stroke-miterlimit: 4; fill: rgb(62,60,66); fill-rule: nonzero; opacity: 1;" vector-effect="non-scaling-stroke"  transform=" translate(-32, -32)" d="M 3.556 63.7 L 3.556 54.425000000000004 L 11.286000000000001 54.425000000000004 L 11.286000000000001 9.275 L 3.556000000000001 9.275 L 3.556000000000001 0 L 34.156000000000006 0 C 48.069 0 56.726000000000006 6.184 56.726000000000006 17.314 C 56.726000000000006 24.414 52.39600000000001 28.753999999999998 46.83200000000001 30.918 C 54.87200000000001 33.082 60.43600000000001 38.338 60.43600000000001 45.757999999999996 C 60.444 57.507 51.17 64 35.7 64 L 3.556 64 z M 21.796 9.285000000000004 L 21.796 26.6 L 33.236 26.6 C 41.893 26.6 46.221999999999994 23.508000000000003 46.221999999999994 17.943 C 46.221999999999994 12.069000000000003 41.583999999999996 9.286000000000001 32.92699999999999 9.286000000000001 z M 21.796 54.425000000000004 L 34.782 54.425000000000004 C 44.985 54.425000000000004 49.931999999999995 51.333000000000006 49.931999999999995 45.150000000000006 C 49.931999999999995 38.967000000000006 44.675999999999995 35.87500000000001 34.163999999999994 35.87500000000001 L 21.797 35.87500000000001 z" stroke-linecap="round" />
</g>
</svg>