<svg id="Layer_1" data-name="Layer 1" xmlns="http://www.w3.org/2000/svg" width="7857.681" height="1200" viewBox="0 0 7857.681 1200"><defs><style>.cls-1{fill:#1e1d19;}.cls-2{fill:#02b2fd;}.cls-3{fill:#fd1b00;}</style></defs><title>Sapaad Partner Logos</title><path class="cls-1" d="M7857.681,375.258c-6.51028,5.6141-5.5628,14.0667-7.62495,21.20654-26.75507,92.63872-117.50016,152.30752-212.25038,139.18784-97.374-13.48314-169.61072-95.9919-169.18647-193.24482.41512-95.17275,72.031-178.11015,164.85846-190.921,100.26978-13.83791,189.868,44.1302,216.96372,139.83484,1.99056,7.02975.41752,15.60886,7.23962,21.06684ZM7663.84822,181.64831a161.67972,161.67972,0,0,0-162.95294,161.39783c-.25417,88.0665,72.3198,161.12838,160.76058,161.84127,89.79473.72387,163.21239-71.24643,163.8639-160.63241C7826.17271,254.6488,7753.92738,181.98533,7663.84822,181.64831Z"/><path class="cls-2" d="M.00089,611.02265c-.18073-131.97324,27.04822-251.62957,101.59491-357.146,79.48237-112.50258,187.91057-185.14524,320.138-220.90738C593.44171-13.47077,765.06262-9.95682,935.7315,40.863c14.65857,4.36486,19.44242,10.88087,17.98445,25.98115-4.77808,49.48751-3.702,99.36629-9.95339,148.84235-1.738,13.75456-4.20129,16.079-17.31241,11.01883-89.23607-34.44014-181.67322-50.334-277.356-43.7683C499.20012,193.22259,376.4663,251.1359,301.7095,387.654c-43.15058,78.8-52.51769,164.99659-46.36734,253.32312,5.66343,81.33317,28.15061,156.988,79.31132,222.05047,67.1829,85.43833,157.69589,129.27672,263.48584,144.99848,110.51356,16.42375,218.29245,4.30853,323.28482-32.768,15.48822-5.46942,18.25472-1.78912,19.83256,13.158,5.50972,52.1956,3.23544,104.68727,7.43,156.86752,1.01113,12.57772-5.25783,15.55113-14.925,18.26839-108.96725,30.63087-220.09809,40.65861-332.85559,34.90115-94.25745-4.81253-186.35582-20.64282-272.85391-59.861C137.20505,1052.0624,29.90241,904.18524,4.74586,696.47381,1.11006,666.45378.921,636.40114.00089,611.02265Z"/><path class="cls-2" d="M1062.5327,614.3829c-.12684-122.433,21.698-232.36559,82.58766-331.88C1219.42075,161.07042,1326.95934,80.2602,1462.065,39.083c176.99676-53.94464,355.11419-50.80674,532.53616,1.75855,14.70289,4.35608,19.40014,10.98829,17.90686,26.02058-4.84908,48.80936-3.68347,98.01009-9.68278,146.84765-1.92809,15.69881-4.57665,18.2061-19.42368,12.4207-88.53051-34.49776-180.398-49.59021-275.35994-43.1803-133.57742,9.01638-246.63966,57.792-325.02158,171.15283-39.65948,57.35774-58.94611,122.21434-64.94517,191.01584-7.073,81.11793-1.78877,161.27246,30.96681,236.92492,54.33775,125.4982,153.53874,195.52427,285.3543,221.65654,117.1756,23.23,232.22071,11.55006,344.41547-27.99635,17.8975-6.30846,19.82848-1.43645,21.49977,14.95324,5.19044,50.89836,2.86717,102.0549,7.1123,152.901,1.06687,12.7787-3.83794,17.03051-15.00463,20.16076-108.96869,30.54466-220.04049,40.55777-332.76412,34.65425-97.6121-5.112-192.689-22.366-281.46939-64.8292-183.25143-87.64788-285.57315-233.44584-310.58462-434.31746C1063.78443,668.57783,1063.90274,637.84923,1062.5327,614.3829Z"/><path class="cls-1" d="M3015.28562,889.352c-67.24034-16.15561-133.72564-32.04538-200.16577-48.12113-49.52158-11.98187-99.13373-23.64357-148.37664-36.68584-13.52456-3.58221-17.93017.42126-22.62285,12.35684-45.14721,114.8258-84.88608,231.612-126.74715,347.62326-4.4378,12.29928-9.35222,16.999-23.06824,16.66489-44.53942-1.08474-89.12208-.40567-133.63291-.40567-2.9683-7.75955,1.92185-13.22238,4.07265-18.89423q71.16969-187.67262,143.16457-375.03058c6.105-15.78017,3.2525-19.95967-13.02679-23.841-156.33528-37.275-312.43753-75.52523-468.60825-113.4884-3.08649-.75006-6.61982-.63866-8.576-5.71789,5.47728-5.57675,12.85672-2.9463,19.16472-2.95817,167.23-.31478,334.461-.71649,501.6891-.18011,18.18361.0584,26.86077-4.5335,33.6329-22.58808,70.14931-187.01375,141.6319-373.52866,212.14324-560.40808,4.98552-13.21333,11.09774-17.69277,25.22888-17.4402,51.13642.914,102.30118.58626,153.45033.16506,9.79425-.08064,14.83214,2.26369,18.5687,12.27959q209.45265,561.43383,419.54743,1122.6289c.41536,1.11077.05141,2.51185.05141,5.45995-51.61352,0-103.16289-.20937-154.70795.15649-11.92029.08466-11.03888-9.36161-13.35759-15.87466-41.98816-117.92859-83.5391-236.01224-125.53615-353.9376Q2999.30362,507.1002,2890.62512,203.23c-2.36-6.60868-5.07681-13.09066-9.27822-23.86649-24.62446,66.33125-47.56153,128.34726-70.667,190.30067q-46.1623,123.77545-92.52472,247.4765c-8.5914,22.98488-8.55969,23.03188,15.19009,23.02241q94.43588-.03741,188.87176-.20517c8.10854-.02375,14.69953-.22964,17.95875,9.948,24.85076,77.59988,50.24132,155.02731,75.36906,232.53916C3016.06541,884.05182,3015.44658,886.02657,3015.28562,889.352Z"/><path class="cls-1" d="M7374.56661,1002.96024c0,43.17334.07832,84.1345-.05237,125.09505-.03507,11.02424-10.16708,10.72433-16.847,13.26088-93.62017,35.54869-191.01919,43.86621-289.99461,38.06222a387.084,387.084,0,0,1-122.11981-27.41164c-83.17058-33.43675-147.0866-89.99964-184.89041-170.341-71.08885-151.07816-76.65309-307.266-7.44285-459.26018,72.03729-158.20456,216.68217-223.29428,381.26964-208.22287,188.6558,17.27544,275.25256,158.89047,298.31287,300.36539,8.37063,51.35176,7.80513,102.96925,8.17124,154.66.07688,10.86559-2.62765,15.9339-14.09294,14.28651-3.85428-.55376-7.85606-.08634-11.79009-.08634q-270.47964,0-540.95783-.30794c-14.3966-.03753-18.39165,2.36076-17.093,18.06022,11.34037,137.09839,94.0449,234.72473,221.37437,256.7335,91.96643,15.89636,179.82056-.82981,263.97465-39.52734C7352.35047,1013.74584,7362.18219,1008.88378,7374.56661,1002.96024ZM7076.371,680.96561q102.30336,0,204.60622.08046c9.20471.02,16.28674.65618,15.05723-12.97776-4.56392-50.60733-15.29843-99.22125-39.44362-144.54089C7188.77678,396.24357,7022.45,399.902,6945.38566,478.0847c-51.17558,51.91853-73.742,115.86654-83.94125,185.97858-2.12845,14.634,2.70453,17.31628,16.22525,17.188C6943.89814,680.62289,7010.13624,680.96633,7076.371,680.96561Z"/><path class="cls-1" d="M4772.377,1005.58685c0,40.07978-.27579,80.5108.1744,120.93378.12925,11.56169-8.95727,11.8273-15.56316,14.3497-82.64784,31.55757-168.74252,41.24284-256.59329,40.10161-50.22186-.65234-99.35787-7.78606-146.47161-25.14178-94.609-34.852-163.90233-99.04648-203.21719-190.87434-59.71293-139.4715-64.53533-283.28439-7.77293-424.09042,65.35741-162.12775,210.60479-243.22163,389.06228-226.808,184.87022,17.00347,268.4934,151.33759,294.93569,281.04708,11.85495,58.15763,12.16677,116.99027,12.05867,175.94761-.02066,11.27653-4.66867,12.57305-14.02809,12.47868-38.69458-.39057-77.39589-.16261-116.09432-.16249-145.61062.00024-291.22268.21333-436.83089-.32605-14.72524-.05468-18.73422,2.72-16.81141,18.25749,4.44717,35.93541,11.35047,71.15122,26.0291,104.22907,44.9973,101.39908,126.51124,149.58654,234.55108,157.03851,82.349,5.67988,159.98367-12.86876,233.81309-48.783,6.41562-3.12078,12.94127-6.01623,19.45347-8.93328C4769.54755,1004.6382,4770.32734,1005.10431,4772.377,1005.58685Zm-295.93794-324.621c67.51468,0,135.03225-.2806,202.54262.2601,12.06251.09653,15.95234-2.75,14.75406-15.31562-4.82145-50.54689-15.70009-99.16784-40.27434-144.22474-68.48427-125.56889-233.64541-121.3244-310.09191-43.48032-51.04777,51.98053-73.63819,115.83435-83.74618,185.949-2.14959,14.90575,2.93179,17.1954,16.23966,17.07932C4342.717,680.65071,4409.57972,680.96621,4476.43906,680.96585Z"/><path class="cls-1" d="M6418.73938,1017.86311c-16.685,20.37733-29.92277,41.20458-46.12591,59.92409-72.31884,83.55232-166.71592,109.29835-272.62875,101.1065-172.50358-13.34182-227.53679-131.79325-245.596-243.99808-5.94045-36.90852-7.78014-74.14237-7.73786-111.53127.17248-153.22943.44923-306.46131-.42954-459.68594-.10426-18.1146,5.2457-21.44607,21.79429-20.91011,38.00368,1.23086,76.0948,1.09686,114.10857.02848,14.43263-.40555,18.48822,2.97826,18.42384,18.01087q-.94916,221.9823-.2556,443.97113c.0836,45.30218,4.36116,90.19366,19.31846,133.39483,23.85644,68.90174,74.23637,106.21941,147.12744,109.32256,116.56854,4.96267,191.61545-53.38443,222.39632-173.35781,11.43839-44.582,16.39341-90.04114,16.40782-136.04422.03988-125.07192.43338-250.14605-.32239-375.21322-.10042-16.70765,4.43371-20.65757,20.57583-20.12473,38.00176,1.25442,76.09144,1.05944,114.10905.07081,14.719-.38283,19.77827,2.7145,19.62068,18.79769-.88646,90.35747-.42858,180.72819-.42858,271.09435,0,172.21958-.26617,344.44037.42762,516.65719.06678,16.55134-4.0998,20.67209-20.33369,20.0363-34.71058-1.35911-69.52686-1.00177-104.2682-.111-12.82644.3288-16.7206-3.10723-16.49045-16.17241C6419.22849,1108.0527,6418.73938,1062.95353,6418.73938,1017.86311Z"/><path class="cls-1" d="M5130.16064,478.34143c42.56568-68.19856,95.46515-121.61867,172.07981-147.62,70.2639-23.84641,141.8779-26.12742,212.81685-5.24225,94.853,27.92542,145.20222,97.71992,169.70441,189.33883a482.19577,482.19577,0,0,1,16.22812,124.22112c.2484,168.95683.02258,337.91485.6419,506.86988.05093,13.94-5.02516,15.6473-16.80708,15.46-38.69218-.61553-77.42761-1.06329-116.091.16668-16.08639.51179-20.73679-3.32416-20.65271-20.10729.737-146.68808.41656-293.38156.42473-440.07336.00192-39.99536-2.06023-79.71288-11.44319-118.88545-27.14569-113.32184-106.17468-151.12235-212.88267-133.95591-94.58879,15.21687-141.64776,81.91182-166.36087,168.08511-12.001,41.84529-14.81123,85.00256-14.86745,128.297-.1696,131.62945-.50593,263.26249.43146,394.88546.1326,18.66363-5.57482,22.29668-22.68555,21.74675-38.6624-1.24231-77.39878-.76709-116.091-.15109-10.94063.17412-14.33222-2.64652-14.31828-14.01634q.4843-399.80046.03026-799.60175c-.01249-11.46353,2.16689-16.07989,14.96355-15.76685q55.06829,1.34733,110.187-.01577c12.67894-.32383,15.12786,3.85022,14.953,15.49549C5129.76714,391.08646,5130.16064,434.71685,5130.16064,478.34143Z"/><path class="cls-1" d="M4064.02915,355.36239c-39.29372,110.04175-77.63516,217.537-116.06165,325.00173q-86.02466,240.57782-171.79178,481.24616c-5.15777,14.57479-11.18878,20.11268-27.39745,19.65557-47.82675-1.3482-95.71836-.73508-143.579-.28144-10.3523.09809-15.968-1.77737-19.84073-13.00342q-138.5478-401.62885-278.01209-802.94251c-.83265-2.40135-1.47046-4.87009-2.89984-9.65139,53.26992,0,105.34636.0319,157.423-.02644,10.66869-.01193,9.67461,8.891,11.65892,15.15691q78.62493,248.27427,157.05333,496.61059,25.38252,80.2808,50.89018,160.52239c1.14807,3.61243,2.75858,7.07844,5.62743,14.34311,21.20764-64.32161,41.3083-125.07767,61.27275-185.87822q79.40687-241.829,158.31214-483.82067c4.59635-14.19838,11.25245-17.47684,24.91754-17.2258C3974.83068,355.86339,4018.08342,355.36239,4064.02915,355.36239Z"/><path class="cls-1" d="M7683.82684,357.058c24.212,20.05249,53.92911,61.736,66.37791,91.6965-36.41959,4.171-36.21684,4.05407-53.30307-25.49187-8.16643-14.12079-16.83639-28.00222-26.15113-41.38686a51.08891,51.08891,0,0,0-15.54539-14.58179c-12.44063-7.286-27.75828-8.70563-39.74151-3.47927-8.62383,3.76107-2.78476,17.93839-3.31279,27.40877-.72791,13.04743-1.35251,26.2974.10954,39.22036,1.89207,16.71861-4.38374,21.18525-20.51049,20.309-11.29713-.614-13.92671-3.77186-13.84022-14.53048q.72429-90.30021-.00961-180.608c-.09225-10.91667,2.64254-14.70681,13.98676-14.17061,31.38674,1.48346,62.97767-2.20847,94.23036,2.51485,32.29818,4.88118,51.18471,23.544,53.17479,50.96659,1.9771,27.25186-16.30452,51.01192-46.35221,60.15631C7690.597,355.79462,7688.14,356.13584,7683.82684,357.058ZM7647.905,332.61992c9.83748-.63794,21.61459.64083,33.17358-2.92232,14.30483-4.409,22.52844-13.81776,22.28868-28.4775-.25224-15.4793-9.07595-25.13051-24.46134-28.79228-12.259-2.9177-24.66121-2.72536-37.08695-2.7506-29.85022-.06062-29.84974-.05564-29.85022,29.85526C7611.96828,332.74469,7611.9678,332.74469,7647.905,332.61992Z"/><polygon class="cls-3" points="2941.475 636.814 3022.865 891.342 1951.477 633.854 2941.475 636.814"/></svg>