<svg width="800" height="800" viewBox="0 0 800 800" fill="none" xmlns="http://www.w3.org/2000/svg">
<path d="M757.953 154.504C782.499 152.853 783.999 154.504 785.593 171.093C782.665 196.501 765.716 210.399 746.713 223.733C729.99 235.461 711.67 246.754 699.898 265.074C687.837 283.842 680.181 348.072 661.48 411.504C645.316 466.312 620.906 520.504 578.278 544.249C573.824 533.04 578.845 512.351 569.987 505.551C564.256 521.897 557.775 537.493 550.186 551.989C525.172 599.798 488.138 635.595 426.25 646.525C455.615 606.789 483.693 565.754 484.301 497.265C463.635 501.736 464.074 550.552 442.84 563.602C429.227 565.084 415.436 565.075 401.556 564.241C344.556 560.825 286.084 543.694 232.761 560.803C196.454 572.456 166.761 599.945 136.017 613.279C99.8831 628.95 72.5188 635.395 27.5222 628.95C21.8089 621.254 60.4534 611.322 58.1424 594.613C40.5324 592.665 30.3079 596.933 15 589.977C16.69 586.863 19.1741 584.269 22.3013 582.108C50.3576 562.688 130.051 577.522 151.378 556.58C164.543 543.663 173.18 530.143 182.122 517C190.794 504.247 199.759 491.849 213.417 480.675C218.46 476.55 223.943 472.474 229.763 468.495C253.037 452.566 281.83 438.118 310.166 428.16C348.766 414.591 387.881 413.473 429.022 397.753C454.44 388.038 482.079 376.04 504.608 359.25C509.958 355.258 515.019 351.004 519.699 346.444C584.031 283.731 596.784 173.107 697.152 162.798C709.288 161.552 719.225 161.956 728.269 161.681C738.693 161.37 747.92 160.159 757.953 154.504Z" fill="#123343" stroke="#123343"/>
</svg>
