<svg width="65" height="65" viewBox="0 0 65 65" fill="none" xmlns="http://www.w3.org/2000/svg">
<path d="M32.5 0C14.5464 0 0 14.5464 0 32.5C0 50.4536 14.5464 65 32.5 65C50.4536 65 65 50.4536 65 32.5C65 14.5464 50.4536 0 32.5 0ZM48.4617 22.2651L43.128 47.4002C42.7349 49.1825 41.6734 49.6149 40.1925 48.7762L32.0675 42.7873L28.1492 46.5615C27.7167 46.9939 27.3498 47.3609 26.5111 47.3609L27.0877 39.0917L42.1452 25.4889C42.8004 24.9123 42.001 24.5847 41.1361 25.1613L22.5272 36.877L14.5071 34.374C12.7641 33.8236 12.7248 32.631 14.874 31.7923L46.2077 19.7097C47.6623 19.1855 48.9335 20.0635 48.4617 22.2651Z" fill="#64A9DC"/>
</svg>
