<svg xmlns="http://www.w3.org/2000/svg" enable-background="new 0 0 24 24" viewBox="0 0 24 24" id="twilio"><path fill="#EB2E45" d="M0,12c0,6.641,5.359,12,12,12s12-5.36,12-12c0-6.64-5.36-12-12-12C5.381-0.008,0.008,5.353,0,11.971V12L0,12z M3.199,12c-0.014-4.845,3.905-8.786,8.75-8.8H12c4.847-0.014,8.786,3.904,8.801,8.75V12c0.016,4.847-3.904,8.786-8.75,8.801H12c-4.845,0.016-8.786-3.903-8.801-8.75V12L3.199,12z"></path><path fill="#CD283C" d="M12,0h-0.016C5.372,0.001,0.008,5.358,0,11.971V12c0,6.641,5.359,12,12,12l0,0v-3.2c-0.009,0-0.02,0-0.029,0c-4.832,0-8.757-3.913-8.772-8.75V12c-0.014-4.845,3.905-8.786,8.75-8.8H12l0,0V0L12,0L12,0L12,0z"></path><path fill="#EB2E45" d="M9.042 17.44c1.359 0 2.479-1.12 2.479-2.48 0-1.358-1.121-2.479-2.479-2.478-1.362 0-2.482 1.12-2.482 2.478C6.567 16.327 7.674 17.433 9.042 17.44L9.042 17.44zM9.042 11.52c1.359 0 2.479-1.12 2.479-2.479 0-1.361-1.121-2.481-2.479-2.481-1.362 0-2.482 1.12-2.482 2.481C6.567 10.408 7.675 11.512 9.042 11.52L9.042 11.52z"></path><path fill="#CD283C" d="M9.041 12.481c-1.361.001-2.48 1.121-2.48 2.478.007 1.367 1.113 2.473 2.48 2.48V12.481L9.041 12.481zM9.041 6.56c-1.361.001-2.48 1.12-2.48 2.481.007 1.367 1.114 2.471 2.48 2.479V6.56L9.041 6.56z"></path><path fill="#EB2E45" d="M14.959 17.44c1.361 0 2.48-1.12 2.48-2.48 0-1.358-1.119-2.479-2.48-2.478-1.359 0-2.478 1.12-2.478 2.478C12.486 16.326 13.592 17.433 14.959 17.44L14.959 17.44zM14.959 11.52c1.361 0 2.48-1.12 2.48-2.479 0-1.361-1.119-2.481-2.48-2.481-1.359 0-2.478 1.12-2.478 2.481C12.487 10.407 13.593 11.512 14.959 11.52L14.959 11.52z"></path><path fill="#CD283C" d="M14.961 12.481c-.001 0-.001 0-.001 0-1.36 0-2.479 1.12-2.479 2.478.006 1.366 1.111 2.473 2.478 2.48.028 0 .055 0 .082-.001v-4.956C15.014 12.482 14.988 12.481 14.961 12.481L14.961 12.481zM14.959 6.56c-1.359 0-2.478 1.12-2.478 2.481.007 1.366 1.112 2.471 2.478 2.479.028 0 .055 0 .082-.001V6.562C15.014 6.561 14.986 6.56 14.959 6.56L14.959 6.56z"></path></svg>