<svg width="62" height="62" viewBox="0 0 62 62" fill="none" xmlns="http://www.w3.org/2000/svg">
<path d="M52.7138 9.00937C46.9152 3.19687 39.1929 0 30.9862 0C14.0469 0 0.262946 13.7839 0.262946 30.7232C0.262946 36.1344 1.67455 41.421 4.35937 46.0848L0 62L16.2888 57.7237C20.7728 60.1732 25.8241 61.4603 30.9723 61.4603H30.9862C47.9116 61.4603 62 47.6763 62 30.7371C62 22.5304 58.5125 14.8219 52.7138 9.00937ZM30.9862 56.2844C26.3915 56.2844 21.8937 55.0527 17.9772 52.7277L17.05 52.1741L7.39018 54.7067L9.96429 45.2821L9.35536 44.3134C6.79509 40.2446 5.45268 35.5531 5.45268 30.7232C5.45268 16.6487 16.9116 5.18973 31 5.18973C37.8228 5.18973 44.2304 7.84687 49.0464 12.6768C53.8625 17.5067 56.8241 23.9143 56.8103 30.7371C56.8103 44.8254 45.0607 56.2844 30.9862 56.2844ZM44.9915 37.1585C44.2304 36.771 40.4522 34.9165 39.7464 34.6674C39.0406 34.4045 38.5286 34.2799 38.0165 35.0549C37.5045 35.8299 36.0375 37.546 35.5808 38.0719C35.1379 38.5839 34.6812 38.6531 33.9201 38.2656C29.4085 36.0098 26.4469 34.2384 23.4714 29.1317C22.6826 27.7754 24.2603 27.8723 25.7272 24.9384C25.9763 24.4263 25.8518 23.9835 25.658 23.596C25.4643 23.2085 23.9281 19.4304 23.2915 17.8942C22.6687 16.3996 22.0321 16.6071 21.5616 16.5795C21.1187 16.5518 20.6067 16.5518 20.0946 16.5518C19.5826 16.5518 18.7522 16.7455 18.0464 17.5067C17.3406 18.2817 15.3616 20.1362 15.3616 23.9143C15.3616 27.6924 18.1156 31.346 18.4893 31.858C18.8768 32.3701 23.9004 40.1201 31.6089 43.4554C36.4804 45.5589 38.3902 45.7388 40.8259 45.379C42.3067 45.1576 45.3652 43.5246 46.0018 41.7254C46.6384 39.9263 46.6384 38.3902 46.4446 38.0719C46.2647 37.7259 45.7527 37.5321 44.9915 37.1585Z" fill="#28B72E"/>
</svg>
