<?xml version="1.0" encoding="UTF-8"?>
<svg id="Layer_1" data-name="Layer 1" xmlns="http://www.w3.org/2000/svg" viewBox="0 0 559.14 237.77">
  <defs>
    <style>
      .cls-1 {
        fill: #f40014;
      }

      .cls-1, .cls-2, .cls-3, .cls-4, .cls-5 {
        stroke-width: 0px;
      }

      .cls-2 {
        fill: #ffaf00;
      }

      .cls-4 {
        fill: #006eb9;
      }

      .cls-5 {
        fill: #009c3e;
      }
    </style>
  </defs>
  <g>
    <path class="cls-3" d="m172.09,235.03l14.49-20.94h-12.11c-.61,0-1.1-.49-1.1-1.1v-1.99c0-.61.49-1.1,1.1-1.1h17.92c.61,0,1.1.49,1.1,1.1v.65c0,.22-.07.43-.19.62l-14.14,20.95h12.82c.61,0,1.1.49,1.1,1.1v1.99c0,.61-.49,1.1-1.1,1.1h-18.99c-.61,0-1.1-.49-1.1-1.1v-.64c0-.24.07-.46.2-.64Z"/>
    <path class="cls-3" d="m229.92,223.53c0-8.11,5.99-14.03,14.26-14.03s13.88,5.92,13.88,14.09-5.79,14.18-14.12,14.18-14.02-5.88-14.02-14.24Zm22.62.1c0-5.39-2.82-9.9-8.66-9.9s-8.4,4.58-8.4,10.07c0,5.17,3.08,9.75,8.73,9.75,5.81-.01,8.33-4.82,8.33-9.92Z"/>
    <path class="cls-3" d="m298.02,209.9h3.14c.61,0,1.1.49,1.1,1.1v10.55h12.7v-10.55c0-.61.49-1.1,1.1-1.1h3.12c.61,0,1.1.49,1.1,1.1v25.3c0,.61-.49,1.1-1.1,1.1h-3.12c-.61,0-1.1-.49-1.1-1.1v-10.57h-12.7v10.57c0,.61-.49,1.1-1.1,1.1h-3.14c-.61,0-1.1-.49-1.1-1.1v-25.3c0-.61.49-1.1,1.1-1.1Z"/>
    <path class="cls-3" d="m359.12,223.53c0-8.11,5.99-14.03,14.26-14.03s13.88,5.92,13.88,14.09-5.79,14.18-14.12,14.18-14.02-5.88-14.02-14.24Zm22.61.1c0-5.39-2.82-9.9-8.66-9.9s-8.4,4.58-8.4,10.07c0,5.17,3.08,9.75,8.73,9.75,5.81-.01,8.33-4.82,8.33-9.92Z"/>
  </g>
  <g>
    <path class="cls-5" d="m251.08,190.52c-4.2,0-8.3-.9-12.2-2.6l-90.2-40.2c-7.3-3.3-13-9.2-15.8-16.7-2.9-7.5-2.7-15.7.6-23l40.2-90.2c6.8-15.1,24.6-22,39.7-15.2l90.2,40.2c15.1,6.8,22,24.6,15.2,39.7l-40.2,90.2c-3.3,7.3-9.2,13-16.7,15.8-3.5,1.3-7.2,2-10.8,2ZM201.18,16.42c-5.2,0-10.2,3-12.5,8.1l-40.2,90.2c-3.1,6.9,0,15,6.9,18.1l90.2,40.2h0c3.3,1.5,7,1.6,10.5.3,3.4-1.3,6.1-3.9,7.6-7.2l40.2-90.2c3.1-6.9,0-15-6.9-18.1l-90.2-40.2c-1.9-.9-3.8-1.2-5.6-1.2Z"/>
    <path class="cls-2" d="m529.04,190.5h-98.7c-16.6,0-30.1-13.5-30.1-30.1V61.7c0-16.6,13.5-30.1,30.1-30.1h98.7c16.6,0,30.1,13.5,30.1,30.1v98.7c0,16.6-13.5,30.1-30.1,30.1Zm-98.7-142.5c-7.5,0-13.7,6.1-13.7,13.7v98.7c0,7.5,6.1,13.7,13.7,13.7h98.7c7.5,0,13.7-6.1,13.7-13.7V61.7c0-7.5-6.1-13.7-13.7-13.7h-98.7Z"/>
    <path class="cls-1" d="m163.52,80.88l-12.19,27.34,5.54,34.17c1.2,7.5-3.9,14.5-11.3,15.7l-97.5,15.8c-3.6.6-7.2-.3-10.2-2.4-3-2.1-4.9-5.3-5.5-8.9l-15.8-97.4c-1.2-7.5,3.9-14.5,11.3-15.7l97.5-15.8c.7-.1,1.5-.2,2.2-.2,2.9,0,5.7.9,8,2.6,3,2.1,4.9,5.3,5.5,8.9l5.47,33.72,12.19-27.34-1.46-8.98c-1.3-7.9-5.6-14.9-12.1-19.6-6.5-4.7-14.5-6.6-22.4-5.3l-97.5,15.8C8.88,35.9-2.22,51.4.38,67.8l15.8,97.4c1.3,7.9,5.6,14.9,12.1,19.6,5.1,3.7,11.2,5.7,17.5,5.7,1.7,0,3.3-.2,5-.4l97.4-15.8c16.4-2.6,27.5-18.1,24.9-34.5l-9.56-58.91Z"/>
    <g>
      <path class="cls-4" d="m280.9,127.17l12.73-28.58-4.65-34.18c-.5-3.6.5-7.2,2.7-10.1,2.2-2.9,5.4-4.8,9-5.3l97.8-13.3c.6-.1,1.2-.1,1.8-.1,3.71,0,7.17,1.54,9.69,4.06,4.13-3.81,9.33-6.47,15.1-7.49-1.77-2.54-3.95-4.82-6.49-6.77-6.4-4.9-14.3-7-22.3-5.9l-97.8,13.3c-8,1.1-15,5.2-19.9,11.6-4.9,6.4-7,14.3-5.9,22.3l8.22,60.47Z"/>
      <path class="cls-4" d="m443.48,143.1l-12.92-95h-.22c-7.5,0-13.7,6.1-13.7,13.7v5.92l10.54,77.48c.5,3.6-.5,7.2-2.7,10.1-2.2,2.9-5.4,4.8-9,5.3l-97.8,13.3c-7.5,1-14.4-4.2-15.4-11.7l-4.45-32.75-12.73,28.58.88,6.47c2.1,15,15,26,29.8,26,1.3,0,2.7-.1,4.1-.3l97.8-13.2c16.5-2.3,28-17.5,25.8-33.9Z"/>
    </g>
  </g>
</svg>