<svg width="10" height="8" viewBox="0 0 10 8" fill="none" xmlns="http://www.w3.org/2000/svg">
<path d="M4.25176 0.535837L4.74724 0.12915C4.95704 -0.0430502 5.29628 -0.0430502 5.50385 0.12915L9.84265 3.68857C10.0524 3.86077 10.0524 4.13923 9.84265 4.30959L5.50385 7.87085C5.29405 8.04305 4.9548 8.04305 4.74724 7.87085L4.25176 7.46416C4.03973 7.29013 4.04419 7.00618 4.26068 6.83581L6.95012 4.73277H0.535654C0.238813 4.73277 0 4.53675 0 4.29311V3.70689C0 3.46325 0.238813 3.26723 0.535654 3.26723H6.95012L4.26068 1.16419C4.04196 0.993817 4.0375 0.70987 4.25176 0.535837Z" fill="#154965"/>
</svg>
