<svg width="50" height="50" viewBox="0 0 50 50" fill="none" xmlns="http://www.w3.org/2000/svg">
<path d="M44.3174 21.7267C44.0957 21.727 43.8784 21.6642 43.6908 21.5458C43.5033 21.4274 43.3533 21.2584 43.2581 21.058C41.5404 17.4057 38.7975 14.3319 35.3635 12.2112C35.0985 12.0487 34.9089 11.7877 34.8364 11.4854C34.8005 11.3357 34.7943 11.1805 34.8184 11.0284C34.8426 10.8764 34.8964 10.7307 34.9768 10.5995C35.0572 10.4682 35.1627 10.3541 35.2872 10.2637C35.4118 10.1732 35.5528 10.1082 35.7026 10.0723C36.0048 9.99976 36.3235 10.0503 36.5885 10.2127C40.4107 12.5704 43.4646 15.989 45.3776 20.0517C45.4626 20.2303 45.5011 20.4274 45.4893 20.6249C45.4777 20.8223 45.4162 21.0136 45.3107 21.1808C45.2053 21.3483 45.0591 21.486 44.886 21.5816C44.7128 21.6772 44.5183 21.7274 44.3205 21.7276L44.3174 21.7267ZM5.55023 21.6487C5.35314 21.6485 5.15927 21.5986 4.98658 21.5036C4.81389 21.4086 4.66794 21.2715 4.56226 21.1051C4.45657 20.9388 4.39455 20.7485 4.38192 20.5517C4.3693 20.3551 4.4065 20.1585 4.49007 19.9799C5.82293 17.1333 7.73627 14.5966 10.1073 12.533C11.1223 11.6608 12.2098 10.8767 13.3581 10.1893C13.6253 10.0304 13.9446 9.98406 14.246 10.0606C14.5471 10.1372 14.8057 10.3303 14.9647 10.5975C15.1235 10.8647 15.1699 11.1841 15.0933 11.4854C15.0168 11.7866 14.8236 12.0452 14.5564 12.2042C13.5268 12.8209 12.5514 13.5243 11.6408 14.3065C9.51913 16.1545 7.80677 18.4255 6.61351 20.9737C6.51892 21.1757 6.36862 21.3465 6.18026 21.4662C5.9919 21.5857 5.77333 21.6491 5.55023 21.6487Z" fill="white"/>
<path d="M45.2853 41.3517H26.1447V35.883H45.2853C45.5961 35.883 45.8942 35.7595 46.114 35.5398C46.3338 35.32 46.4571 35.0219 46.4571 34.7112C46.4571 34.4004 46.3338 34.1022 46.114 33.8824C45.8942 33.6627 45.5961 33.5393 45.2853 33.5393C43.939 33.5376 42.6483 33.0021 41.6963 32.0501C40.7443 31.098 40.2087 29.8074 40.2071 28.4612C40.2012 24.6267 38.7505 20.9353 36.1442 18.1229C33.5379 15.3105 29.9676 13.5835 26.1447 13.2862V12.7877C26.1524 11.8621 26.5267 10.9773 27.1857 10.3274C27.8447 9.67737 28.7347 9.31526 29.6603 9.32049H31.2228C31.5335 9.32049 31.8317 9.19706 32.0514 8.97729C32.2712 8.75752 32.3947 8.45942 32.3947 8.14862C32.3947 7.83783 32.2712 7.53975 32.0514 7.31998C31.8317 7.10021 31.5335 6.97675 31.2228 6.97675H18.7228C18.412 6.97675 18.1139 7.10021 17.8941 7.31998C17.6743 7.53975 17.551 7.83783 17.551 8.14862C17.551 8.45942 17.6743 8.75752 17.8941 8.97729C18.1139 9.19706 18.412 9.32049 18.7228 9.32049H20.2853C21.211 9.31526 22.1008 9.67737 22.7598 10.3274C23.4189 10.9773 23.7933 11.8621 23.801 12.7877V13.2862C19.9781 13.5835 16.4076 15.3105 13.8013 18.1229C11.195 20.9353 9.74434 24.6267 9.7384 28.4612C9.73676 29.8074 9.20122 31.098 8.24926 32.0501C7.29725 33.0021 6.00658 33.5376 4.66028 33.5393C4.34948 33.5393 4.0514 33.6627 3.83164 33.8824C3.61187 34.1022 3.4884 34.4004 3.4884 34.7112C3.4884 35.0219 3.61187 35.32 3.83164 35.5398C4.0514 35.7595 4.34948 35.883 4.66028 35.883H23.801V41.3517H4.66028C4.34948 41.3517 4.0514 41.4752 3.83164 41.695C3.61187 41.9148 3.4884 42.2128 3.4884 42.5236C3.4884 42.8344 3.61187 43.1326 3.83164 43.3523C4.0514 43.5721 4.34948 43.6955 4.66028 43.6955H45.2853C45.5961 43.6955 45.8942 43.5721 46.114 43.3523C46.3338 43.1326 46.4571 42.8344 46.4571 42.5236C46.4571 42.2128 46.3338 41.9148 46.114 41.695C45.8942 41.4752 45.5961 41.3517 45.2853 41.3517ZM12.0821 28.4612C12.0821 25.0423 13.4403 21.7635 15.8577 19.346C18.2751 16.9286 21.554 15.5705 24.9728 15.5705C28.3917 15.5705 31.6704 16.9286 34.0878 19.346C36.5053 21.7635 37.8634 25.0423 37.8634 28.4612C37.862 30.3488 38.5826 32.1657 39.8775 33.5393H10.0681C11.3629 32.1657 12.0835 30.3488 12.0821 28.4612Z" fill="white"/>
</svg>
