<svg width="50" height="50" viewBox="0 0 50 50" fill="none" xmlns="http://www.w3.org/2000/svg">
<mask id="mask0_24_11" style="mask-type:luminance" maskUnits="userSpaceOnUse" x="0" y="0" width="50" height="50">
<path d="M50 0H0V50H50V0Z" fill="white"/>
</mask>
<g mask="url(#mask0_24_11)">
<path d="M46.866 4.65112H4.67847C3.74638 4.65216 2.85277 5.02288 2.19369 5.68197C1.5346 6.34105 1.16388 7.23466 1.16284 8.16675V34.7293C1.16388 35.6614 1.5346 36.555 2.19369 37.214C2.85277 37.8731 3.74638 38.2439 4.67847 38.2448H19.9128V40.198C19.9112 41.5444 19.3756 42.835 18.4237 43.7869C17.4717 44.7389 16.1811 45.2745 14.8347 45.2761C14.5239 45.2761 14.2259 45.3996 14.0061 45.6194C13.7863 45.8391 13.6628 46.1372 13.6628 46.448C13.6628 46.7588 13.7863 47.0569 14.0061 47.2767C14.2259 47.4965 14.5239 47.6198 14.8347 47.6198H36.7097C37.0205 47.6198 37.3187 47.4965 37.5384 47.2767C37.7582 47.0569 37.8816 46.7588 37.8816 46.448C37.8816 46.1372 37.7582 45.8391 37.5384 45.6194C37.3187 45.3996 37.0205 45.2761 36.7097 45.2761C35.3634 45.2745 34.0727 44.7389 33.1207 43.7869C32.1688 42.835 31.6332 41.5444 31.6316 40.198V38.2448H46.866C47.7981 38.2439 48.6917 37.8731 49.3507 37.214C50.0098 36.555 50.3806 35.6614 50.3816 34.7293V8.16675C50.3806 7.23466 50.0098 6.34105 49.3507 5.68197C48.6917 5.02288 47.7981 4.65216 46.866 4.65112ZM31.3019 45.2761H20.2425C21.5374 43.9025 22.258 42.0858 22.2566 40.198V38.2448H29.2878V40.198C29.2864 42.0858 30.007 43.9025 31.3019 45.2761ZM48.0378 34.7293C48.0378 35.0401 47.9144 35.3381 47.6946 35.5579C47.4748 35.7776 47.1768 35.9011 46.866 35.9011H4.67847C4.36767 35.9011 4.0696 35.7776 3.84983 35.5579C3.63006 35.3381 3.50659 35.0401 3.50659 34.7293V8.16675C3.50659 7.85595 3.63006 7.55787 3.84983 7.33811C4.0696 7.11834 4.36767 6.99487 4.67847 6.99487H46.866C47.1768 6.99487 47.4748 7.11834 47.6946 7.33811C47.9144 7.55787 48.0378 7.85595 48.0378 8.16675V34.7293Z" fill="white"/>
<path d="M18.6157 13.0965L18.6047 27.3933C18.6047 27.5451 18.6489 27.6934 18.7317 27.8204C18.8146 27.9474 18.9328 28.0476 19.0715 28.1086C19.2103 28.1697 19.3639 28.189 19.5136 28.1643C19.6632 28.1395 19.8024 28.0717 19.9142 27.9691L23.6696 24.5231L27.161 30.3707C27.214 30.4586 27.2839 30.5351 27.3665 30.5959C27.4492 30.6567 27.5429 30.7007 27.6425 30.7253C27.7421 30.75 27.8455 30.7546 27.9469 30.7393C28.0485 30.7238 28.1458 30.6886 28.2337 30.6355L30.7508 29.116C30.928 29.0089 31.0553 28.8359 31.1051 28.635C31.1546 28.4339 31.1225 28.2215 31.0157 28.0441L27.5235 22.1965L32.3173 20.6269C32.4628 20.5794 32.5909 20.4902 32.686 20.3703C32.7812 20.2504 32.8392 20.1053 32.8525 19.9529C32.8659 19.8004 32.8343 19.6474 32.7615 19.5129C32.6887 19.3782 32.578 19.268 32.443 19.1957L19.7657 12.4082C19.6467 12.3445 19.5132 12.3127 19.3782 12.3159C19.2433 12.3193 19.1115 12.3574 18.9958 12.4266C18.8799 12.4959 18.784 12.594 18.7174 12.7115C18.6508 12.8289 18.6158 12.9616 18.6157 13.0965Z" fill="white"/>
</g>
</svg>
