<?xml version="1.0" standalone="no"?>
<!DOCTYPE svg PUBLIC "-//W3C//DTD SVG 20010904//EN"
 "http://www.w3.org/TR/2001/REC-SVG-20010904/DTD/svg10.dtd">
<svg version="1.0" xmlns="http://www.w3.org/2000/svg"
 width="64.000000pt" height="64.000000pt" viewBox="0 0 64.000000 64.000000"
 preserveAspectRatio="xMidYMid meet">

<g transform="translate(0.000000,64.000000) scale(0.100000,-0.100000)"
fill="#000000" stroke="none">
<path d="M163 478 c-84 -34 -153 -65 -153 -68 0 -4 24 -16 52 -27 l53 -20 3
-111 3 -112 57 -17 c77 -24 219 -23 290 1 l52 18 0 107 c0 105 1 108 25 119
24 11 25 11 25 -27 0 -23 -6 -44 -15 -51 -20 -16 -16 -49 8 -64 36 -23 76 36
42 64 -9 8 -15 29 -15 56 0 34 4 44 20 49 11 3 20 10 20 15 0 7 -301 132 -312
129 -2 0 -72 -28 -155 -61z m300 -15 c64 -26 117 -49 117 -53 0 -4 -58 -30
-129 -58 l-129 -51 -131 52 c-72 28 -131 54 -131 57 0 10 255 108 270 104 8
-3 68 -26 133 -51z m-231 -148 l87 -35 63 24 c35 14 75 29 91 35 l27 11 0 -99
0 -99 -69 -16 c-39 -9 -88 -16 -111 -16 -23 0 -72 7 -111 16 l-69 16 0 99 c0
54 1 99 3 99 2 0 42 -16 89 -35z m364 -46 c10 -17 -13 -36 -27 -22 -12 12 -4
33 11 33 5 0 12 -5 16 -11z"/>
</g>
</svg>
