<svg width="48" height="50" viewBox="0 0 48 50" fill="none" xmlns="http://www.w3.org/2000/svg">
<g clip-path="url(#clip0_23_5)">
<path d="M1.12207 8.15771V17.5327H46.0056V8.15771H1.12207ZM7.85461 15.189C7.41076 15.189 6.97687 15.0515 6.60781 14.794C6.23876 14.5365 5.95111 14.1704 5.78126 13.7422C5.61141 13.3139 5.56696 12.8427 5.65355 12.3879C5.74015 11.9334 5.95388 11.5157 6.26774 11.188C6.58159 10.8601 6.98147 10.6369 7.41679 10.5465C7.85214 10.4561 8.30338 10.5025 8.71346 10.6799C9.12347 10.8572 9.47401 11.1576 9.72057 11.5431C9.9672 11.9285 10.0988 12.3818 10.0988 12.8452C10.0988 13.4668 9.86232 14.0629 9.44147 14.5025C9.02061 14.942 8.44976 15.189 7.85461 15.189ZM13.8391 15.189C13.3953 15.189 12.9613 15.0515 12.5923 14.794C12.2232 14.5365 11.9355 14.1704 11.7657 13.7422C11.5958 13.3139 11.5514 12.8427 11.638 12.3879C11.7247 11.9334 11.9383 11.5157 12.2522 11.188C12.566 10.8601 12.966 10.6369 13.4012 10.5465C13.8367 10.4561 14.2878 10.5025 14.698 10.6799C15.1079 10.8572 15.4585 11.1576 15.705 11.5431C15.9516 11.9285 16.0833 12.3818 16.0833 12.8452C16.0833 13.4668 15.8468 14.0629 15.4259 14.5025C15.005 14.942 14.4342 15.189 13.8391 15.189ZM19.8236 15.189C19.3798 15.189 18.9458 15.0515 18.5768 14.794C18.2077 14.5365 17.92 14.1704 17.7502 13.7422C17.5803 13.3139 17.5359 12.8427 17.6225 12.3879C17.7091 11.9334 17.9228 11.5157 18.2367 11.188C18.5505 10.8601 18.9505 10.6369 19.3857 10.5465C19.8211 10.4561 20.2723 10.5025 20.6824 10.6799C21.0924 10.8572 21.443 11.1576 21.6895 11.5431C21.9361 11.9285 22.0677 12.3818 22.0677 12.8452C22.0677 13.4668 21.8312 14.0629 21.4104 14.5025C20.9895 14.942 20.4187 15.189 19.8236 15.189Z" fill="white"/>
<path d="M43.7615 5.81396H3.36627C2.47378 5.815 1.61814 6.18572 0.98705 6.84481C0.355967 7.50389 0.000990005 8.39748 0 9.32959V42.1421C0.000990005 43.0742 0.355967 43.9678 0.98705 44.6269C1.61814 45.2859 2.47378 45.6568 3.36627 45.6577H43.7615C44.654 45.6568 45.5096 45.2859 46.1407 44.6269C46.7718 43.9678 47.1268 43.0742 47.1277 42.1421V9.32959C47.1268 8.39748 46.7718 7.50389 46.1407 6.84481C45.5096 6.18572 44.654 5.815 43.7615 5.81396ZM44.8836 42.1421C44.8836 42.4529 44.7653 42.7509 44.5549 42.9707C44.3445 43.1905 44.0591 43.314 43.7615 43.314H3.36627C3.06867 43.314 2.78327 43.1905 2.57284 42.9707C2.3624 42.7509 2.24417 42.4529 2.24417 42.1421V9.32959C2.24417 9.01881 2.3624 8.72069 2.57284 8.50092C2.78327 8.28115 3.06867 8.15771 3.36627 8.15771H43.7615C44.0591 8.15771 44.3445 8.28115 44.5549 8.50092C44.7653 8.72069 44.8836 9.01881 44.8836 9.32959V42.1421ZM36.3265 28.8132C36.4308 28.922 36.5135 29.0512 36.5699 29.1935C36.6263 29.3357 36.6554 29.4882 36.6554 29.6421C36.6554 29.7961 36.6263 29.9485 36.5699 30.0907C36.5135 30.2329 36.4308 30.3622 36.3265 30.4709L31.8382 35.1585C31.6277 35.3784 31.3422 35.5019 31.0445 35.5019C30.7467 35.5019 30.4613 35.3784 30.2508 35.1585C30.0403 34.9386 29.9221 34.6405 29.9221 34.3295C29.9221 34.0186 30.0403 33.7205 30.2508 33.5007L33.9462 29.6421L30.2508 25.7835C30.0403 25.5636 29.9221 25.2655 29.9221 24.9545C29.9221 24.6436 30.0403 24.3455 30.2508 24.1257C30.4613 23.9058 30.7467 23.7823 31.0445 23.7823C31.3422 23.7823 31.6277 23.9058 31.8382 24.1257L36.3265 28.8132ZM16.877 25.7835L13.1815 29.6421L16.877 33.5007C17.0874 33.7205 17.2058 34.0186 17.2058 34.3295C17.2058 34.6405 17.0874 34.9386 16.877 35.1585C16.6665 35.3784 16.381 35.5019 16.0833 35.5019C15.7855 35.5019 15.5001 35.3784 15.2896 35.1585L10.8012 30.4709C10.6969 30.3622 10.6142 30.2329 10.5578 30.0907C10.5014 29.9485 10.4723 29.7961 10.4723 29.6421C10.4723 29.4882 10.5014 29.3357 10.5578 29.1935C10.6142 29.0512 10.6969 28.922 10.8012 28.8132L15.2896 24.1257C15.5001 23.9058 15.7855 23.7823 16.0833 23.7823C16.381 23.7823 16.6665 23.9058 16.877 24.1257C17.0874 24.3455 17.2058 24.6436 17.2058 24.9545C17.2058 25.2655 17.0874 25.5636 16.877 25.7835ZM27.5817 23.0866L21.5972 37.1491C21.4764 37.4332 21.2524 37.6555 20.9747 37.7672C20.6969 37.8788 20.3881 37.8706 20.1161 37.7444C19.8441 37.6183 19.6312 37.3843 19.5243 37.0943C19.4174 36.8042 19.4252 36.4816 19.546 36.1976L25.5305 22.135C25.5904 21.9944 25.6761 21.8675 25.7829 21.7614C25.8898 21.6554 26.0155 21.5723 26.1531 21.517C26.2905 21.4618 26.4371 21.4352 26.5845 21.4392C26.7319 21.4432 26.877 21.4772 27.0116 21.5398C27.1464 21.6022 27.2679 21.6918 27.3695 21.8034C27.471 21.9149 27.5505 22.0462 27.6035 22.1899C27.6564 22.3335 27.6817 22.4866 27.678 22.6405C27.6742 22.7943 27.6416 22.9459 27.5817 23.0866Z" fill="white"/>
</g>
<defs>
<clipPath id="clip0_23_5">
<rect width="47.8758" height="50" fill="white"/>
</clipPath>
</defs>
</svg>
