<?xml version="1.0" standalone="no"?>
<!DOCTYPE svg PUBLIC "-//W3C//DTD SVG 20010904//EN"
 "http://www.w3.org/TR/2001/REC-SVG-20010904/DTD/svg10.dtd">
<svg version="1.0" xmlns="http://www.w3.org/2000/svg"
 width="32.000000pt" height="32.000000pt" viewBox="0 0 32.000000 32.000000"
 preserveAspectRatio="xMidYMid meet">

<g transform="translate(0.000000,32.000000) scale(0.100000,-0.100000)"
fill="#000000" stroke="none">
<path d="M190 230 c0 -27 -4 -50 -10 -50 -5 0 -10 14 -10 30 0 17 -4 30 -10
30 -5 0 -10 -13 -10 -30 0 -16 -4 -30 -10 -30 -5 0 -10 -4 -10 -10 0 -6 30
-10 70 -10 40 0 70 4 70 10 0 6 -4 10 -10 10 -5 0 -10 18 -10 40 0 22 -4 40
-10 40 -5 0 -10 -18 -10 -40 0 -22 -4 -40 -10 -40 -5 0 -10 23 -10 50 0 28 -4
50 -10 50 -5 0 -10 -22 -10 -50z"/>
<path d="M60 129 c-32 -13 -32 -12 -21 -42 9 -22 14 -25 33 -18 16 6 34 3 61
-10 37 -19 38 -19 90 2 56 24 74 36 65 44 -3 3 -30 -6 -61 -20 l-57 -25 -34
21 c-22 13 -43 18 -56 14 -11 -4 -20 -2 -20 4 0 19 49 24 75 7 27 -18 65 -21
65 -6 0 6 -8 10 -18 10 -10 0 -27 7 -38 15 -22 17 -49 18 -84 4z"/>
</g>
</svg>
