<?xml version="1.0" standalone="no"?>
<!DOCTYPE svg PUBLIC "-//W3C//DTD SVG 20010904//EN"
 "http://www.w3.org/TR/2001/REC-SVG-20010904/DTD/svg10.dtd">
<svg version="1.0" xmlns="http://www.w3.org/2000/svg"
 width="24.000000pt" height="24.000000pt" viewBox="0 0 24.000000 24.000000"
 preserveAspectRatio="xMidYMid meet">

<g transform="translate(0.000000,24.000000) scale(0.100000,-0.100000)"
fill="#000000" stroke="none">
<path d="M27 213 c-18 -18 -6 -70 23 -98 17 -16 30 -38 30 -50 0 -31 19 -45
61 -45 30 0 42 6 59 30 26 36 23 64 -8 68 -27 4 -40 -23 -23 -50 13 -22 -2
-32 -41 -26 -35 5 -34 38 2 73 22 21 30 38 30 62 0 33 -22 55 -38 38 -4 -4 -1
-10 6 -12 17 -6 15 -49 -4 -67 -20 -20 -48 -20 -68 0 -18 17 -22 64 -6 64 6 0
10 5 10 10 0 11 -23 14 -33 3z"/>
</g>
</svg>
