<?xml version="1.0" standalone="no"?>
<!DOCTYPE svg PUBLIC "-//W3C//DTD SVG 20010904//EN"
 "http://www.w3.org/TR/2001/REC-SVG-20010904/DTD/svg10.dtd">
<svg version="1.0" xmlns="http://www.w3.org/2000/svg"
 width="30.000000pt" height="30.000000pt" viewBox="0 0 30.000000 30.000000"
 preserveAspectRatio="xMidYMid meet">

<g transform="translate(0.000000,30.000000) scale(0.100000,-0.100000)"
fill="#000000" stroke="none">
<path d="M44 247 c-2 -7 -3 -56 -2 -108 l3 -94 105 0 105 0 0 105 0 105 -103
3 c-79 2 -104 0 -108 -11z m126 -52 c0 -20 5 -25 25 -25 18 0 25 -5 25 -20 0
-15 -7 -20 -25 -20 -20 0 -25 -5 -25 -25 0 -18 -5 -25 -20 -25 -15 0 -20 7
-20 25 0 20 -5 25 -25 25 -18 0 -25 5 -25 20 0 15 7 20 25 20 20 0 25 5 25 25
0 18 5 25 20 25 15 0 20 -7 20 -25z"/>
</g>
</svg>
