<svg id="Layer_1" xmlns="http://www.w3.org/2000/svg" width="42" height="42" viewBox="0 0 32 32">
                                        <title>Try a Demo</title>
                                        <g>
                                            <path d="M29,2H3A3,3,0,0,0,0,5V21a3,3,0,0,0,3,3h9v1a3,3,0,0,1-3,3,1,1,0,0,0,0,2H23a1,1,0,0,0,0-2,3,3,0,0,1-3-3V24h9a3,3,0,0,0,3-3V5A3,3,0,0,0,29,2ZM19,28H13a4.98,4.98,0,0,0,1-3V24h4v1A4.98,4.98,0,0,0,19,28Zm11-7a1,1,0,0,1-1,1H3a1,1,0,0,1-1-1V5A1,1,0,0,1,3,4H29a1,1,0,0,1,1,1Z" fill="#7060fe" />
                                            <path d="M12.007,7.655,12,16.8a.5.5,0,0,0,.838.369l2.4-2.206,2.234,3.743a.5.5,0,0,0,.687.17l1.611-.973a.5.5,0,0,0,.169-.686l-2.235-3.743,3.068-1a.5.5,0,0,0,.081-.916L12.743,7.215A.5.5,0,0,0,12.007,7.655Z" fill="#40d1ce" />
                                        </g>
                                    </svg>