<svg width="50" height="50" viewBox="0 0 50 50" fill="none" xmlns="http://www.w3.org/2000/svg">
<path d="M35.9373 0H10.9373C10.6265 0 10.3284 0.123469 10.1086 0.343235C9.88882 0.563 9.76538 0.861078 9.76538 1.17187V16.7969C9.76538 17.1077 9.88882 17.4058 10.1086 17.6256C10.3284 17.8453 10.6265 17.9687 10.9373 17.9687C11.248 17.9687 11.5462 17.8453 11.766 17.6256C11.9857 17.4058 12.1091 17.1077 12.1091 16.7969V2.34374H34.7654V10.5469C34.7654 10.8577 34.8888 11.1558 35.1085 11.3755C35.3283 11.5953 35.6264 11.7187 35.9373 11.7187H44.1404V43.75H12.1091V38.6719C12.1091 38.361 11.9857 38.063 11.766 37.8433C11.5462 37.6235 11.248 37.5 10.9373 37.5C10.6265 37.5 10.3284 37.6235 10.1086 37.8433C9.88882 38.063 9.76538 38.361 9.76538 38.6719V44.9219C9.76538 45.2327 9.88882 45.5308 10.1086 45.7506C10.3284 45.9703 10.6265 46.0937 10.9373 46.0937H45.3123C45.6231 46.0937 45.9212 45.9703 46.141 45.7506C46.3607 45.5308 46.4841 45.2327 46.4841 44.9219V10.5469C46.481 7.75063 45.3688 5.06978 43.3917 3.09253C41.4143 1.11528 38.7335 0.00310156 35.9373 0ZM37.1091 2.4375C38.8586 2.69187 40.4792 3.50466 41.7293 4.75479C42.9795 6.00492 43.7923 7.62546 44.0467 9.375H37.1091V2.4375Z" fill="white"/>
<path d="M18.7497 19.5313H37.4997C37.8104 19.5313 38.1086 19.4078 38.3283 19.188C38.5481 18.9683 38.6716 18.6701 38.6716 18.3594C38.6716 18.0486 38.5481 17.7505 38.3283 17.5307C38.1086 17.3109 37.8104 17.1874 37.4997 17.1874H18.7497C18.4389 17.1874 18.1408 17.3109 17.921 17.5307C17.7012 17.7505 17.5778 18.0486 17.5778 18.3594C17.5778 18.6701 17.7012 18.9683 17.921 19.188C18.1408 19.4078 18.4389 19.5313 18.7497 19.5313Z" fill="white"/>
<path d="M35.5467 24.6094C35.5467 24.2986 35.4232 24.0005 35.2034 23.7807C34.9836 23.5609 34.6855 23.4374 34.3748 23.4374H23.4372C23.1264 23.4374 22.8283 23.5609 22.6085 23.7807C22.3888 24.0005 22.2654 24.2986 22.2654 24.6094C22.2654 24.9201 22.3888 25.2183 22.6085 25.438C22.8283 25.6578 23.1264 25.7813 23.4372 25.7813H34.3748C34.6855 25.7813 34.9836 25.6578 35.2034 25.438C35.4232 25.2183 35.5467 24.9201 35.5467 24.6094Z" fill="white"/>
<path d="M18.7497 13.2813H28.1247C28.4354 13.2813 28.7336 13.1578 28.9533 12.938C29.1731 12.7183 29.2966 12.4201 29.2966 12.1094C29.2966 11.7986 29.1731 11.5005 28.9533 11.2807C28.7336 11.0609 28.4354 10.9375 28.1247 10.9375H18.7497C18.4389 10.9375 18.1408 11.0609 17.921 11.2807C17.7012 11.5005 17.5778 11.7986 17.5778 12.1094C17.5778 12.4201 17.7012 12.7183 17.921 12.938C18.1408 13.1578 18.4389 13.2813 18.7497 13.2813Z" fill="white"/>
<path d="M28.1247 32.0313H37.4997C37.8104 32.0313 38.1086 31.9078 38.3283 31.688C38.5481 31.4683 38.6716 31.1701 38.6716 30.8594C38.6716 30.5486 38.5481 30.2505 38.3283 30.0307C38.1086 29.8109 37.8104 29.6874 37.4997 29.6874H28.1247C27.8139 29.6874 27.5158 29.8109 27.296 30.0307C27.0762 30.2505 26.9528 30.5486 26.9528 30.8594C26.9528 31.1701 27.0762 31.4683 27.296 31.688C27.5158 31.9078 27.8139 32.0313 28.1247 32.0313Z" fill="white"/>
<path d="M19.8793 36.6977C19.6134 36.96 19.2545 37.1066 18.8809 37.1055C18.7624 37.1053 18.6444 37.0912 18.5293 37.0633L13.8419 35.8399C13.6 35.7721 13.3784 35.6466 13.1958 35.4742C13.1958 35.4742 4.8317 27.1094 4.81764 27.0649L10.2458 21.6359C10.2879 21.65 18.6559 30.0179 18.6559 30.0179C18.8284 30.2008 18.9538 30.4228 19.0215 30.6649L20.245 35.3477C20.3066 35.5851 20.3053 35.8344 20.2413 36.0712C20.1771 36.3079 20.0524 36.5238 19.8793 36.6977ZM5.76216 17.2758C5.61707 17.1306 5.44479 17.0155 5.25517 16.9369C5.06557 16.8584 4.86232 16.8179 4.65709 16.8179C4.45185 16.8179 4.24862 16.8584 4.059 16.9369C3.86938 17.0155 3.69712 17.1306 3.55201 17.2758L0.457479 20.371C0.164556 20.6642 0 21.0615 0 21.4758C0 21.8901 0.164556 22.2874 0.457479 22.5805L2.89029 25.0124L8.19498 19.7078L5.76216 17.2758Z" fill="white"/>
</svg>
