<?xml version="1.0" standalone="no"?>
<!DOCTYPE svg PUBLIC "-//W3C//DTD SVG 20010904//EN"
 "http://www.w3.org/TR/2001/REC-SVG-20010904/DTD/svg10.dtd">
<svg version="1.0" xmlns="http://www.w3.org/2000/svg"
 width="32.000000pt" height="32.000000pt" viewBox="0 0 32.000000 32.000000"
 preserveAspectRatio="xMidYMid meet">

<g transform="translate(0.000000,32.000000) scale(0.100000,-0.100000)"
fill="#000000" stroke="none">
<path d="M36 275 c-34 -52 -23 -82 67 -172 90 -90 120 -101 172 -67 33 21 31
34 -5 69 -23 22 -39 29 -63 27 -43 -4 -80 33 -76 77 3 22 -4 38 -26 61 -35 36
-48 38 -69 5z m71 -71 c-1 -49 48 -98 97 -97 24 1 41 -6 56 -22 22 -23 22 -23
2 -34 -43 -23 -65 -13 -144 66 -80 79 -90 102 -67 145 11 20 11 20 34 -2 16
-15 23 -32 22 -56z"/>
<path d="M250 285 c0 -8 -7 -15 -15 -15 -8 0 -15 -4 -15 -10 0 -5 7 -10 15
-10 8 0 15 -7 15 -15 0 -8 5 -15 10 -15 6 0 10 7 10 15 0 8 7 15 15 15 8 0 15
5 15 10 0 6 -7 10 -15 10 -8 0 -15 7 -15 15 0 8 -4 15 -10 15 -5 0 -10 -7 -10
-15z"/>
</g>
</svg>
